<mxfile host="app.diagrams.net" modified="2022-05-15T15:59:08.682Z" agent="5.0 (Windows NT 10.0; Win64; x64) AppleWebKit/537.36 (KHTML, like Gecko) Chrome/101.0.4951.54 Safari/537.36 Edg/101.0.1210.39" etag="hLFWiT9XM0TNh2aLVXoP" version="14.8.5" type="github">
  <diagram id="UJ0wLhr7sDd_vh9Jb6XS" name="Page-1">
    <mxGraphModel dx="2142" dy="1188" grid="0" gridSize="10" guides="1" tooltips="1" connect="1" arrows="1" fold="1" page="1" pageScale="1" pageWidth="413" pageHeight="583" background="none" backgroundImage="{&quot;src&quot;:&quot;data:image/jpeg;base64,/9j/4AAQSkZJRgABAQEA3ADcAAD/2wBDAAMCAgMCAgMDAwMEAwMEBQgFBQQEBQoHBwYIDAoMDAsKCwsNDhIQDQ4RDgsLEBYQERMUFRUVDA8XGBYUGBIUFRT/2wBDAQMEBAUEBQkFBQkUDQsNFBQUFBQUFBQUFBQUFBQUFBQUFBQUFBQUFBQUFBQUFBQUFBQUFBQUFBQUFBQUFBQUFBT/wAARCAOvBLwDASIAAhEBAxEB/8QAHwAAAQUBAQEBAQEAAAAAAAAAAAECAwQFBgcICQoL/8QAtRAAAgEDAwIEAwUFBAQAAAF9AQIDAAQRBRIhMUEGE1FhByJxFDKBkaEII0KxwRVS0fAkM2JyggkKFhcYGRolJicoKSo0NTY3ODk6Q0RFRkdISUpTVFVWV1hZWmNkZWZnaGlqc3R1dnd4eXqDhIWGh4iJipKTlJWWl5iZmqKjpKWmp6ipqrKztLW2t7i5usLDxMXGx8jJytLT1NXW19jZ2uHi4+Tl5ufo6erx8vP09fb3+Pn6/8QAHwEAAwEBAQEBAQEBAQAAAAAAAAECAwQFBgcICQoL/8QAtREAAgECBAQDBAcFBAQAAQJ3AAECAxEEBSExBhJBUQdhcRMiMoEIFEKRobHBCSMzUvAVYnLRChYkNOEl8RcYGRomJygpKjU2Nzg5OkNERUZHSElKU1RVVldYWVpjZGVmZ2hpanN0dXZ3eHl6goOEhYaHiImKkpOUlZaXmJmaoqOkpaanqKmqsrO0tba3uLm6wsPExcbHyMnK0tPU1dbX2Nna4uPk5ebn6Onq8vP09fb3+Pn6/9oADAMBAAIRAxEAPwD9U6KKKACiiigAooooAKKKKACiiigAooooAKKKKACiiigAooooAKKKKACiiigAooooAKKKKACiiigAooooAKKKKACiiigAooooAKKKKACiiigAooooAKKKKACiiigAooooAKKKKACiiigAooooAKKKKACiiigAooooAKKKKACiiigAooooAKKKKACiiigAooooAKKKKACiiigAooooAKKKKACiiigAooooAKKKKACiiigAooooAKKKKACiiigAooooAKKKKACiiigAooooAKKKKACiiigAooooAKKKKACiiigAooooAKKKKACiiigAooooAKKKKACiiigAooooAKKKKACiiigAooooAKKKKACiiigAooooAKKKKACiiigAooooAKKKKACiiigAooooAKKKKACiiigAooooAKKKKACiiigAooooAKKKKACiiigAooooAKKKKACivKPjB8YNY8D+JPC/hPwp4aTxT4t8Ri4ktra4vRaW9vDAqmSaWTYxABdQFAyckdaw/wDhIv2iv+hM8Af+D66/+R6APc6K8M/4SL9or/oTPAH/AIPbr/4xR/wkX7RX/QmeAP8Awe3X/wAYoA9zorwz/hIv2iv+hM8Af+D26/8AjFH/AAkX7RX/AEJngD/we3X/AMYoA9zorwz/AISL9or/AKEzwB/4Pbr/AOR6P+Ei/aK/6EzwB/4Pbr/5HoA9zorwz/hIv2iv+hM8Af8Ag9uv/kej/hIv2iv+hM8Af+D26/8AkegD3OivDP8AhIv2iv8AoTPAH/g9uv8A5Hra+FPxe1/xP4013wV408KxeFvFOk2kF+v2O+F5a31rKzoJon2KwAdCpVhkUAes0UUUAFFFFABRRRQAUUUUAFFFFABRRRQAUUUUAFFFFABRRRQAUUUUAFFFFABRXjXxA+MXi+H4lSeAvh94RsvEWsWunRanqGoarqX2S0skld0jjIVHd3by2OABxj3qj/wkX7RX/QmeAP8Awe3X/wAYoA9zorwz/hIv2iv+hM8Af+D26/8AjFH/AAkX7RX/AEJngD/we3X/AMYoA9zorwz/AISL9or/AKEzwB/4Pbr/AOMUf8JF+0V/0JngD/we3X/xigD3OivDP+Ei/aK/6EzwB/4Pbr/5Ho/4SL9or/oTPAH/AIPbr/5HoA9zorwz/hIv2iv+hM8Af+D26/8Akej/AISL9or/AKEzwB/4Pbr/AOR6APc6K8L/AOEk/aJXk+C/ALgclV166BP0Jt66v4KfFi6+KOm67Fq2gt4X8R6BqcmlanpTXS3KxyKiOrpIFG5HV1IOB39M0Aek0UUUAFFFFABRRRQAUUUUAFFFFABRRRQAUUUUAFFFFABRRRQAUUUUAFFFFABRRRQAUUUUAFFFecfHD4vf8Kf8NaZd22jTeItb1nVLfRtJ0mKUQ/abqYnarSFSI1Cq7FiMfL70Aej0V4X/AMJL+0RJ8w8E+A4g3Ijk1+5LLnsSLfBI9qX/AISL9or/AKEzwB/4Pbr/AOMUAe50V4Z/wkX7RX/QmeAP/B7df/GKP+Ei/aK/6EzwB/4Pbr/4xQB7nRXhn/CRftFf9CZ4A/8AB7df/GKP+Ei/aK/6EzwB/wCD26/+MUAe50V4Z/wkX7RX/QmeAP8Awe3X/wAj0f8ACRftFf8AQmeAP/B7df8AyPQB7nRXhn/CRftFf9CZ4A/8Ht1/8j0f8JF+0V/0JngD/wAHt1/8j0Ae50V4Z/wkX7RX/QmeAP8Awe3X/wAj0zTPjP8AELwn448L6B8SPBOlaZYeJLtrCz1zQdWa5hiuvLeRIZY5I0YFwjYYcZFAHu1FFFABRRRQAUUUUAFFFFABRRRQAUUUUAFFFFABRRRQAUUUUAFFFFABRRRQAUV87eG/jh8Vfi1Yza78PfAegjwk1zNb2OoeI9Zkhmv1jkaMzLFHC2xSUYYY5rW/4SL9or/oTPAH/g9uv/jFAHudFeGf8JF+0V/0JngD/wAHt1/8Yo/4SL9or/oTPAH/AIPbr/4xQB7nRXhn/CRftFf9CZ4A/wDB7df/ABij/hIv2iv+hM8Af+D26/8AjFAHudFeGf8ACRftFf8AQmeAP/B7df8AyPR/wkX7RX/QmeAP/B7df/I9AHudFeGf8JF+0V/0JngD/wAHt1/8j0f8JF+0V/0JngD/AMHt1/8AI9AHudFfPHiT4pfHX4f+H9R8Ra58OvCuraRplvJdXVvouvzC68pFLOyCSDaxVQTtzk44r27wj4osPG3hXR/EWlu0umatZw31s7qVYxSoHUkdjhhx2oA2aKKKACiiigAooooAKKKKACiiigAooooAKKKKACiiigAooooAKKKKACiiigAooooAKKKKACiiigAooooAKKKKAPDPF3/J43w7/wCxW1b/ANHW1e514Z4u/wCTxvh3/wBitq3/AKOtq9zoAKKKKACiiigAooooAKKKKACvELb/AJPW1D/sn1v/AOnKavb68Rtv+T1tQ/7J9bf+nKegD26iiigAooooAKKKKACiiigAooooAKKKKACiiigAooooAKKKKACiiigAooooA8M+Ho/4y3+MH/YG0H+V1XudeGfDv/k7b4wf9gXQf5XVe50AFFFFABRRRQAUUUUAFFFFABXhfwH/AOS1/Hz/ALD1j/6b4a90rwz4Ef8AJa/j5/2HrH/03w0Ae50UUUAFFFFABRRRQAUUUUAFFFFABRRRQAUUUUAFFFFABRRRQAUUUUAFFFFABRRRQAUUUUAFeGftM/8AIzfA/wD7Hy1/9JLqvc68M/aY/wCRm+B//Y+Wv/pLdUAe50UUUAFFFFABRRRQAUUUUAFFFFABXiH7Tf8AyFPgx/2UDT//AEnuq9vrxD9pz/kJ/Bj/ALKBp/8A6IuqAPb6KKKACiiigAooooAKKKKACiiigAooooAKKKKACiiigAooooAKKKKACiiigDxH9iv/AJNh8Df9cbj/ANKpq9urxH9iv/k2HwN/1xuP/SqavbqACiiigAooooAKKKKACiiigDmfid/yTXxZ/wBgm7/9EvXL/sxf8m5fDD/sW9P/APSdK6j4n/8AJNfFn/YJu/8A0S9cv+zF/wAm5fDD/sW9P/8ASdKAPTqKKKACiiigAooooAKKKKACiiigAooooAKKKKACiiigAooooAKKKKACiiigAooooAKKKKACiiigAooooAKKKKAPDPF3/J43w7/7FbVv/R1tXudeGeLv+Tx/h3/2K2rf+jravc6AKtrqFrfTXMdvcw3ElrL5E6xSBjDJtV9jgfdba6tg84ZT3q1XkngPXrfwx40+JNtqdvqFvJfeJVuLZl064eOWI6dZR71dUKld6Ouc9VNcHea548t9HF74bl16/wDHtxp+ptq+mahDKbG2uIrabyVhWRREoF0II4yh/fRszt5mC4APpeqN5rNjpswiu723tpDDJc7JpVQ+VGVEkmCfuqXTJ6DeueorwbUNWe10a60/QNQ8capaahPp8Ut3qEtzbRWskgneUm6aJp4VIjjWRY1AjZ4lHll3K4MFnrPiLw7ZHxRpniK+tLXTddtWmt7eaW8W3/tLT3t3Xzow8rrEhdVkQvKsJBVySCAfRfhjxloHjWzkvPD2uadrtpG/lvPpt3HcIrYB2lkJAOCOPetqvmHxF4i8VTalef2MJNaik/s+01LxZBp13pc5tPMuD9ndkjk3Mrsu6aCMeUs0mRHgONLwVpfjDxl4n0Gx1nVvEFn4bSy1WWOSxurqEyGO6s1tllneOOSQgG42l1BkQAneCSwB9GUV8v3mufE3UdDMso1W0i0u8s/DOo+YJrVrnyzKbrUY5Io3cRTFrRRKikxjzjlQCw3vhzaeLfFHirQE1jU9dh8P2lvfTxLDNcxrOYruAW6zyyRRSSgL5uNyjzUALGQEswB9BV4jbf8AJ62of9k+tv8A05T17dXzL4/8N+J/E/7XVza+FPF7eCtRTwPayyagumxX3mRC/uQYvLlOBlirbuo2Y7mgD6aorynwL8O/iX4f8TWt74j+LknirSI1cS6UfDlpaCUlSFPmxncNpIbjrjFUvEXwv+LGpa9qF3pXxrk0XTZ53kttOHhayn+zRkkrH5jHc+0cbjyaAPY6K89vPBXjqb4b2eiwfEdrbxXFJvn8Uf2JbsZl3sdn2Yny1+UquR/dz3NZPgn4c/E3QfFFlfeIfi/J4o0eLf5+knw3aWnn5Rgv72M7l2sVbjrtx3oA9YoryLxZ8NfinrPiO+vdE+Mknh7Spn3W+mDwzZ3It1wBt8xzubkE5PrW4PBfjn/hWp0Q/EZj4s37h4p/sW3zt8zdt+zZ8v7nyZ/HrQB6DRXj3hn4ZfFbSvEFheav8aZNd0yGUPcaafC9nbi4QdU8xDuXPqOas+Nvhz8Tte8UXt94e+L0nhfR5dnkaSvhu0uxBhFDfvZDubcwZuem7HQUAesUV5zo/gjx7ZfD/VtIv/iU+peJriYvaeI/7Dt4jaR4QBPs4Plvyr8tz+89hXO6L8Lfi5Y6xYXOofHCTU7CG4jkuLE+FLKL7RGGBaPep3LuAK7hyM5FAHtFFeYfELwD8RfEniA3nhj4qv4P0vylT+zV8PWt6N4zufzJDu5446DFXvC/gvxzpPg3WtN1f4jPruv3QcWOuHRbe3NjlAF/codkm1st83XOOlAHoNFeJaf8KPjBb6hbTXXx1kvLaOVWltv+ESsU81QcldwORkcZHIroviN4E+IPibXIrrwr8UH8F6ctusb6eug218HkDMTL5kp3DIKjaOPlz3oA9Lorznwj4I8e6L4d8QWWufEt/EWq3sJj07U20K2tjpzlGUSCNDtlwxVsPx8mO5rkv+FQ/Gj/AKL9J/4R9h/jQB7nRXnfxK8E+O/FGoWc3hL4kP4JtYoik9suh21/5zlsh90pyuBxgU/4c+C/HPhn+0/+Er+Ir+NPtEara7tFt7H7Kw3bm/dH585Xg9NvvQB6DRXhn/CofjR/0X6T/wAI+w/xrsvH3gzxz4jsdGi8M/EV/CFxaoy3twNFt737cxCBW2yHEeCrnC9d/sKAPQaK86+Gvgnx54X1O6n8WfEp/G1pJFshtW0O2sPJfIO/dEctxkYPHOa5KT4R/GVpHKfHyRFJJC/8IhYnA7DOaAE+Hf8Aydt8YP8AsC6D/K6r2u8vILC1murqaO2toUMkk0zBERRyWZjwAAOprwf4R2t3Y/tPfFK2v73+076Hw94djnvfKWI3EgjuQ0mxeF3EE7RwM133xosftnhvTZp9NuNZ0mx1ezvtR0+1gaeWWCOQMGWNQWk8uTy5iiglhEQAxIBANu3+JnhC88PXOv2/irRJ9DtpBFPqceowtbROWChWkDbQSWUYJ6sPWtLw/wCKNG8WWJvdD1ax1mzDlDcafcpPHuGMjchIzyPzryjx9dQeNor+48KaTcpq632gRy63c6bP5Moj1SGVU2HyzMsKmR2IICB2G4EthPEPw38R/wDCYaTqE/iK5F54g1GCx1a48N2j2EaWNvY6hIgbMkrKzSyqpl3gj90F2sqkgHttFeB6Xea9b+JE8698RP4iHiC4sJtPm+0HT/7HWR/LlJx5YP2URyCZW3tP+7LfeSsfTfEXjXR/DeseJdcutfQeHlttWsre7i8lbzREMnmm4UfevDCZGeM4KtHbnapZgQD3zxJ4u0PwbYi+1/WdP0OyLiMXOpXSW8ZYjIXc5AzwePahvFmhqsLHWLALNb/a4mN0mHh3Kvmqc8pudBuHGWA7ivHPCM2q+HfGWk+KfHEWoTjVNEZrSZrSWcaTcS3UtxNasEVvJxC9pFuOA/2TnnAONq2n3Vxqn9qeG/DGqaNYXGi6hJDFJayK5eXVbaQuY2GYjKPMl8tgGAY5VSCAAfSlMkkWJSzsEUdSxwK+YLzWfiO3iLXJUe+h1T7Xq8L28Ut5Kn2KOO5+ybLfyBBGSBbMsySF3YFecuq2/F/g/wAQvoOt6Xc6h4p1TT59B03VZWaed5ftyzsLgRlPmGYwrGBPlBUFUBPIB9L14Z8CP+S1/Hz/ALD1j/6b4a9l0iOKDSbKOCSeaFIUVJLlnaVlCjBcv8xYjGS3Oc5r5e8K+D/Gvir42/Gs+EfiC/gYQa9ai6VdGt7/AO07tPttnMp+TbhunXdz0FAH1fRXnvw18F+OvDFzfv4s+I7+NYpo1S3ibRLew+zuCSWzEfmyMDB9K44/CL4znOPj7KB/2J9h/jQB7nRXnnjrwT478QaZokHhz4kP4Uu7SIrfXY0S3vPt7bVAcrIcR4KscL/f9qj+G3gfx94X1a5uPFnxMfxrZSQGOKzbQraw8qTcp8zfFyeAw2nj5s9qAPR6K8PuPhL8ZJLiV4vjzJDGzErH/wAIhYNtHYZzziuu8WeC/HWseFtFsNE+I7+HtZtFUX2rjRLe5N+QmCfKf5Y8t83y+uKAPQqK8y+HngH4ieG9eN34o+KT+MdNMLINObw/a2IDkjD+ZEd3GDx71hat8K/i9eate3Fj8cpNOspZ3kgsx4UsZfIjLErHvJy20YG48nFAHtVFeea74L8d6h4F0nStN+I76T4jtmU3niAaJbTG8ABBHkMdiZJU/L/d96z/AAD8PfiT4e8SRXviX4sv4t0pUdX0xvDtpZh2I+VvMjO4bTzgdaAPU6K8b8RfDD4s6jrl/d6X8bJNH06aZnt9PHhayn+zxknbH5jHc2Bxk88V0WoeC/HVz8ObHRrX4jNZ+KoZN0/ib+xLdzcLuY7fsxPlrwVGR/d9zQB6FRXk/gn4c/E7QfE1ne+IPi/J4o0iLd52lN4btLTzsqQv72M7lwSG464xUHiv4Z/FPWPEV/e6L8ZpPD+lTSbrfTB4Ys7kW64Hy+Y53Nznk+tAHr9Feet4K8d/8K3Gij4kOPFfm7/+Eo/sS3zt352fZs+X935c/jWH4T+GnxT0fxFYXut/GWTxDpUMm640w+GbO2+0Lgjb5iHcvJByPSgD16ivJvGnw3+J2ueJLy90D4wSeGdKl2+Tpa+G7O68nCgEeZIdzZIJ59a1rHwT46t/h3eaNc/EdrvxTLJuh8Tf2JboYV3Kdv2YHy24DDJ/vewoA9DorxrQPhf8WdN12wu9T+Nsmr6dDOklxp58LWUIuIw2Wj8xTuXcONw5Ga0vHnw9+JPiDxJNe+G/i0/hPSmRFTS18O2l5sYDDHzJDuO45OD0oA9TorzvQPBPjvTvA2r6VqfxIfVvEd07Gy8QHQ7eE2SlVAHkKdkmCGOW/ve1czpPwq+L1nqtnPe/HKTULKKZHnsz4TsY/PjDAtHvByu4ZG4cjOaAPaqK8y+IvgP4h+JNeS78LfFJ/BumiBY205dAtb7MgLZk8yU7uQVG3p8tXPCngvx1pHhHWtO1r4jNr+uXasLHWW0S3tjYkphT5KfLJhvm+br0oA9BorxCz+E3xihu4ZJ/jxJcQI6tJD/wiNivmKCCVyDxkZGfeul+I3gX4g+JtagufCnxOfwXYJAI5LFdBtr4SSBmJk3y/MMgqNo4+X3oA9Krwz9pj/kZvgf/ANj5a/8ApLdV1ng/wP4+0XQvEFprvxMfxJqV7B5em6gdCtrX+zZNjjzBGh2y/MyNtfj5MdzXhvxP8D+PvC/jz4MXHiz4mP41sZPGtrHFZNoVtYCKT7NcnzN8RyeAwwePmz1oA+uaxPE3jTw94KtorjxDrum6FbzN5ccupXcdurt/dBcgE+wrbry/UtQtPCPxi1PWdasrs297olra6fqUFjLcInlzTtPb5jVtjsZIGwceZhQNxjwADqta+JPhLw1dW9trHinRdKubiJZoYb7UYYXkjYkK6hmBKkgjI4yDXRRyLKgdGDIwyrA5BHqK8Q8HaDrs3i7ULjwnZ23grQ5/D+npFZ65os0/y/a9SdUVBPF5JCSKxhOSglRdqYwc7/hB/EvgPw14ih0bWPEFxF4YsrOw0e2gUlTEtrEtzNHCo2zvtLlIyGVXjAVck5APoSivn66vfEtkdVs/BF5r+pxQ3Wn/ANiTawLiWOS8fzzdxXEsw3NZrCImZyW2OzLGTIqxisNa8VW1/wCFNAtrzxHI3jO3hEl9qMYWfSp7WUyaj5gHERmiYomz5FdF2cMtAHtdj488Nal4kufD9n4h0q6122BM+lw3sb3UQGMlog24YyM5HGRW/XzXp9xd6PJoel6FYX2rPDq9zNb+Htb0eWO40acifdMl6irH5IZ3w0gbzVkIWQk4PO6PqPxJ1Tw/ZRx6hr1rd339jPqs0RuprmGeXUrNZ2VZ7ZEtyIDdb4Iw0arglVGCwB9bUV4Xq1n458PeKZPCfh+bUr7TpDFrVrqWo3EsxEcMDq9k1wx6tcx2jEO2WjuZ8cKccP4dvviJquhwQx6jrNpPeLpDapOkt3PcwXEuo2iTMi3FsiW58n7X5kMYZEAUlVXlwD6srxD9pz/kJ/Bj/soGn/8Aoi6r2HSNLTRdMtbGKW5uI7eMRrLeTvPMwHd5HJZj7k5rw79rizvdQt/hTa6bfnStRn8cWcVtfiJZjbSm1uwkuxvlfaxDbTwcc0Ae/wBFeYfD7wB8RvDfiEXnif4qv4w0sRMh01vD1rZAucbX8yM7uOeOhzWRrvwt+Leoa5qF1pvxuk0rT5riSS2sB4VsphbRsxKRb2O59oIXceTjNAHs1Fee614L8c33w/0zR9P+IzaZ4mt5Fa78RjRLeU3SgNlfs7HYmcryv9z3NZngX4d/EvQPElve+I/i5J4q0mNWEulnw5aWYkJUhT5kZ3DBIPHXFAHqtFeO+Jvhj8V9V1+/vNJ+NUmiaZNMz2+nDwvZzi2jJ4j8xjubH948mt+bwX47f4cQ6LH8R3j8VrLufxP/AGJbkuu8nZ9mJ8sfKQuR6ZoA9DoryLwj8Nfilo/iSxvdc+MkniLSoXLXGmN4Zs7YXC4I2+Yh3LyQcj0p/jL4b/E/XPEl5e6B8YJPDWkylfJ0seGrS6EOFAI81zubJBPPrQB61RXnth4L8c2/w5vdFuPiM934qlk3QeJ/7Et0MC7lO37MD5bfKGXJ/vZ7Vzvh74X/ABZ03XdPu9U+NkmsadDOklzp58LWUAuYwwLR+Yp3JuGRuHIzQB7JRXlvj34ffEnxF4jlvfDXxYk8JaUyKqaYPD1rehGAwzeZIdx3HnHar/h7wX4603wTq+l6p8R31jxDcljZa+dEtoDZZUAfuFOyTBBPzeuKAPQ6K8T074U/GC21C2muvjrJeW0cqtLbnwlYp5qg5KbgcjI4yOea6H4ieBfiD4l1yO68LfFB/BmnLCsbaeugW18GkBJMnmSncMggY6cUAel0V554L8F+O9C0LWrTX/iO/ibUbtNtjqB0S3tTYNtYbhGnyyclWw393HeuPT4R/GZZFLfHyRlByV/4Q+wGfUZzQB7nRXnnxI8FeO/FF5YyeE/iQ3gq3hiKTwLodtf+e+eH3SnK4HYUvw78F+OfDMeqjxT8Rn8ZPcxqtmzaJb2P2Nhu3MBF9/OV4bps9zQB6FRXhn/CofjR/wBF+k/8I+w/xrsPH/gnx34ittHj8M/Eh/CE1rEyXsq6Jb3v21yFw5Eh/d4Ibhf7/sKAPQ6K84+G/gfx94X1a6uPFnxLfxrZyQeXFZtoVtYeVJuB8zfEcngEYPHPtXKSfCP4yvI7J8fJI0LZC/8ACIWBwPTrQBJ+xX/ybD4G/wCuNx/6VTV69rWuad4b0ubUdW1C10vT4Mebd3syxRR5YKNzsQBkkDnuRXj/AOxQrL+y/wCBA7b3FvOC2MZ/0mXmu0+NFhqOpeCYYNKXN/8A21o8kbG3adY9mp2zmR0VlLIgUs2GX5VPI6gA6Xw74s0TxfZvd6FrGn61ao+xp9OukuEDYzjchIBwRxV1tQtU1COxa5iF7JE0yWxceY0alQzheu0FlGf9oeteT6r4f1vwb400vxlq+rrfm6u7bT9UOi6XLbwJZxwXwiMkfmzO3+kXUeXLbVCqcKAzHhLe6vPEXjC11fxBP4u0rSGh19ILy0tbu3nVRqEDWqHanmLuiQskbLh8AEHhWAPo1td05bo2xv7UXKzLbGEzLv8ANKeYI8ZzuKfMB1xz0q7JIsaM7sEVRksxwAK+e/Ci+MpJNF1DUtPu49avNZ0+41EPbFF8z+wMSlgBtVRcAIccBuM9qwZLfWPE3w7t4hceMNa1O6sdM1LxVpep2kvkN5d5ayX1usbr8kjwLdJ9lhBR1JBX5k3AH0BpfxH8Ka7p93f6b4m0fULK0kWK4ubW/iljhdmCqrsrEKSSAAfWty1vbe/R2tp47hEkaJmicMFdGKspI7hgQR2IIrw/4qXmm+PrG7m0Dw5qV/qFvZQRPqwsZ4BFG19bOLbY6qZWPlu5CqfK8o7tnmDdjeL9Q8YWsunwMl9a6KbrXrh5IJ7y0kaddRb7MC9tBI5BhJKRkbZcnh8KKAPpKmLIsgJVg2Dg4OeR1r5wt4viL/Zk+valqGuv4isNb8PW62lsjpaSQzR6cmoN9nA2uh826JJyIyjFSpBNehfAvw6vhnTPElo0mrG4/t3UGdNUmnkGxruZ4njMnBDxurFkyCTzzQB1XxP/AOSa+LP+wTd/+iXrl/2Yv+Tcvhh/2Len/wDpOldP8UP+Sa+Lf+wRd/8Aol65j9mL/k3L4Yf9i3p//pOlAHp1FFFABRRRQAUUUUAFFFFABRRRQAUUUUAFFFFABRRRQAUUUUAFFFFABRRRQAUUUUAFFFFABRRRQAUUUUAFFFFAHhni7/k8f4d/9itq3/o62r3OvDPF3/J4/wAO/wDsVtW/9HW1e50AFFFFABSUtFABRRRQAUUUUAFeI23/ACetqH/ZPrb/ANOU9e3V4jbf8nrah/2T62/9OU9AHt1FFFABRRRQAUUUUAFFFFABRRRQAUUUUAFFFFABRRRQAUUUUAFFFFABRRRQB4Z8Pf8Ak7b4w/8AYG0H+V1XudeGfD3/AJO2+MP/AGBtB/ldV7nQAlLRRQAlUNZ0Wy8RaZcadqVst3Y3ChZYJM7ZFznBHccdO/StCigBKWiigAooooAK8M+BH/Ja/j5/2HrH/wBN8Ne514Z8CP8Aktfx8/7D1j/6b4aAPc6KKKACiiigAooooAKKKKACiiigAooooAKKKKACiiigAooooAKKKKACiiigAooooAKKKKACvDP2mP8AkZvgf/2Plr/6S3Ve514Z+0x/yM3wP/7Hy1/9JbqgD3OiiigAooooAKz5dFsZtbt9XktkbUre3ltYbg53JFIyM6D2Zooyf9wVoUUAFFFFABRRRQAV4f8AtOf8hP4Mf9lB0/8A9EXVe4V4f+05/wAhP4Mf9lB0/wD9EXVAHuFFFFABRRRQAUUUUAFFFFABRRRQAUUUUAFFFFABRRRQAUUUUAFFFFABRRRQB4j+xX/ybD4G/wCuNx/6VTV7dXiP7Ff/ACbD4G/643H/AKVTV7dQAUUUUAFFFFABRRRQAlLRRQBzHxQ/5Jr4t/7BF3/6JeuY/Zi/5Ny+GH/Yt6f/AOk6V0/xQ/5Jr4t/7BF3/wCiXrmP2Yv+Tcvhh/2Len/+k6UAenUUUUAFFFFABRRRQAUUUUAFFFFABRRRQAUUUUAFFFFABRRRQAUUUUAFFFFABRRRQAUUUUAFFFFABRRRQAUUUUAeEeNZVtP2xfhkZWEYuvDesQQluPMkV7Z2Ue4UE/QV7vXEfFD4OeEvjFptpZ+KtLN+tlL59pcQzyQT20mMFo5I2VlJ46HBwM1wf/DHfgn/AKDHjP8A8Kq+/wDjtAHudFeGf8Md+CP+gx40/wDCqvv/AI5R/wAMd+CP+gx40/8ACqvv/jlAHudFeGf8Md+CP+gx40/8Kq+/+OVzvxE/ZY8JeGfAHibWbLWPGH2zTtMuruHzPFN8V8yOJmXI83kZA4oA+laK+XfhB+zH4V8bfCfwb4i1LV/F39oato1nfXPk+KL9U8yWBHbaPNOBljiuv/4Y88Ef9Bfxp/4VV9/8coA9zorwz/hjzwR/0F/Gn/hVX3/xyj/hjzwR/wBBfxp/4VV9/wDHKAPc68O0+RLj9tXWDEyyC38BWsU2058t2v52VW9CV5we3NN/4Y88Ef8AQX8af+FVff8Axyu2+FvwT8H/AAci1EeF9La1udTkWW/vrm5lubm6Zc7TJLKzMcbmwM4GTxzQB3tFFFABRRRQAUUUUAFFFFABRRRQAUUUUAFFFFABRRRQAUUUUAFFFFABRRRQB4V4DP2b9rz4rxSkRyXOg6JPCjEZkjU3SMwHcBiAfQkV7rXm/wATP2fvBPxa1ay1fXtOuE1uyi8i31bTb2ayuo48k7PMidSVyzHa2QCT61yn/DHfgj/oMeNP/Cqvv/jlAHudFeGf8Md+CP8AoMeNP/Cqvv8A45R/wx34I/6DHjT/AMKq+/8AjlAHudFeGf8ADHfgj/oMeNP/AAqr7/45XmP7SX7Pvh74V/BfxB4o0TWPFn9p2LWoi+0+J754/wB5cxRtlfNH8Lt39KAPsGivDP8AhjvwR/0F/Gn/AIVV/wD/AB2j/hjzwR/0F/Gn/hVX3/xygD3OivDP+GPPBH/QX8af+FVff/HKP+GPPBH/AEF/Gn/hVX3/AMcoA9zrwr4AsLr4v/Hq7hIktm8SWsAlXlTJHYQLIufVSQCKVv2O/A7KQ2q+MnQ9VbxVfkH2P72vSvhz8M/DXwl8NpoPhTS49J0tZWnaNXeRpJGxukd3JZ2OB8zEngDoKAOqooooAKKKKACiiigAooooAKKKKACiiigAooooAKKKKACiiigAooooAKKKKACiiigAooooAK8F/akvIbDXPgjPcSrDAPiBZRmRzgbntrlVH1JIH4171XO+PPAPh/4m+GLvw94n0yLVdHutpkt5Sy/MGBVlZSGVgcEMpBFAHRUV4Sv7HPgWJVSLVPGMUajCxx+Kb4KoHQAeZ0A4p/8Awx34I/6DHjT/AMKq+/8AjlAHudFeGf8ADHfgj/oMeNP/AAqr7/45R/wx34I/6DHjT/wqr7/45QB7nRXhn/DHfgj/AKDHjT/wqr7/AOOV5d8bfgD4f8Aal8NYNL1jxYU8QeLLXRrzz/E1+x+zyRTO2z96MNmNee3NAH2JRXhn/DHfgn/oMeM//Cqvv/jtH/DHngj/AKC/jT/wqr7/AOOUAe50V4Z/wx54I/6C/jT/AMKq+/8AjlH/AAx54I/6C/jT/wAKq+/+OUAe514Z+0xIsmv/AAVtVZTcv49s5VhyNxRLe5LsB1IUEZx0yKP+GPPBH/QX8af+FVff/HK2vAv7MPgHwD4rt/E9nY3+peIrVGjttS1rU7i+lt1YFWEfmuwTIJBIGcE84NAHrNFFFABRRRQAUUUUAFFFFABRRRQAUUUUAFFFFABRRRQAUUUUAFFFFABRRRQB4X+xLdRXP7MfgwRSLI0K3UUgU52ut1MGU+hBr3SvFta/ZG+Hera9qOr21trGgXmpTNc3g0LWrqyinlY5LtHHIFDEk9AOSc1V/wCGO/BH/QY8af8AhVX3/wAcoA9zorwz/hjvwR/0GPGn/hVX3/xyj/hjvwR/0GPGn/hVX3/xygD3OivDP+GO/BH/AEGPGn/hVX3/AMcryvxR8A9A0j9ofwP4Lg1fxZ/Y2saTqF7c7vE9+ZfMgMQTa3m8D5znigD7Horwz/hjzwR/0F/Gn/hVX3/xyj/hjzwR/wBBfxp/4VV9/wDHKAPc6K8M/wCGPPBH/QX8af8AhVX3/wAco/4Y88Ef9Bfxp/4VV9/8coA9E+L19Bpvwo8Z3d1KsFvDo15JJI3AVRA5JrB/ZjUr+zn8MMjB/wCEa04/nbRmuXb9jH4b3hRNVXxFr1orhzZat4ivbi3Zgcgshlw30PHtXt8MKW0KRRIscSKFVFGAqjgAe1AE1FFFABRRRQAUUUUAFFFFABRRRQAUUUUAFFFFABRRRQA0/SjPvQa831LUbtdRuQtzMFErAASEAYPGBXyHEXEVLh2jCtVg5cztodeHw7xEnFO1j0ncPUUbh6ivLv7Su/8An6m/7+H/ABo/tK7/AOfqb/v4f8a+B/4ifhf+geX3o9D+y5/zHqO4eoo3D1FeXf2ld/8AP1N/38P+NH9pXf8Az9Tf9/D/AI0f8RPwv/QPL70H9lz/AJj1HcPUUbh6ivLv7Su/+fqb/v4f8aP7Su/+fqb/AL+H/Gj/AIifhf8AoHl96D+y5/zHqO4eoo3D1FeXf2ld/wDP1N/38P8AjR/aV3/z9Tf9/D/jR/xE/C/9A8vvQf2XP+Y9R3D1FG4eory7+0rv/n6m/wC/h/xo/tK7/wCfqb/v4f8AGj/iJ+F/6B5feg/suf8AMeo7h6ijcPUV5d/aV3/z9Tf9/D/jR/aV3/z9Tf8Afw/40f8AET8L/wBA8vvQf2XP+Y9R3D1FG4eory7+0rv/AJ+pv+/h/wAaP7Su/wDn6m/7+H/Gj/iJ+F/6B5feg/suf8x6juHqKNw9RXl39pXf/P1N/wB/D/jR/aV3/wA/U3/fw/40f8RPwv8A0Dy+9B/Zc/5j1HcPUUbh6ivLv7Su/wDn6m/7+H/Gj+0rv/n6m/7+H/Gj/iJ+F/6B5feg/suf8x6juHqK434yMD8IPHP/AGAr7/0neuf/ALSu8f8AH1N/38Nct8VNRu2+F/jAG6mIOjXmR5h/54PWtHxKwtapGmqEtXbdCeWTir8x2v7OLAfs9/DLn/mWdN/9JY69F3D1r50+A+oXUfwT+H6rczKo8P2AA3nj/R04ruv7Su/+fqb/AL+GrxHiThsPWnRdCV4trddAjlk5JPmPUtw9RRuHqK8u/tK7/wCfqb/v4f8AGj+0rv8A5+pv+/h/xrn/AOIn4X/oHl96H/Zc/wCY9R3D1FG4eory7+0rv/n6m/7+H/Gj+0rv/n6m/wC/h/xo/wCIn4X/AKB5feg/suf8x6juHqKNw9RXl39pXf8Az9Tf9/D/AI0f2ld/8/U3/fw/40f8RPwv/QPL70H9lz/mPUdw9RRuHqK8u/tK7/5+pv8Av4f8aP7Su/8An6m/7+H/ABo/4ifhf+geX3oP7Ln/ADHqO4eoo3D1FeXf2ld/8/U3/fw/40f2ld/8/U3/AH8P+NH/ABE/C/8AQPL70H9lz/mPUdw9RRuHqK8u/tK7/wCfqb/v4f8AGj+0rv8A5+pv+/h/xo/4ifhf+geX3oP7Ln/Meo7h6ijcPUV5d/aV3/z9Tf8Afw/40f2ld/8AP1N/38P+NH/ET8L/ANA8vvQf2XP+Y9R3D1FG4eory7+0rv8A5+pv+/h/xo/tK7/5+pv+/h/xo/4ifhf+geX3oP7Ln/Meo7h6ijcPUV5d/aV3/wA/U3/fw/40f2ld/wDP1N/38P8AjR/xE/C/9A8vvQf2XP8AmPUdw9RRuHqK8u/tK7/5+pv+/h/xo/tK7/5+pv8Av4f8aP8AiJ+F/wCgeX3oP7Ln/Meo7h6ijcPUV5d/aV3/AM/U3/fw/wCNH9pXf/P1N/38P+NH/ET8L/0Dy+9B/Zc/5j1HcPUUbh6ivLv7Su/+fqb/AL+H/Gj+0rv/AJ+pv+/h/wAaP+In4X/oHl96D+y5/wAx6juHqKNw9RXl39pXf/P1N/38P+NH9pXf/P1N/wB/D/jR/wARPwv/AEDy+9B/Zc/5j1HcPUUbh6ivLv7Su/8An6m/7+H/ABo/tK7/AOfqb/v4f8aP+In4X/oHl96D+y5/zHqO4eoo3D1FeXf2ld/8/U3/AH8P+NH9pXf/AD9Tf9/D/jR/xE/C/wDQPL70H9lz/mPUNw9a8N/bbI/4Zk8Y/wC9Y/8Apdb10J1K8/5+pv8Av4a8e/a6vrmT9nvxWr3ErqWs8qzkj/j8g/rXXhfEfC4qvChGhJOTS3RMstnGLlzH1nuHrRuHqK8tbUrzn/S5/wDv4aP7Su/+fqb/AL+H/GueXibhYycfq8tPNFf2XP8AmPUtw9RRuHqK8u/tK7/5+pv+/h/xo/tK7/5+pv8Av4f8aj/iJ+F/6B5feg/suf8AMeo7h6ijcPUV5d/aV3/z9Tf9/D/jR/aV3/z9Tf8Afw/40f8AET8L/wBA8vvQf2XP+Y9R3D1FG4eory7+0rv/AJ+pv+/h/wAaP7Su/wDn6m/7+H/Gj/iJ+F/6B5feg/suf8x6juHqKNw9RXl39pXf/P1N/wB/D/jR/aV3/wA/U3/fw/40f8RPwv8A0Dy+9B/Zc/5j1HcPUUbh6ivLv7Su/wDn6m/7+H/Gj+0rv/n6m/7+H/Gj/iJ+F/6B5feg/suf8x6juHqKNw9RXl39pXf/AD9Tf9/D/jR/aV3/AM/U3/fw/wCNH/ET8L/0Dy+9B/Zc/wCY9R3D1FG4eory7+0rv/n6m/7+H/Gj+0rv/n6m/wC/h/xo/wCIn4X/AKB5feg/suf8x6juHqKNw9RXl39pXf8Az9Tf9/D/AI0f2ld/8/U3/fw/40f8RPwv/QPL70H9lz/mPUdw9RRuHqK8u/tK7/5+pv8Av4f8aP7Su/8An6m/7+H/ABo/4ifhf+geX3oP7Ln/ADHqO4eoo3D1FeXf2ld/8/U3/fw/40f2ld/8/U3/AH8P+NH/ABE/C/8AQPL70H9lz/mPUdw9RRuHqK8u/tK7/wCfqb/v4f8AGj+0rv8A5+pv+/h/xo/4ifhf+geX3oP7Ln/Meo7h6ijcPUV5d/aV3/z9Tf8Afw/40f2ld/8AP1N/38P+NH/ET8L/ANA8vvQf2XP+Y9R3D1FG4eory7+0rv8A5+pv+/h/xo/tK7/5+pv+/h/xo/4ifhf+geX3oP7Ln/Meo7h6ijcPUV5d/aV3/wA/U3/fw/40f2ld/wDP1N/38P8AjR/xE/C/9A8vvQf2XP8AmPUdw9RRuHqK8u/tK7/5+pv+/h/xo/tK7/5+pv8Av4f8aP8AiJ+F/wCgeX3oP7Ln/Meo7h6ijcPUV5d/aV3/AM/U3/fw/wCNIdSu/wDn6m/7+Gj/AIifhf8AoHl96D+y5/zHqG73pdwPcV8t3X7S1rFrOr6bY6B45119Lu3sLm50bQ7i7gWZMFkDpkZG5T+Ipv8Aw0jJ/wBCP8Tv/CXvP8K+lhxVjakVOGXzaZzPCQTs6iPqfcPWjcPWvlj/AIaSk/6Ef4nf+Evef4Uf8NJS/wDQj/E7/wAJa8/wrT/WfHf9C6oH1WH/AD9R9TbvpXhH7Uh/4nXwQ/7KFYf+k9zXIf8ADSUv/Qj/ABO/8Ja8/wAK86+L/wAWNV8bah8P5rDwH8R3TQ/E1tq1z53hm7G2GOOVWK/Ly2XHH1rfD8RY2tNQlgJx82RLDQSv7RH3ZuHrRuHrXyx/w0lL/wBCP8Tv/CWvP8KP+Gkpf+hH+J3/AIS15/hWP+s2O/6F1Qr6rD/n6j6n3D1o3D1r5Y/4aRl/6Ej4nf8AhL3n+FH/AA0lL/0I/wATv/CWvP8ACl/rPjv+hdUH9Vh/z9R9Tbh60bh618s/8NJS/wDQj/E7/wAJe8/wrr/h78UIPiV4cTWtJn1GK1M0tu0V8jwzJJG5R1ZCcghgRg9xXBjONa2X01VxWBnGO13YqGBVR2hUTPeNw9RRuHqK8u/tK7/5+pv+/h/xo/tK7/5+pv8Av4f8a8X/AIifhf8AoHl96N/7Ln/Meo7h6ijcPUV5d/aV3/z9Tf8Afw/40f2ld/8AP1N/38P+NH/ET8L/ANA8vvQf2XP+Y9R3D1FG4eory7+0rv8A5+pv+/h/xo/tK7/5+pv+/h/xo/4ifhf+geX3oP7Ln/Meo7h6ijcPUV5d/aV3/wA/U3/fw/40f2ld/wDP1N/38P8AjR/xE/C/9A8vvQf2XP8AmPUdw9RRuHqK8u/tK7/5+pv+/h/xo/tK7/5+pv8Av4f8aP8AiJ+F/wCgeX3oP7Ln/Meo7h6ijcPUV5d/aV3/AM/U3/fw/wCNH9pXf/P1N/38P+NH/ET8L/0Dy+9B/Zc/5j1HcPUUbh6ivLv7Su/+fqb/AL+H/Gj+0rv/AJ+pv+/h/wAaP+In4X/oHl96D+y5/wAx6juHqKNw9RXl39pXf/P1N/38P+NH9pXf/P1N/wB/D/jR/wARPwv/AEDy+9B/Zc/5j1HcPUUbh6ivLv7Su/8An6m/7+H/ABo/tK7/AOfqb/v4f8aP+In4X/oHl96D+y5/zHqO4eoo3D1FeXf2ld/8/U3/AH8P+NH9pXf/AD9Tf9/D/jR/xE/C/wDQPL70H9lz/mPUdw9RRuHqK8u/tK7/AOfqb/v4f8aP7Su/+fqb/v4f8aP+In4X/oHl96D+y5/zHqO4eoo3D1FeXf2ld/8AP1N/38P+NH9pXf8Az9Tf9/D/AI0f8RPwv/QPL70H9lz/AJj1HcPUUbh6ivLv7Su/+fqb/v4f8aP7Su/+fqb/AL+H/Gj/AIifhf8AoHl96D+y5/zHqG4eteCePD/xmV8Kuf8AmXtZ/nBXVf2ld/8AP1N/38P+NeMeM765b9qr4cObiUuuh6qA285GTDx1rtwviLhsVKUVQkrRct10VyJZbOKTcj653D1FG4eory7+0rv/AJ+pv+/h/wAaP7Su/wDn6m/7+H/GuL/iJ+F/6B5fei/7Ln/Meo7h6ijcPUV5d/aV3/z9Tf8Afw/40f2ld/8AP1N/38P+NH/ET8L/ANA8vvQf2XP+Y9R3D1FG4eory7+0rv8A5+pv+/h/xo/tK7/5+pv+/h/xo/4ifhf+geX3oP7Ln/Meo7h6ijcPUV5d/aV3/wA/U3/fw/40f2ld/wDP1N/38P8AjR/xE/C/9A8vvQf2XP8AmPUdw9RRuHqK8u/tK7/5+pv+/h/xo/tK7/5+pv8Av4f8aP8AiJ+F/wCgeX3oP7Ln/Meo7h6ijcPUV5d/aV3/AM/U3/fw/wCNH9pXf/P1N/38P+NH/ET8L/0Dy+9B/Zc/5j1HcPUUbh6ivLv7Su/+fqb/AL+H/Gj+0rv/AJ+pv+/h/wAaP+In4X/oHl96D+y5/wAx6huHt+dG4eo/OvL/AO0rv/n6m/7+H/Gk/tK8/wCfqf8A7+GmvE7Ct2+ry+9B/Zc/5j1HginVS0tmbTrZmJZjGpJPfgVcJr9lo1FWpxqL7STPFas7C0UUVuIKKKKAGn7p+leYap/yErv/AK7P/M16efun6V5hqn/ISu/+uz/zNfi/id/uVD/F+h7eV/xJehVooor+cj6UKKKKACiiigAooooAKKKKACiiigAooooAKKKKACiiigArl/ip/wAkx8X/APYHvP8A0Q9dRXL/ABU/5Jj4v/7A95/6IeuzBf71S/xL8zOfwszvgV/yRXwB/wBgCw/9J0rua4b4Ff8AJFfAP/YAsP8A0nSu5rbMv99rf4n+YU/gQUUUV5poFFFFABRRRQAUUUUAFFFFABRRRQAUUUUAFFFFABRRRQAUUUUAFFFFABRRRQAUUUUAFFFFABRRRQAV4/8Atbf8m/eKf96z/wDSyGvYK8f/AGtv+TfvFP8AvWf/AKWQ16+T/wDIwo/4kY1v4cvQ9fbvS0jd6WvNrfxJerNVsgooorIYUUUUAFFFFABRRRQAUUUUAFFFFABRRRQAUUUUAFFFFABRRRQAUUUUAFFFFABRRRQAUUUUAFFFFABRRRTjugOe/ZG/48/it/2Puof+iLavex3rwP8AZH/48/iv/wBj5qP/AKIta93uZDBbTSAZKKWA+gr+38q/3Gh/hX5I+ErfxJepNRXg7fHHxYzvPa6HpklhZzwNqN3etc29tDDLZWTqnmxxykSefeliSm1YYXLbfvVq/ED42av4E1S4tZtBsp0tdM+1zsl+5In+xX9z5a/uhuQGwK7jgnzAdoxivVMj2OivL/DPxURY9bu/EGvabLb2csMAtrDSLyCWCV9oWJjIxM0shliCRpGrfOvDbhV1/jZoEmqeHbSzj1K9OsX8mnEppl0rWkqRPIVmQxbo2+VflcKQrbz8oJoA9DorB8C+JW8Z+B/D3iA2wtDq2nW9+bcPvEXmxq+zdgZxuxnA6dKxdI+NHgzXIRcW2uRrZm1kvUvbmCW3tpIYxmV0mkRUfyx98KxKYO4DBoA7iiuG/wCFzeEU026vp9Rns4rV4I5I7zT7mCfM7lICsLxiRhI4KoyqQxUgEkGpvCPxO07xrr+raXZWWq28mnCJmkv9LubVXDxo4GZY12sN4+Q/NwTjAoA7L1r5N/Zrx/wgmsf9jLrH/pdLX1l3NfJv7Nf/ACIusf8AYy6x/wCl0tflHiR/yKI/41+TPWyz+M/Q9Yooor+YT6oKKKKACiiigAooooAKKKKACiiigAooooAKKKKACiiigAooooAKKKKACiiigAooooAK8Z8Zf8nTfDn/ALAmqfzhr2avGfGX/J03w5/7Amqfzhr3cn/i1P8Ar3P/ANJZz1tl6r8z2aiiivCOgKKKKACiiigAooooAKKKKACiiigAooooAKQ96WkPeqj8SA9P0f8A5Bdp/wBc1/kKuDvVLR/+QXaf9c1/kKujvX9yYH/daX+FfkfBVPiYtFFFd5AUUUUANP3T9K8w1T/kJXf/AF2f+Zr08/dP0rzDVP8AkJXf/XZ/5mvxfxO/3Kh/i/Q9vK/4kvQq0UUV/OR9KFFFFABRRRQAUUUUAFFFFABRRRQAUUUUAFFFFABRRRQAVy/xU/5Jj4v/AOwPef8Aoh66iuX+Kn/JMfF//YHvP/RD12YL/eqX+JfmZz+Fmd8Cv+SK+Af+wBYf+k6V3NcN8Cv+SK+Af+wBYf8ApOldzW2Z/wC+1v8AE/zCn8CCiiivNNAooooAKKKKACiiigAooooAKKKKACiiigAooooAKKKKACiiigAooooAKKKKACiiigAooooAKKKKACvH/wBrb/k37xT/AL1n/wClkNewV4/+1t/yb94p/wB6z/8ASyGvXyf/AJGFH/EjGt/Dl6Hr7d6WkbvS15tb+JL1ZqtkFFFFZDCiiigAooooAKKKKACiiigAooooAKKKKACiiigAooooAKKKKACiiigAooooAKKKKACiiigAooooAKKKKcd0Bzv7I/8Ax5/Fb/sfNR/9EW1e5373UdjcNZQxXF4sbGGG4lMUbvj5VZwrFVJxkhWwOx6V4Z+yOf8AQ/it/wBj7qH/AKItq99r+3sq/wBwof4V+R8JW/iS9T5UHwH+L66Glp/wkKf2h5Hly36+ONXBkl+wtb+aU8nGfPKXGM/wBOnI9K8efBK7+Il0mo3moGwu7yC2tb7T4JhJbRxqlzFOUcxCSR2hu541zsXLBipxivYaK9YyPNtT+GF9q0niiQahDYXF54js9e06fyjOqG3trOMLLHlchntpAQrD5WBDA9LjeCfEV9ceHr/UfEdrc6lpmrPqL7dM2wGFoJIDbxqJdykLIWEjs53Z4Iwo7yloA8z8P3mv/DnQtF8J2fgvWPEdpo9ha2C6zbXFjBFceXCimQRyXIdRkHII7cZ6nj9I+AWreLvhj4Z8PeL9YEFrY6FNYi0tbRUubea4s2tn3zeYyOI45ZFACDJ2kk4O73yigDzOT4W6rrmsR6t4g12zvL+GSw8r7DprQQrHbXHnsCrTOS0jY+bdhQowDyW6nSvDM+leLtb1VL2OSy1RYZHtGgIkjmRBHuEm/Gwoq/KUyDk7sHA6OigBPWvk39mv/kRdY/7GXWP/AEtlr6y7mvkz9mk/8ULrH/Yyax/6XS1+UeI//Ioj/jX5M9bLP4z9D1miiiv5hPqgooooAKKKKACiiigAooooAKKKKACiiigAooooAKKKKACiiigAooooAKKKKACiiigArxnxl/ydN8Of+wJqn84a9mrxnxl/ydN8Of8AsCap/OGvdyf+LU/69z/9JZz1tl6r8z2aiiivCOgKKKKACiiigAooooAKKKKACiiigAooooAKQ96WkPeqj8SA9O0f/kF2n/XNf5Cro71S0f8A5Bdp/wBc1/kKujvX9yYH/daX+FfkfBVPiYtFFFd5AUUUUANP3T9K8w1T/kJXf/XZ/wCZr08/dP0rzDVP+Qld/wDXZ/5mvxfxO/3Kh/i/Q9vK/wCJL0KtFFFfzkfShRRRQAUUUUAFFFFABRRRQAUUUUAFFFFABRRRQAUUUUAFcv8AFT/kmPi//sD3n/oh66iuX+Kn/JMfF/8A2B7z/wBEPXZgv96pf4l+ZnP4WZ3wK/5Ir4B/7AFh/wCk6V3NcN8Cv+SK+Af+wBYf+k6V3NbZn/vtb/E/zCn8CCiiivNNAooooAKKKKACiiigAooooAKKKKACiiigAooooAKKKKACiiigAooooAKKKKACiiigAooooAKKKKACvH/2tv8Ak37xT/vWf/pZDXsFeP8A7W3/ACb94p/3rP8A9LIa9fJ/+RhR/wASMa38OXoevt3paRu9LXm1v4kvVmq2QUUUVkMKKKKACiiigAooooAKKKKACiiigAooooAKKKKACiiigAooooAKKKKACiiigAooooAKKKKACiiigAoozSbqAPMtX/Zt+H+uazf6rd6Pdfbb+drm5e31a8gWSVsbnKpMFycDoO1Vf+GWvhv/ANAjUP8Awe3/AP8AH69X3Ubq92GfZnCKjHETSX95mDw9Nu7ijyj/AIZa+G//AECNQ/8AB7f/APx+j/hlr4b/APQI1D/we3//AMfr1fdRuq/9YM1/6CZ/+BMX1el/Kjyj/hlr4b/9AjUP/B7f/wDx+vNvjJ8CvB3hPUfh5HpVnqFtHq3ii1029U6zev5tu8cpZPmmOMlF5XB4619QbvavHf2hj/xNvhL/ANjtZf8AomevYyjPMzq4uMKmIk1aXV/ysxrUKShdRRb/AOGW/hx/0CNQ/wDB7qH/AMfo/wCGW/hx/wBAjUP/AAe6h/8AH69X3Ubq8h8QZrf/AHmf/gTNvq9L+VHlH/DLfw4/6BGof+D3UP8A4/R/wy38OP8AoEah/wCD3UP/AI/Xq+6jdS/1gzX/AKCZ/wDgTH9Xpfyo8o/4Zb+HH/QJ1D/we6h/8fruvBfgjRfh7oUejaDaGy05JJJRE00kzF3Ys7F5GLEliScnvW7kUm72rjxOa47GwVPEVpSXZtsqNGEHeKsOopN1LmvLNQooooAKKKKACiiigAooooAKKKKACiiigAooooAKKKKACiiigAooooAKKKKACiiigArxnxl/ydN8Of8AsCap/OGvZq8Z8Zf8nTfDn/sCap/OGvdyf+LU/wCvc/8A0lnPW2XqvzPZqKKK8I6AooooAKKKKACiiigAooooAKKKKACiiigApD3paQ96qPxID07R/wDkF2n/AFzX+Qq6O9UtH/5Bdp/1zX+Qq6O9f3Jgf91pf4V+R8FU+Ji0UUV3kBRRRQA0/dP0rzDVP+Qld/8AXZ/5mvTz90/SvMNU/wCQld/9dn/ma/F/E7/cqH+L9D28r/iS9CrRRRX85H0oUUUUAFFFFABRRRQAUUUUAFFFFABRRRQAUUUUAFFFFABXL/FT/kmPi/8A7A95/wCiHrqK5f4qf8kx8X/9ge8/9EPXZgv96pf4l+ZnP4WZ3wK/5Ir4B/7AFh/6TpXc1w3wK/5Ir4B/7AFh/wCk6V3NbZn/AL7W/wAT/MKfwIKKKK800CiiigAooooAKKKKACiiigAooooAKKKKACiiigAooooAKKKKACiiigAooooAKKKQ9etAHAeL/j14E8B67Louua6LPU4o0le3W0nmKq4O0kohHOD3rH/4ao+F/wD0Mzf+C67/APjVdH8C/wDk5r4uf9gnQ/5XVfR1f0DlHAGXY7A0cVUnJOaT6dfkfO1swqU6jgktD5N/4ao+F3/Qyt/4Lrv/AONUf8NUfC7/AKGVv/Bdd/8AxqvrKj8K9b/iGuV/8/J/ev8AIy/tSr2R8nH9qj4X/wDQzN/4Lbv/AONV5r+0Z8f/AAH40+DfiDRtF1uS/wBTuWtTDbrp90pfbcxO2C0QHCqx5PavvuiunDeHeW4atGtCpK8WnuunyIlmVSUXFpHycf2qPhe2f+Kmb/wW3f8A8Zpf+Gp/hf8A9DK3/gtu/wD41X1h+FH4VhLw2yyUnJ1J6+a/yK/tSr2R8nf8NT/C/wD6GVv/AAW3f/xqj/hqb4X/APQyt/4Lrv8A+NV9Y/hR+FT/AMQ1yv8A5+T+9f5D/tSr2R8n/wDDVHwvx/yMrf8Agtu//jVdd4D+J3hj4mW15P4a1RdTjs5Fin/cyxGNiAwBDqD0I7d6+gq+WfAfHx2+OX/Ybsv/AEggr5XibgnA5Nls8XQnJyVt7dXY6sLjp16qhJHptFIPrmlr8SPdCiiigAooooAKKKKACijNGaACijNGaACijNGaACijNGaACijNGaACijNFABRRRQAUUUUAFBoooA811b41R2fi7WfDum+CvF/ie80doVvJtC06O4hjaWJZUBPmg5KsOo7Gm/8AC4tV/wCiR/Er/wAEcf8A8erf/Z04+N/xx/6+9I/9IRX0P0r+ksp4FyjGYGjiKqlzSim9e6Pma2YVoVJRWyPln/hceqf9Ej+JX/gjj/8Aj1H/AAuPVP8AokfxK/8ABHH/APHq+nNQmuLfT7mW0gS6ukjZooJJPLWR8fKpbB2gnjODj0r5d1L9oXx1Pofga40iW1kv73SjczwW+hXOqxXt4ilGhaeBkVB8xlZY0LRGBlOchT63/EPMk/ll95l/aVcm/wCFx6p/0SP4lf8Agjj/APj1H/C49U/6JH8Sv/BHH/8AHq3fiL+0Frvg680Qx2zXMS3FsJra202Vbi+aXSdRuBAIG3PGzT20GF+8uSGY810Ph34r67N8N9Z1DVbjSIrnQ7e1jk1vT2uNUhuJmtobh5ZIIbeNkjaOZGJXO0OTwFGT/iHmSfyy+8P7SrnA/wDC4tU/6JH8Sv8AwRx//Hq8/wDit4o8TeNr7wLLp/wm+IUaaJ4jt9WuftGjKpMMccqsExKctlxwcd+a9nsvit46n+Lt/oE/l2VhNcSQ6fDN4V1BlaGCWNHmMwIHztcBfMyYtsKudm/BqfEL40eLdFb4hWNrcW+lz6ZqtnZ2s9vYPq8trazwKDcNDH5ewqxMoMhYMVeMBiAK6cPwJlGFqKrTTvtv3ViJZhWkrMw/+Fx6r/0SP4l/+COP/wCPUf8AC4tV/wCiRfEr/wAEcf8A8eruvDPxa8R3XhHRL3X4n0zWL3Wvsflnw1e28PlblVY3V3Zkd1cFZAxXf8vzbWJ4f4Q/tNa/41+LzeHNR1LQLnT55NkVvp9ncC4BWNy20E/KAwG4ydMHFc//ABD3JP5ZfeV/aOIG/wDC49U/6JH8Sv8AwRx//HqP+Fx6p/0SP4lf+COP/wCPVs+Ofj54qsb7TobSPw5oX2iPUYlkvNWd0S4tvKYidWtQyKo3Ar8u4SDDAlCfavD+v6tqWj+H7m90N7e41BN90kUmFshsZ1LiURyckKu0JuUtyAATS/4h5kn8svvH/aVc+fP+Fx6p/wBEj+JX/gjj/wDj1H/C49U/6JH8Sv8AwRx//Hq+psijIo/4h7knaX3h/aVc+WH+M2pxqWb4SfEkKoyS2iRgcdcnzuldT8O/HWnfEzwbpfijSFnXTdRjMkS3SBJQAzKQwBIyCp6GvdNT/wCQbd/9cX/9BNfJX7Hv/Jt3gj/r2l/9KJa/PuNOF8vyPBQr4RO7lbV36Ho4LF1MRUcZ9j2Wiiivxg9oKKKKACiiigAooooAKKKKACiiigAooooAKKKKACiiigAooooAKKKKACiiigArxnxl/wAnTfDn/sCap/OGvZq8Z8Zf8nTfDn/sCap/OGvdyf8Ai1P+vc//AElnPW2XqvzPZqKKK8I6AooooAKKKKACiiigAooooAKKKKACiiigApD3paQ96qPxID07R/8AkF2n/XNf5Cro71S0f/kF2n/XNf5Cro71/cmB/wB1pf4V+R8FU+Ji0UUV3kBRRRQA0/dP0rzDVP8AkJXf/XZ/5mvTz90/SvMNU/5CV3/12f8Ama/F/E7/AHKh/i/Q9vK/4kvQq0UUV/OR9KFFFFABRRRQAUUUUAFFFFABRRRQAUUUUAFFFFABRRRQAVy/xU/5Jj4v/wCwPef+iHrqK5f4qf8AJMfF/wD2B7z/ANEPXZgv96pf4l+ZnP4WZ3wK/wCSK+Af+wBYf+k6V3NcN8Cv+SK+Af8AsAWH/pOldzW2Z/77W/xP8wp/AgooorzTQKKKKACiiigAooooAKKKKACiiigAooooAKKKKACiiigAooooAKKKKACiiigApKWm96BnHfAv/k5v4u/9gnQ/5XVeq/FfxNdeGdAsZrYX8JudTsrL7dYrA4tnmuI4Y2lSVhviZ5FVgnzbWOCpww8q+Bf/ACc58Xf+wTof8rqvafH3gi0+IfhmTRL26vLK3e5tbrz7CXyplaC4jnTa+Dty0SgkYOCcEHBr+0OG/wDkUYb/AAL8j4fE/wAaXqfNXg34w+Nrv49CwvZvFzaDeXqaTDBc6dZJb+dBLdmdDKD5eFVRlo2Lv5TDHyrW78WPi54k0fVNJsbzxBB4bP8AaV7Z3KW2lXLXMca2kpS42JK/mxktCysgYbnUMAUdV7vT/wBnLStJ8Z6F4htbzy7iw1jUNYuSyTPJdPcNOUQEzFEVBcNk7CXKqcpznV/4UrbyeKrbUbq/XVNPAlkvINStvPur6aSKWH95MW2iBYpmUQLEFBJIPzEH6U5jlPFnjXxvoNn4DN5cXVle3FvNLq6W62Ea5KBIlkjkeRkxLJGXkiZkQK+fvKRyP7O3j/4j+MPHWs2l/rEV1o6Q6id1/dWF00Nys0AgKx2xWQoAZc4IQ5GCDivWda+BlhrUugF9e1eOPQ1uksgzRTuFuBseN3ljdnQRZjCsc4IJJdVZc7wR8H7LwJrmqrpuuWNpczRvPKtnZIl3As7Ntky7uoUtG+Mx4JRh2NAGJaeK/GjSL4iHijTymoaovhdNFk8OS7Y7iG+uIHnVft/GQHdjk5jiQ4z17u5+Jlxa69c6TbeHtT186bPaWeqahpscaxQTTKjcRtL5jKiSRyPtDbVcYLEMBiab8HbLUr6z8Rad4+1668y6bV4Z7Y6dJBLNLbLB56/6KV5h4BXj52PViTu3XwjsrzWk1F9a1pDLJbT6hbwXCRRalNAEEcs4WMEN+7TcIyisECsCvFAHL6F8VPEfiKz0qS60OfS3udd1fTGtoJIWluI7YXoRYyZCqybrdASzAFgcYU15Jrnxw8Q2PjPQi3iu+j00xGyeFpdHguFuMTeYbiF7gAMot4/m4RjO5XaNin6Lh+GNpYM0tlqN5DPHqF3qtmJiskVrcXCTCQqu0FkLTySbWbq2AQuBXL/8KMu9Nh0y30vxFDLDp91JexSa5pSXk/nOJA7F43iBB86Q7WU4LccAAAHo3hm8/tLw7pl19q+3edaxyfacxnzcqDu/dkpz1+UkehIr5u8B/wDJdvjl/wBhuy/9IIK+mtKtprPTbSC4linuIolSSSCHyUZgMEqm47RnoMnHrXxjcfFC0+HHx4+MQutE17WPtmt2xX+xdPN0I9lhb534I253DHrg18DxvRqYjJqlOkrttfmehgJKNdNnv4+lLXjP/DUGi9/BvjofXw/J/RqP+GotC7+EfHA/7l+X/Gv5l/sTMP8An2/wPqvbU+57NRXjH/DU3h4dfC3jYf8AcvTUf8NU+Gv4vDfjMfXw9P8A4Uv7EzD/AJ9MXtqfc9norxj/AIas8Ld9B8YKPfw9cf4Uh/au8Id9I8WD6+Hrn/4mj+xMx/58sPbU+57VFDJO22JGkb0UZqX+y7v/AJ9pv+/Zrgfhf+0l4P1zV9Tcx61ptvp2mz6jdXOpaRPBFHDFgucleSAchQMnBxXpzfGfTIIhFdaLrlprElwlra6LPZhbq7d0kkTyvmMZBSGViS42iNt22v0rIOAY5pg/b4qo6crtWsjzMRmDoz5YK6M/+zbv/n1m/wC/bUf2bd/8+s3/AH7b/CrV98dNCtbW3kg03WtQuJLe5uZbK0sS09slvKsVwJFJGDG7AFQSW6pv4yv/AAvbw02sC0ij1C4sxe2envq0Nrus45ruKGS1UvnJEn2iJQQCAXG7aCCfo/8AiGGE/wCgiX3I5f7Vn/KVP7Nu/wDn1m/79tR/Zt3/AM+s3/ftquWfx28LXVvcXkj3lppYtpby01Ga2PkX8MZUO0BUlmOWXapAZ9wKBhk1Q8QfHX+xYNOKeD/ED3lxqkGnTWNxBHFLCsp+SUfOVcNg7QrdVYEqRij/AIhhhP8AoIl9yD+1Z/yj/wCzbv8A59Zv+/bUf2bd/wDPrN/37b/Cui8fePpPA914ehj0O/1r+1r42Z+whCYcRPJkhiMk7OnHG454wYNO+LOi6l4it9LSC+ihu7qawstUmtwtpeXMQkMsMb5yWURS8lQreW20tij/AIhhhP8AoIl9yD+1Z/ymJ/Zt3/z6zf8AftqP7Nu/+fWb/v21b/i/4oaX4Q1N7CSy1LU7m3tVv71NLtTObO1LOomkAIOCY5MKgZz5bYU4Nc43xkvbvxLrOkQaBcWS6X4js9Fa8vArRXCSxwyM67WyrYmyAcjbtPU7Qf8AEMMJ/wBBEvuQf2rP+VEn9m3f/PrN/wB+2/wo/s27/wCfWb/v21dr4w8XWHgfSV1HUEuJIZLiC0jjtYTLI8ssixxqqjqS7KPxrml+NWjSxeRDp2qz68t09lJ4ejt0N9HKkSTOGG8RhRFLE+/ftIkQAksAT/iGGE/6CJfcg/tWf8pn/wBmXf8Az6zf9+2/wqKa3lt2USxvGTyN4xWpD8atF1DUYrHSdN1jWrtrJb94bKyIMMZkniKyeYVCSLLbyRmNsMG7cMV828VftJeELXwv4O1rxTdN4Rudd01L+GwvEaRgrAchkUgrk8E4JBHA6V4GecAU8swMsTh6kpyVtLHTh8xdWoozVkdnRXkq/tWfCj/odLMfWGYf+yU//hqr4T/9DtY/jHKP/ZK/K/7Jx/8Az5l9zPW9tT/mR6vRXlP/AA1N8KD/AMzvp34iQf8AstOH7UXwp/6HjS/xL/8AxNH9k4//AJ8S+5h7Wn/Mj1Sk/GvGvFH7Vfw307w1q93pnjHSbzUoLSWW1tmdsSzKhKIeB1YAde9eS/Dz/gox4V1jyrfxdol3oFwQAbqzP2mDPc4wGUfQNXo4fhrNcTSlWp0XaP3/AHPcyliqMZcrkfSn7Ov/ACW/44/9fej/APpCK+hu1fMP7JPizSPHHxO+MuuaFex6lpd3c6S0NzGGAbFkAeoznIPUDkGvpLVmvl0u9bTI4JdRELm1junKRPLtOwOwBIUtjJAJAzwa/rHI4Sp5Zh4TVmor8j5Cu06srdyHxFpseteH9RsJbGz1KO5t5IjZ6gu62nypGyQbT8hzg8Hgng14B4k/ZLTxda+H7e8j8M2h03Q7XR7m5fSEvWvljjVWTDBGhXK4DxuJNvAZeCPC/FGoajpi+HZ7rTP7VuNf0pIb68vdHivIoJCb+7nvbc/2jEYS8kr5EqqMW7kMRERXvPxStR4k17wppF/B4i0S3t9F/tea78+8kiee3khSCBrWyufneOa4jmeRDx5UYEnUr7pgdF4k+BNzNrfg3xJ4ZGnaD4h0i4he4tjLO2lpEljdWwWK2QqhKNcgrkIdqkbl3Grek/BPU/DHgbxD4Q0rXoX0jWIyDPdWaC4tpJjtu2UxhVZWQkxqy/uzhctGFRPO/hr8RNQ0jTfE2qC6uNWmGpWuiaW1+mtQQ7pL+OykmlW8uZo8LNIpCowkKowO0sQvod/r3jlfEfg/TpNe8O+aviSTTtSbT7SVhcxf2bNcqHjM5Nu+B9wtJ/yykzglCAc/qH7O8l54si1u48J+AdUvEjmWa4msWh+1SSSRu07x7H/ebozj5z99/WpvFn7OQ8UQ69CNN8MWX9p+ITrEUz6elytriFI/NMDx7JZZGVmcNgZbOWIzXpnwnvLjUPh1odzdTSXNxJDl5ZnLO3zHkknk1wzfGHXrHwrdeNLpNFk8PTWt9PY6OXe3v1a3WRlDyMzLIWWMl1WNfK+blwpJAJPDfwFfw/8ADq08KWV9p+hta6zFqn9qaLpyRPdFZFlaRomyiSswK/xIAq4UDCLH4W+B+reH/Enga/k8RXN9Z6FHJJcWtxMrJ5zWzwBYUESkIPMY7mckBQMHdkQa38UvGnhvxRbeErgeH7/WbufTzHqEFvNFbxQ3TXSENCZWYtGbXcG8wCTcRiPbmjS/iR498Rapa+HbJfDtprkcOrfab64tp5LaSSzu4IYykQlDIsqTFiC7FDjl8cgGjH8E5tS8YS6hr89vrcFxp8kN1qbO0V7JM0kTRiJEULBHCYt0exywYhs78ue0h8J6gT4be88Q3t3NpE8sssqZhN+rRyRok6IQjBQ6sflwXjVgF6VP4R8SS+NvAGi6/aRpYT6xpcN9DHMDKsLSxK6hgCu4KWGcEZx1FeNfCfxV41msdK019X0+91zXrzW9Tl1LUYrmWGK3s72OAwRwG4+UsZV2lGVUVeUc5JAPoiivjDVNX17xPrnwJu7ea31Wea3ilv457CbVFicwXMiSMxuo0m4V5BtTzF8gPlv3cbev/APS4dOtPBV1E9y0+q+DrW9vXnupJfOnIhJkIdiAxLt0A60Aey6p/wAg67/64v8AyNfJf7Hv/Jtvgj/r2l/9KJa+tNU/5B13/wBcW/ka+S/2Pf8Ak23wR/17S/8ApRLX4/4mf8iyl/j/AEZ7OV/xZeh7JRRRX81H04UUUUAFFFFABRRRQAUUUUAFFFFABRRRQAUUUUAFFFFABRRRQAUUUUAFFFFABXjPjL/k6b4c/wDYE1T+cNezV4z4y/5Om+HP/YE1T+cNe7k/8Wp/17n/AOks562y9V+Z7NRRRXhHQFFFFABRRRQAUUUUAFFFFABRRRQAUUUUAFIe9LSHvVR+JAenaP8A8gu0/wCua/yFXapaP/yC7T/rmv8AIVdr+5cD/utL/CvyPgqnxMWiiiu4gKKKKAGn7p+leYap/wAhK7/67P8AzNenn7p+leYap/yErv8A67P/ADNfi/id/uVD/F+h7eV/xJehVooor+cj6UKKKKACiiigAooooAKKKKACiiigAooooAKKKKACiiigArl/ip/yTHxf/wBge8/9EPXUVy/xU/5Jj4v/AOwPef8Aoh67MF/vVL/EvzM5/CzO+BX/ACRXwD/2ALD/ANJ0rua4b4Ff8kV8A/8AYAsP/SdK7mtsz/32t/if5hT+BBRRRXmmgUUUUAFFFFABRRRQAUUUUAFFFFABRRRQAUUUUAFFFFABRRRQAUUUUAFFFFABSf4UtJ/hQBxnwL/5Oc+Lv/YJ0P8AldV9Hfw184/Av/k5z4u/9gnQ/wCV1X0d/DX9ocN/8ifDf4F+R8Riv40/UWiiivpTmCvk742eGbzUPHXxTlXw7qep2svh7SklifVWnV91xd7JY7WQvCiK0YJYqDHsdguJJDX1jXM6v8N/C/iCTUn1PQNP1A6n5X237TAri5EQYRrICMMq72wpyPmJ70AeV/sn2VpHoPiC/wBN0q0tNNv70SJf6etl9mvJF3K/kta/K0aHEYyMfI3U7ifeqydH8L6P4fuby40vS7PTprzZ9pe0gWIzFF2IW2gZIUBQT2AHYVrUAFFFFACdxXyz4D/5Lt8cv+w3Z/8ApBBX1N3FfLPgP/ku3xy/7Ddl/wCkEFfnnHumRVbd4/mj0sv/AI6PSwaWmrTq/lDnn3PrbBRmiijnn3CwUc+tFFHtJ9wsEmh2PirSdY0TU7iS1stSsZrOSaBwksYddu5GOQGGcgkHkDg9KmvPAialf2mq33jm9utasLuK7sLgiJYLcpDNCVEAG0iSO4lDnOSSpBXYu2Clr9GyPjbE5HhFhIUlJXbu2+p5mIwMa8+duxo6B4F0PQ55Lptcmvr6e3vIbm6naMNM1zKsskhCqACCiqoAwFAHPWszSPhL4Z0fwxLoceuTyW8mo6RqJkaSPdv09LJYl6Y2t9gj3f77Yxxh1FfRf8ROxn/PiP3s5/7Lh/Mc9o/7N/gTR7SazgvLaC0WzltLR7WytIbmDdIrpK1wI98skWxQpckEA7xITurrr7wZFrNuW1Txpd3mopf2t/b3A8pI7c25yiJDjbhsvuJ+Zt/UBUC0qKP+InYz/oHj97D+y4fzHXeKLXT/ABIumMusfYbnTr1L6CeIo2GCshBVgQVZHdT9cjBFc1pnw90jT9U0iRvEc1xo+j6jcarp2luIgkM8qyqQXA3MiCeXYpPG/kttXFaij/iJ2M/58R+9h/ZUP5jS8VeD7TXddv8AVtN8W3Xh291LTY9JvZrFoy7wRvK8TRswPlyoZ5sOP+eh4JCkMvvBelvq+sanBrRke+1K11kWUkkaxC6t4ool+faWCssMYP3sYJHXFUKKP+InYz/oHj97D+yofzEPjI+KvG2m2lhcxaLoixajY3gvdL1trmaPyrqN2ISW1jUjarHknOANpzU1v8M9Ns9cm8R2/imWPxVPfTXs2pFImjkEtvDbtB5RGBEEtrfGDu3RA7jlgxRR/wAROxn/AEDx+9h/ZcP5jY8C+D9B8B3l3d2uryXlzeWsUFzLcvHmaVbi7uZJyFVQHklvJmYKAo4CqoGKxD4XsPD3hnw9oSXS6zBpNmtlDc3CIXMaAKgbaAM7Qo4HOM9afSV4ec8dYrN8HLCSpKN7apvobUMBGjNTvcpnRbButhbH6wr/AIUw6DpbddOtD/2wT/Cr+RRkV+cfWK387+89XlXYzT4c0huul2R/7dk/wpreGNGPXSLA/wDbqn+FatFH1mt/O/vDlj2OX8SfDnQPEnh/U9Kk0yztkvrWW1M8NrGHjDoVLKcfeAP6CvPfh/8AsgfC/wCHflS2/h2PWL6P/l81hvtLE+uwjywR6ha9qpCK7qWbY6jTdGnVkovezM3Spyd2jj/2bbeKz+NHxthgiSCFLnR1WONdqqBYLgAAcCvov1r55/Z0/wCS3/HH/r70j/0hWvoY1/YORScsrw7bu+SP5HxmI/iy9TjtJ+EnhTQ0sUs9JSL7Hci7jcuzM0gt5LYFyT8wEUjrtbj5s4zzWrD4O0mzk05rW0Wz/s6xl020S1YxLBbyGIsihSAP9RFg9Rt4rdor3jnOe07wLoeneG5tAFgl5pM8s009tqBN0JnmlaaRn8wtu3SOzc+vHAp1p4D8N6fa29tb6DpsMFvd/b4UW0jwlzgjzxxxJgkb/vcnmt+vG/iJ8RNW0vxl4h0+38RaZ4WstA0O11hZNRtjMt+8styjI3O7y1+zouIgX3TD/ZVgDrdU+Hd/cXZbSfGuu+GdPChYtL0m204W0OAB8gltHfk5PLHknGBxWtb+A/DVrqN5fwaBpsd7eJLHcXC2iB5VlYNKGOOd7AFv7xAJzgV5Ms2qn4iX0GoeIW1aO28c2sUFoyKptUbSBIFAB4U7+nchm6sa9I+KN21j4bspVRZCdc0eLDFgMPqVshPBHIDE88ZAyCOKANDS/AHhjRVUaf4e0uz2ypMvk2cakSICsbAgcFVZlX0BwMCtG38P6ZZ332y3060hvP3n+kRwIsn7xleT5gM/MyKzepUE9K8M8OeMNT8W+MPhdqeo65Y3Emp3WoXB0WCIJJp7JazKYc5JYxk7JN/O8cbRwPYfAurWOt6C1zp2p3mr26315A1xfxGOVZY7mRJIipRPljdWjHy/dReW6kAy4fhze2OoW76f401zTNIt3QQaFaW2nJZRRJgLAo+yeYI9oC8PkDoRwa2LzwJ4b1Czt7S50DTJ7W3lkmhhe0jKRvIWMjKMYBcs27H3tzZzk1v0UAYjeD9HL6G0dhFbjRJWl0+O3Bijt2aF4TtRcLjy5HXBGBnPUCs3wb8KfCPw9kjfw54esdGkW1WyMlpEEeSJcFRI3WRgR95yW5PPJrraKAKmqf8AIOu/+uLfyNfJf7H3/Jt/gj/r2m/9KJa+tNU/5B13/wBcW/ka+S/2Pf8Ak23wR/17S/8ApRLX4/4mf8iyl/j/AEZ7OV/xX6HslFFFfzUfThRRRQAUUUUAFFFFABRRRQAUUUUAFFFFABRRRQAUUUUAFFFFABRRRQAUUUUAFeM+Mv8Ak6b4c/8AYE1T+cNezV4z4y/5Om+HP/YE1T+cNe7k/wDFqf8AXuf/AKSznrbL1X5ns1FFFeEdAUUUUAFFFFABRRRQAUUUUAFFFFABRRRQAUh70tIe9VH4kB6do/8AyC7T/rmv8hV0d6paP/yC7T/rmv8AIVdHev7kwP8AutL/AAr8j4Kp8TFooorvICiiigBp+6fpXmGqf8hK7/67P/M16efun6V5hqn/ACErv/rs/wDM1+L+J3+5UP8AF+h7eV/xJehVooor+cj6UKKKKACiiigAooooAKKKKACiiigAooooAKKKKACiiigArl/ip/yTHxf/ANge8/8ARD11Fcv8VP8AkmPi/wD7A95/6IeuzBf71S/xL8zOfwszvgV/yRXwD/2ALD/0nSu5rhvgV/yRXwD/ANgCw/8ASdK7mtsz/wB9rf4n+YU/gQUUUV5poFFFFABRRRQAUUUUAFFFFABRRRQAUUUUAFFFFABRRRQAUUUUAFFFFABRRRQAUn8VLSYzQB45rHhv4veEfi14k8WfDmfwW9prtlZ21xF4n+1mRGtxIAUEIAwfMPU+nTFX/wDhNP2pvX4R/wDfGp/416rSV+g4PjjN8FQhhqTjyxVlp2POngKNSTk92eV/8Jl+1N/1SP8A741P/Gj/AITP9qb/AKpH/wB8an/jXqtFdn/EQ877x+4n+zqB5V/wmn7U3/VJP++NT/xrmviJ8bv2l/hn4O1DxJqkXwsuLCyMfmR2cWotKfMlWNdoZwPvOM5PTPXpXvO2vIP2tv8Ak33xSPez/wDSyGu/L+PM4xOLp0ZuNpNJ6GVTL6EYNot/8Jp+1N0z8I/++NT/AMaP+E0/an9fhJ/3xqf+NeqN3pa46niDnUZtJx0fY0/s6hY8q/4TL9qb/qkf/fGp/wCNH/CZftTf9Uj/AO+NT/xr1Wio/wCIh533j9w/7OoHlX/CaftTevwj/wC+NT/xqb4P+DvGeh6x408QeOp9Dk13xJfxXbx+HzN9mRY4EiAAlG4EhB3PPevTu9FeTmnGGZ5thnhcS1yu3S2xrSwdKjLnjuApaKK+IO4KKKKACiiigAooooAKKKKACiiigAooooAKKKKACiiigAooooAKKKKACiiigApD2paKAPFrHxJ8SvhL8XPiHqvh74XnxvpHiOSwlhu18QWths8m1WNgUkBYndnk46V0/wDw0r8ZP+jeZP8Aws7H/wCIr0IUV+oYPxBzPB4enh4QhaKS2fT5nlzy6lOTk29Tz7/hpb4yf9G8v/4Wdj/8RR/w0t8ZP+jeX/8ACzsf/iK9Borr/wCIlZt/z7h9z/zI/suj3Z59/wANLfGT/o3l/wDws7H/AOIqlffHz4qapPbTXn7NcN1Nav5lvJP4u092ibj5kJT5Tx29q9Ooo/4iVm3/AD7h9z/zD+y6Pdnl138ePirefamf9nDZLcqFluIfGdjFMcKVUiRVDBgGYBgQRk4INctd/tHeOvhzfaUb/wCBOrLLrF5HptlHqPxEF+klwxLoAshdUbMZO8gYx15r3qvHf2hv+Qt8Jv8AsdrL/wBEz16eXeIOZ4vEKlOEEmm9n0TfcyqZbSjG6bNOD48/FK1vJbyH9mmCG8mbfJcJ4t08SO2CoZmCZJwSOT3qzb/tF/F6zhWG3/Z08iJfuxx+MbBVXnJwNlejUV5r8Ss2v/Dh9z/zNf7Lo92eff8ADS3xk/6N5f8A8LOx/wDiKP8Ahpb4yf8ARvL/APhZ2P8A8RXoNFL/AIiVm3/PuH3P/MP7Lo92eff8NLfGT/o3l/8Aws7H/wCIo/4aW+Mn/RvL/wDhZ2P/AMRXoNFH/ESs2/59w+5/5h/ZdHuzzm6/aP8AjJc28sX/AAz06+YpXP8AwmdicZBGfuVH+zn4M1b4e/BTwp4e1yBbTVrK3dbiFZFkCM0ruF3KSCcMOhr0qkxXzmecXY3PqEcPiYxSTvon+rOnD4Onh5c0RaKKK+HO4KKKKACiiigAooooAKKKKACiiigAooooAKKKKACiiigAooooAKKKKACiiigArxnxl/ydN8Of+wJqn84a9mrxnxl/ydN8Of8AsCap/OGvdyf+LU/69z/9JZz1tl6r8z2aiiivCOgKKKKACiiigAooooAKKKKACiiigAooooAKQ96WkPeqj8SA9O0f/kF2n/XNf5Cro71S0f8A5Bdp/wBc1/kKujvX9yYH/daX+FfkfBVPiYtFFFd5AUUUUANP3T9K8w1T/kJXf/XZ/wCZr08/dP0rzDVP+Qld/wDXZ/5mvxfxO/3Kh/i/Q9vK/wCJL0KtFFFfzkfShRRRQAc0n40V5h4k+Iviq/uPFGmeDfCTalqGkXC2S3t3dwpbmfyIp8FC6uRsmUZHr3xiu7C4OrjJNU7abtuyX3kSmo6s9P8AelriPD/j/Ur7xdb+H9X8L3WgT3NjcX8Est3BOrrDJAjr+7Y4ObhOuOhp0XiXxdY3Us+teG9KstDgWSSe7stXmu7hUVWIKwC0BcnA+UNnnv0roeV4hS5Xba+619NdfkT7SJ2e6jPFeXfC/wCOWkePALKeZ4damvtRitrc6dcwJLDBcSqpDSIF3CNELLuyCSMA5A5zwx+0DrGoaONQ1PSNLButLsrvTrOwvJHmuby73G3tMMg+cqpZiMhVIY8ZI6v7DxvNOLh8P69u4vbQ0dz3WgmuO8A+MbzVmu9C8Qi1tfF2mY+2W9qrLDNGx/d3EG4kmNhxk/dZXU9MnzXTf2jptY8G614nin8MxDT9Lmu4vD8F+91fSTZ2xLI2IxHucqmwI5JcAN2rKnk+KqzlCK+G347W9QdWKs2e+UVwngLxtqms+IfEega+mm22r6S8JWOwlciSOSJZN+1xuwC23OMcV3QrzsTh6mFqezqLX/M0jJSV0LRRRXKUFFFFABXL/FT/AJJj4v8A+wPef+iHrqK5f4qf8kx8X/8AYHvP/RD12YL/AHql/iX5mc/hZnfAr/kivgH/ALAFh/6TpXc1w3wK/wCSK+Af+wBYf+k6V3NbZn/vtb/E/wAwp/AgooorzTQKKKKACiiigAooooAKKKKACiiigAooooAKKKKACiiigAooooAKKKKACiiigAooooAKKKKACiiigArx/wDa2/5N+8U/71n/AOlkNewV4/8Atbf8m/eKf96z/wDSyGvXyf8A5GFH/EjGt/Dl6Hr7d6WkbvS15tb+JL1ZqtkFFFFZDCiiigAooooAKKKKACiiigAooooAKKKKACiiigAooooAKKKKACiiigAooooAKKKKACiiigAooooAKKKKACiiigAooooATua8e/aG/wCQt8Jf+x2sv/RM9ew9zXj37Q3/ACFvhL/2O1l/6Jnr3cj/AN+j6S/9JZjW+A9iooorw5bs2CiiikAUUUUAFFFFABRRRQAUUUUAFFFFABRRRQAUUUUAFFFFABRRRQAUUUUAFFFFABRRRQAUUUUAFFFFABXjPjL/AJOm+HP/AGBNU/nDXs1eM+Mv+Tpvhz/2BNU/nDXu5P8Axan/AF7n/wCks562y9V+Z7NRRRXhHQFFFFABRRRQAUUUUAFFFFABRRRQAUUUUAFIe9LSHvVR+JAenaP/AMgu0/65r/IVdHeqWj/8gu0/65r/ACFXR3r+5MD/ALrS/wAK/I+CqfExaKKK7yAooooAafun6V5hqn/ISu/+uz/zNenn7p+leYap/wAhK7/67P8AzNfi/id/uVD/ABfoe3lf8SXoVaKKK/nI+lCiiigBD3r5amtNM8ReNtQ1B9G8D3X/AAkeo6reRan4tsEuMQ2LWViscbZHDMJXAyeOeMmvqVhuUjGQeCDWDP4D8OXUenRTaDps0WnQNbWUUlqjJbxHZlEUjCg+WnT+6K+iynMqeX+0cr3l2+f62MKtN1LWPLPhha2Gi/EwaRBpHgFTeaNc3DXnhHT1gmVUmt1McjBj8reYDjuUHpXAfD/UvCPh/UrPxXF4SkTRrjUr29uNRk0O4jj0m2XC2kiTsoTbtiBcDOGuCcjac/S+m+DNB0XUhqGnaLp9he+U1v59rbJE/lsVZlJUDIJRTz6Vd1TSbPWrNrPULSC9tHKs8FxGHRirBlJUjnDKp5HYV6f9u0lNtxcuZJPW3e/fuZexdt7Hh/gzTbqy1X4T/bYjb3t8mua1NbOMPD9pYTFGB5yv2lVPuK848J6aY/AuiXFppVxBcahpPh+zstRuI/LcX8pghm+yMTuYNaxxlynAEDerV9V2Pg/RNN1y91q00exttXvF23N/Fbqs8y8cM+MkZA79QKfb+FtItI9JSHS7ONNJXZp4WFf9EUoUIj4+TK/Lx2raPEFKPNaLd7fnJ/m7egnh2zjPCa27eIviHq13ZHUbvSdbkFmywiW4iQ6bZM8cPcbz/Cp5OK8m+HNnrusfBO1Lalr2iWkGk/a7HV9eTSF0zT54sPFKg8sz7VYD5pBkKWOc4I+l7XTbWwlupba3jgkupfPuGjXBlk2qm5vU7UQfRRWbceB/D97pmn6bc6Jp9xp+nyLNZ2s1urxQOoIVkUjAIycHHeuajnsKcpXjvy/LlXRepTot217nlX7OviNviBqOu+IpdRurxEhtbW3ttXFqb+3DJ5kjsYYlIikLLsycMIy44YV7gtUW0LTn1iPV2sLY6rFCbZL0wjzliJBKB8Z25AOK0K8LMsXDG1/bQVlpp2N6cOSPKwoooryjQKKKKACuX+Kn/JMfF/8A2B7z/wBEPXUVy/xU/wCSY+L/APsD3n/oh67MF/vVL/EvzM5/CzO+BX/JFfAP/YAsP/SdK7muG+BX/JFfAP8A2ALD/wBJ0rua2zP/AH2t/if5hT+BBRRRXmmgUUUUAFFFFABRRRQAUUUUAFFFFABRRRQAUUUUAFFFFABRRRQAUUUUAFFFFABRRSZ5xQAtFJkUZFAC0UmRRkUAHc15B+1t/wAm/eKf96z/APSyGvX+5ryD9rb/AJN98U/71n/6WQV6+Uf8jCh/iRjW/hy9D19u9LSE8mjIrza38SXqzVbIWikyKMishi0UmRRkUALRRRQAUUUUAFFFFABRRRQAUUUUAFFFFABRRRQAUUUUAFFFFABRRRQAUUUUAFFFFABRRRQAUUUUAFFJmjIoAWikyKMigBa8d/aG/wCQt8Jf+x2sv/RM9ew5FeO/tDH/AIm3wk/7Hay/9Ez172Sf77H0l/6SzCt8B7HRSZFGRXhS3ZuLRSZFGRSAWikyKMigBaKKKACiiigAooooAKKKKACiiigAooooAKKKKACiiigAooooAKKKKACiiigAooooAKKKKACvGfGX/J03w5/7Amqfzhr2avGfGX/J03w5/wCwJqn84a93J/4tT/r3P/0lnPW2XqvzPZqKKK8I6AooooAKKKKACiiigAooooAKKKKACiiigApD3paQ96qPxID07R/+QXaf9c1/kKujvVLR/wDkF2n/AFzX+Qq6O9f3Jgf91pf4V+R8FU+Ji0UUV3kBRRRQA0/dP0rzDVP+Qld/9dn/AJmvTz90/SvMNU/5CV3/ANdn/ma/F/E7/cqH+L9D28r/AIkvQq0UUV/OR9KFFFFABRRRQAUUUUAFFFFABRRRQAUUUUAFFFFABRRRQAVy/wAVP+SY+L/+wPef+iHrqK5f4qf8kx8X/wDYHvP/AEQ9dmC/3ql/iX5mc/hZnfAr/kivgH/sAWH/AKTpXc1w3wK/5Ir4B/7AFh/6TpXc1tmf++1v8T/MKfwIKKKK800CiiigAooooAKKKKACiiigAooooAKKKKACiiigAooooAKKKKACiiigAooooAKb/FTqTvQB5lqPxH8Zah8Rtd8JeDvAcPieXRrW1ubu5n1uOxA+0CQoArRNnHlt0PpVz+0fjZ/0R2x/8K+D/wCM1e+Bf/JzXxc/7BOh/wArqvo2v6cyPg/JsXltDEVqN5Sim9Xu0fL18bXhUlGL0R8yf2h8bP8Aojtj/wCFfB/8Zo/tD42f9Edsf/Cvg/8AjNfTlFe3/qPkP/Pj8X/mYfX8R/MfMf8AaPxs/wCiO2P/AIV9v/8AGa5D4t+EfjZ8Uvh/qnhj/hVdjpn24wn7V/wlMEuzy5kl+75a5zsx14zX2V/Oj+VbUeDMkoTjUp0bNarV/wCZMsdXkrNnzN/aXxs/6I5Y9f8Aob4P/jNJ/aHxr/6I7Y/+FfB/8Zr6borOXBGRSd3Q/F/5j+v4j+Y+ZP7Q+Nf/AER2x/8ACvg/+M0f2h8a/wDojtj/AOFfB/8AGa+m6Kn/AFHyH/nx+L/zD6/iP5j5k/tH41/9Edsf/Cvg/wDjNP8Ahr8Q9W8Yat4r0fXvDi+GdZ8PXkdpc20eoLeqxkhWUEOEUcK4HAr6X9q+Q9C8Vad4a+O3xqGoTND52t2mzajNnbYQZ6D3HWvjeLuFcqy3Kp4jCUrTTXV9X5s9DAYjEYiuqbdz2IYo4rkh8UvDuP8Aj9b/AL8v/hS/8LT8Of8AP/8A+Qn/AMK/n72cux9X9Vr/AMj+462jNcl/wtPw331D/wAhv/hR/wALU8Nf9BFf+/bf4UvZy7C+q1/5H9x1uaM1yX/C1PDP/QTT/vhv8KP+FqeGP+gon/fDf4U/Zy7C+q1/5H9zOs4pcVyX/C1PDH/QUj/75b/Cl/4Wl4YP/MVi/wC+W/wp+zn2D6rX/kf3M6vIoyK5T/haPhn/AKC0X5N/hS/8LQ8M/wDQWh/Jv8KXs5dh/Va38j+5nVc0tS6D8SvCTax4W0Cb95e+ILe4nsLpoh5MpibDRlyc7yNzAY5Ebc5wD0EPjHweNKXUb+50/RbWTUrjSYm1SSK3825hnkgZELNhizxOVA5Ixx2r9ewfhzicZh6eIVdLmSez6q583UzFU5uDjsc1RXfo2gyPGiyWDvLO9rGquhLzIGZ4h6uoRyV6gI2ehrl9T8d6NHrUulaH4eu/F99bwrcXa6KLYpaozui75JpY03Fo5BsViw2HIHGez/iGGJ/6CF9zI/tWP8pkUUah8cvhzp+n6nMLu3uL7T9FfXZdJVUS98hY3kZPKcqRKFRso2COM4BzVq6+Jek2k2ryyeENWOjaTdtZ3utpFaNbQshUO5QTedsXdkkR8AE9Bmj/AIhhif8AoIX3MP7Vj/KVPwozmu5h1DwxceILjQYb3S5dctohPPpkc0bXMUZxh2jzuCnIwSMc1ha14s8IS6FqNxY6vpFx9kd4ZmtbmOQxOjosittPDKZEBB6b1z1FcWM8OcTg8PUxDrp8qb2fRXNKeZKpNQUdzDyKMiuc/wCFieG/+gzaf9/BR/wsTw321q0/7+CvyL2cux9D9Xq/yP7mdJmjNc5/wsPw3/0GbT/v6KVfiF4c/wCgzZ/9/hR7OfYX1er/ACv7joqK53/hYXh3/oM2X/f5f8aX/hYPhz/oM2X/AH/X/Gl7OXYPYVf5H9x0P40fjXPf8LA8O/8AQZsv+/6/40v/AAsDw7/0GbL/AL/r/jR7OXYXsav8r+46CkNcjrnxK0bT9JuLm01CzvLiNdyQLOuX9vrWVofxq0PUtqXfmadKf+eo3J+Y/rWkaM3rY6IYHE1KbqQg2kZuk/Ej4h+MtW8SQ+Efhnb65puiatNpEl7P4iitWkliVCxEbRHAw6nqevsa1P7Q+Nn/AERyx/8ACvg/+M1t/sf3EV5pnxTngkWWGTx3fskiEFWBgtuQa+ga/qLAcF5JWwlKpUo3k4pvV9vU+Gq47EQm432PmP8AtD42f9Edsf8Awr4P/jNH9ofGz/ojtj/4V8H/AMZr6coru/1HyH/nx+L/AMzP6/iP5j5j/tH42f8ARHbH/wAK+D/4zXHfETwf8bPHl54Sm/4VZY2P9ga3DrG3/hKYJPP8tHXys+WNufMzuwenTmvsylFb0ODclw8/aUqNn6v/ADJljq8lZyPmP+0PjZ/0R2x/8K+3/wDjNH9ofGz/AKI7Y/8AhXwf/Ga+nKKw/wBR8h/58fi/8x/X8R/MfMf9ofGz/ojtj/4V8H/xmj+0PjZ/0R2x/wDCvg/+M19OUUf6j5D/AM+Pxf8AmP6/iP5j5j/tL42f9Ecsf/Cvg/8AjNXvhL8QJ/iT4TfVrrSxo11Fe3VjNZrci4CyQStExD7VyCVP8NfR34V8m/s1/wDIi6x/2Musf+l0tfn/ABtw3lmU5aq+Ep8suZLdvSz7s9DA4qrWqcs2esUUUV+EHvhRRRQAUUUUAFFFFABRRRQAUUUUAFFFFABRRRQAUUUUAFFFFABRRRQAUUUUAFFFFABXjPjL/k6b4c/9gTVP5w17NXjPjL/k6b4c/wDYE1T+cNe7k/8AFqf9e5/+ks562y9V+Z7NRRRXhHQFFFFABRRRQAUUUUAFFFFABRRRQAUUUUAFIe9LSHvVR+JAenaP/wAgu0/65r/IVdHeqWj/APILtP8Armv8hV0d6/uTA/7rS/wr8j4Kp8TFooorvICiiigBp+6fpXmGqf8AISu/+uz/AMzXp5+6fpXmGqf8hK7/AOuz/wAzX4v4nf7lQ/xfoe3lf8SXoVaKKK/nI+lCiiigAooooAKKKKACiiigAooooAKKKKACiiigAooooAK5f4qf8kx8X/8AYHvP/RD11Fcv8VP+SY+L/wDsD3n/AKIeuzBf71S/xL8zOfwszvgV/wAkV8A/9gCw/wDSdK7muG+BX/JFfAP/AGALD/0nSu5rbM/99rf4n+YU/gQUUUV5poFFFFABRRRQAUUUUAFFFFABRRRQAUUUUAFFFFABRRRQAUUUUAFFFFABRRRQAUlLSfzoA434F/8AJzfxd/7BOh/yuq+jf4a+cvgWf+MnPi9/2CdD/ldV9G/w1/aHDf8AyJ8N/gX5HxGJ/jT9Ra+TPj/f+Jb7SPFmmWcFzbX99rR0UR6f4keCN92nGZJNsqogBiJDx7guYk25LsT9Z1w+qfBrwlrniOTXL7SYru/mvI76c3AEyTPHavbIrI+4BVSQnaoHzAMea+lOY8p+HvibxRN8IY9auNQ1DSY7XWJYdSnl1e31C4ht1by3lMk6GMrG4DbUblAxUs+I2y/2d5tZ1rx5fzf2rrcSwTaq9xFqn2eCK9gfU7ryHW3EQkLLJ5u/d5ZjJ2jcrAD2PR/gv4f0XwzbaNF58otbme+trqQRB4bmVmbz1jVBDvQtlMx4Ugcda09F+G2j6Lp+lQMs1/d6bcXF5DqN0w+0+fO7vPIWQKPnaRyVACnI+XAGADxfxrc3On+EvB8lv4p16zubPX7ezZNDhbUbVH+3yW0+yeW1eTcFaSMRM5wAEw/VrHxh8RazpfiLwpa2ln4l12OLRrq9F4t1DYvLJ9s08B5Yt8PzIrMm1ox/rsAff2+j3HwX0HUNH0rTU1HV49P0xoTDHbagyL50Mm8SuR96XzBuZjyWyTVnWvhjo9xDFe6hqupJ9ihVZL2e6UsbdJfPdHZ1PyMypvIwcRIMjFAHlX7MfifW9X8ceIINQ0/WoLabRLG98zUdQjuIxI17qQ3qomfb5iqq/KOlvzgbd30jXF+AfhxovguabUNIuLm6S7sLOxiaaZZES1txJ5KIQBkZmkYsxJJc5OMAdpQA3+KvlnwKob46fHHIB/4nln1H/ThBX1N3r5b8Bn/i+vxx/wCw3Z/+kENfnfHv/Iiq27x/NHp5d/vCPRvJT+6v5UeRH/dX8hRLPHCpZ3VFHVmIFSKa/lC73PsLuxH5Ef8AcX8hR9njH8C/lUnPrS0cz6MXM+5F5Ef9xf8AvmjyIv8Anmn5CpaKOZhzMi8iL+4v/fNJ9li/55p/3yKl5o5ppyb0Ycz7kX2WA/8ALFP++RTTZwf88Y/++RXUw+CriWNXE6AMAe9O/wCEFuf+e6fka+yhwjnskpKg7PzX+Zxf2hRWnOc9c/C+PxleWtzdSJDpf9jz2IaFytzDcG6hminj4wCjQhw2eGVeDXHWvwP8b2dvZ3V1qljqeq/ZtWt7qO3uRbW5a61CS5Dr5ltNhZFdRIoGR5SAFwM16zH4T1CFQqXxVB0CscU7/hF9T/6CDf8AfTV+8YDNM0weEpYeWAk3CKW66Kx87Up0qk3L2i1PK779nzxBp15HJoesWbppltaX2lm/ml3nVoEtoGaRsMVhkt7Xy2YFnP2qY4PfqPCXw5134TzvD4Zt9N1nTJ9NtLd49QvpLWZLqCPy/MLLDIHSQbS3AKspID78L1n/AAi+pf8AQQb/AL6aj/hF9S/6CDf99NXf/buZ/wDQvl/4FEz+r0v+fiOE8ZfCfxR4q0vxIs95pFzqmveD5tCnumZ4Vium88qyqI2JizPtySGAQHDE1Lq3wMk1DTfFFyLyQ65c6w+s6ZGdWulsPNR0kgWeDPlEb4xu/dt1yMsBXbf8IvqX/QQb/vpqjk8O38ZTfqe3c20bpCMn0FH9u5n/ANC6X/gSF9Xpf8/EeZD4DeIbi/mtp9X8qzGq6tqcF/HdjfGbtLpY2WMQK3mKLkq26UrtQEdQI5IvCOoaV4u8NjU9B0ixS38IXOmu+ls8yFo7mx2oWaNMIPmMann7/SvTP+EX1P8A5/2/76akfwnqEqlWvdyHqCzYrhx+aZpjMJUw8cBJOUWt11VjSnTpU5xn7TY4f+xrD/nyg/79Ck/sXT/+fK3/AO/Qrs/+EHuf+e6frUMnhF451ha8hE7q0ixZwzKpAZgO4G5efce1fhD4Rz2KbdB/ev8AM+kWY0v5/wAzkv7B07/nxt/+/a/4U3+wdN72Fv8A9+l/wrRor42TnFuL3R2qpLuZp8P6Z0+wW3/fpf8ACj/hHdKP/MPtf+/K/wCFaVFTzy7j9pPuzN/4RvSf+gda/wDflf8ACk/4RnSf+gda/wDflf8ACtOijnl3D2k/5mc7rngfS9W0u4tEtILVpl2+dHCu5fccVm6L8JfDui7WNp9tl/56XJ3/APjvT9K7P+VHHSrjUldK5tHF14QdOM2kznP2Q41h0/4qoihEXx3qACqMAfubboK9+968D/ZH/wCPP4r/APY+ah/6Ita98HSv7byv/caH+FfkfndbWpL1MDxh4kk8L6bBdxw29y73EcP2ee8S2aQMTlYmfCtJgEhCy5wfmFebaR+0Fc6x44TRl0i0stP/ALZudHF3O9+0kkkM8kXy4sfIy3llgPP4B5OQcdr8V9H1HxF4Pn0zStLt9Tv7p1jja8mEMNtwSZnbazDAGBsRiWZeANzL5D4P+F/iXQfF+havLpOqQ3tlPGZpIILD7JctJv8Atk9wPtvmO5aefynVQ0Stt2uCyt6hidh/wvK+k+1yfY/C9hBDcXUSrqniSSCby4bma3810Fm4RWaByPmPQ88Gun0X4saT/wAIvFqnie+0rwpM17fWLRXWpJ5RktrmWBykkix7h+6LfdBAPIrywfCHxVc2+tQSW+qadDqMt9aXcWn6nZLFfWb6heXEW8S20rISl2+djqcNzgjjc0X4f+NNLe01610nRpdXZtdtZ9J1e+ZIoobzU2uo5Vmjik3Daqbo9q7gw+ZSmCAdnqXxq8M2PiC80SG+ivtUtJNOSW3t54mbF5dLbIQN2cIzKzZHAdMZLYrqfE2uDw3oN5qZtZL0WybzBFLFEzc9mldEHXqzAV5xqfwv1+bWALcaOmmNb+H97wtJbmOTTtQE8iR24jZRG8RYL+8ypVVIwdw0vE+tS/Ejw3qnhux0bWNOur+3aOO51Swkgt0I5+Z8HHT07igDd1j4neHtJ1yy0ZdStbzV7i9jsnsLe5jaeBmUsGkj3bguNvb+JfWuurxpfhf4mj1zS7NYtEfQdP8AFFx4lXUpJ5Tey+fJcO0Pk+VtVkNwVEnmHKIBtXdlfZaAE9a+Tf2a/wDkRdY/7GXWP/S6WvrLua+Tf2a/+RF1j/sZdY/9Lpa/KPEj/kUR/wAa/JnrZZ/GfoesUUUV/MJ9UFFFFABRRRQAUUUUAFFFFABRRRQAUUUUAFFFFABRRRQAUUUUAFFFFABRRRQAUUUUAFeM+Mv+Tpvhz/2BNU/nDXs1eM+Mv+Tpvhz/ANgTVP5w17uT/wAWp/17n/6SznrbL1X5ns1FFFeEdAUUUUAFFFFABRRRQAUUUUAFFFFABRRRQAUh70tIe9VH4kB6do//ACC7T/rmv8hV0d6paP8A8gu0/wCua/yFXR3r+5MD/utL/CvyPgqnxMWiiiu8gKKKKAGn7p+leYap/wAhK7/67P8AzNenn7p+leYap/yErv8A67P/ADNfi/id/uVD/F+h7eV/xJehVooor+cj6UKKKKACiiigAooooAKKKKACiiigAooooAKKKKACiiigArl/ip/yTHxf/wBge8/9EPXUVy/xU/5Jj4v/AOwPef8Aoh67MF/vVL/EvzM5/CzO+BX/ACRXwD/2ALD/ANJ0rua4b4Ff8kV8A/8AYAsP/SdK7mtsz/32t/if5hT+BBRRRXmmgUUUUAFFFFABRRRQAUUUUAFFFFABRRRQAUUUUAFFFFABRRRQAUUUUAFFFFABSf4UtJ/hQBxnwL/5Oc+Lv/YJ0P8AldV9Hfw184/Av/k5z4u/9gnQ/wCV1X0d/DX9ocN/8ifDf4F+R8Riv40/UWuD+LkmoLpGkRWsmpQ6bcanFBq8+kLIbqOzZJMlDGPMQGTylZ0wyozsCuMjvKK+lOY+ehNc3ElpbX+o/ECDwhbWl3Lpt4kF0t9LcR3LKokaJTNKqx7PJWcHzgWLiQ4NJZaf4/vNEuPEWrXOvweJ7PVtEWPTbSSRbTy5LfTV1ACFflljLSXYJbcIyjMuxgxr6GooA+avBPw61azl0jQEu/F+m6XL4l8RS6qVvrxDJC11cSWp88nKq6vHJvjYFmJySS1SaofE99G3lf8ACS3XiDUH1e21+wnhuDYR2q212IBAjL5K/vRaLG0Q3yqWLFzvI+kaKAMbwfDJa+E9EgmjeKWOxgR45BhlIjUEEHoc1s0UUANr5B0u01m7+NHxyTRb6CxuP7bs8tLDvz/oEGMHPHfsa+v/AMa+WPAn/Jdvjl/2G7L/ANIIK/POPJcuR1H5x/NHq5ZJwxMZJXOD1/wn40j1SCXU/tF6omDLMrmWNDkHdtB+UD6CvWV0rxfx/wAT2y/8Aj/8VXXbQTS8V/K0q7krWP0LEZnUrxjFwj7vkjkf7K8Y/wDQdsf/AACP/wAVS/2V4w/6Dll/4BH/AOKrrqKj2nkcf1qX8sfuX+RyP9leMP8AoOWX/gEf/iqT+yvGP/Qdsf8AwCP/AMVXX0Ue08g+tS/lj9y/yOQ/svxh/wBB2x/8Aj/8VR/ZPjDP/Idsf/AI/wDxVdfSe9XCraSdgeJlb4V9y/yOKt/E2ueC/FfxO8R3urXd54Zt9St9Lv7eSZjFpS/2RYyR3cKk/u082eTzQOzrIcCNt0Hwv+MXi+78J+H1jt7a6sNNg8P6feXN+yma7kurSzkkkM73CbXP2oBV8ty7pjdl/l9dt9c0iGG9j/siH/TyGvcRIPtTeWseZP758tET5s/KqjoBWctr4OXUtL1FfCOlrf6VCtvYXQsYhJaRKMLHE23KKASAq4xk1/WNDjDJI0oRliEmkujPhJYOu23ynAS/tGeIrdWhm07S1uo4m0EsvmFZfE5naKO1Rd2fJ2o0pyd2x0OfXTs7bTda8J+MPFninxLq2javpmrX8U91ZajcRjS1trh1tlS1Vih3QrBJ5bI3necMhw6iu6OqeHzN5x0C0Mv2v+0PMNvHu+07PL8/OP8AWbPl39ccZxxVS+XwlqniK18QXnhXTbvXbUAQanPZxPcxYzjbIRuGMnGD3PrW3+uWRf8AQSvuf+RP1HEfynItq3iT/hLfE6XmtrcWMHjzTrS1t4IpImhiayspDHuMrDYRJyoUZYu38e0cD8NdT1rS9J+D2t3keqaV/aVtuuNY1DxJNdW2qMdMnm8qWBpCsQdk87zCvyeSR/FXurX3hxtVn1M+HrM6lcNE814baMzSNF/qiz43Epk7cnjJxUkesaFDY6fZR6HapZaeUNnbrAgjttilU8tcYTapIG3GAaf+uWRf9BK+5/5B9RxH8p5la/HDxnH/AGVp2otoNnrmpT6VGscllKIoo7tplMqMlzJHcIWjXYUlUnkMq7ga3dL8Vajr/wAWNP07XEt7t/Dj6uY59PieKG5ukgsDE0aM7EOIL+5jKlj8ySHjHEl74G8AXFrHa2vhLT9JtTex31zBp9lBFHeOiuoSddmHQiRsg+vWt+zXwvptvo1vY+H7fT7fR5muLCGyjWGO3kZHRiqrgDcssgIxzuP1pf65ZF/0Er7n/kH1HEfynCeKPiD4z1L4Q3urp4h8NWVzq3hSXXbOOwhnW7tlCxsdn7798oEyqZgY9jbDsbfhe9+F91qE3jD4l2+oXn2yW21m0iBQMkS50qxZhGhZtil2Ztu48seSTks06HwhpH9r/YfCem2f9sZ/tHyLKKP7bndkTYA8zO9vvZ+83rVS8tdH+zxQaOl34ViXbvXQfKthLtjSJA42HISONEX0VQOgGD/XLIv+glfc/wDIPqWI/lKuv+NNT0j4kaxpWmfZ4Lq+n0qzjvdReea1t/MS6dmaLzVUFhB5ahNhaSSPcTxXHaLq2qTeKobi81CK71aH4iXGlLNaq2xoDpJaWFQzMUTMYkKbiA8Q6lc16HGnh+XRrnTdU0tdfju41ivJdWiine7VWZkWXK4cLuO3IwKTTbbwtol3ZXGl+H4NM+xrKIYbFFghUuqIzmNMIX2RIgYglVyAQGIMVeMMjlCSWIW3Z/5DWCr3+E4VtL8YZ/5Dtj+Fkf8A4qm/2V4x/wCg5Zf+AR/+Krr+tFfydWrKVWTS3bPuo4iSSXKvuRyP9leMP+g7Zf8AgEf/AIqk/srxj/0HLH/wCP8A8VXX0Vj7TyL+tS/lj9y/yOQ/srxj/wBByx/8Aj/8VS/2V4w/6Dtl/wCAR/8Aiq66ij2nkH1qX8sfuX+RyH9leMf+g5Y/+AR/+KoOk+MP+g7Y/wDgEf8A4quvpG6U41NVoL6zL+WP3L/I5b9jmO4j0f4opdyrPcjx1qAkkRdqs3k23IGeK+hK+S/CWnfF34X6r4wj8Lw+Cb7Sdc1641pG1e5vFuE81Y12ERx7eBGOhPJNdJ/wsL4/99L+G3/gXqH/AMbr+sMv4pyenhKUJ4iKaivyPhauFrzqSkon0htFGBXzh/wsL4//APQL+G3/AIF6h/8AG6P+FhfH/wD6Bfw2/wDAvUP/AI3Xo/62ZJ/0ExM/qdf+U+jqOK+cP+FhfH//AKBfw2/8C9Q/+N1zXjL4/fHDwPceHYb7RPh/M2u6rFpFsbe5viEmkR2VnyowoCHpk8jjrWlPifJ60uSniE2S8JXiruJ9a7RRtFfOH/Cwvj//ANAv4bf+Beof/G6P+FhfH/8A6Bfw2/8AAvUP/jdZ/wCtmSf9BMR/U6/8p9H7RRtFfOH/AAsL4/8A/QL+G3/gXqH/AMbo/wCFhfH/AP6Bfw2/8C9Q/wDjdH+tmSf9BMR/U6/8p9HV8nfs1f8AIi6x/wBjJrH/AKWy10R+IXx//wCgX8Nf/AvUP/jdVvgn4J1fwD4Nl0/XJbKTU7jUrzUJf7Pd3hUzzvLtVnVWOAwHI7V+ccdZ5l2Y5YqWFrKUuZOy9GejgMPUpVeaatod/RRRX8/H0QUUUUAFFFFABRRRQAUUUUAFFFFABRRRQAUUUUAFFFFABRRRQAUUUUAFFFFABRRRQAV4z4y/5Om+HP8A2BNU/nDXs1eM+Mv+Tpvhz/2BNU/nDXu5P/Fqf9e5/wDpLOetsvVfmezUUUV4R0BRRRQAUUUUAFFFFABRRRQAUUUUAFFFFABSHvS0h71UfiQHp2j/APILtP8Armv8hV0d6paP/wAgu0/65r/IVdHev7kwP+60v8K/I+CqfExaKKK7yAooooAafun6V5hqn/ISu/8Ars/8zXp5+6fpXmGqf8hK7/67P/M1+L+J3+5UP8X6Ht5X/El6FWiiiv5yPpQooooAKKKKACiiigAooooAKKKKACiiigAooooAKKKKACuX+Kn/ACTHxf8A9ge8/wDRD11Fcv8AFT/kmPi//sD3n/oh67MF/vVL/EvzM5/CzO+BX/JFfAP/AGALD/0nSu5rhvgV/wAkV8A/9gCw/wDSdK7mtsz/AN9rf4n+YU/gQUUUV5poFFFFABRRRQAUUUUAFFFFABRRRQAUUUUAFFFFABRRRQAUUUUAFFFFABRRRQAUn8VLSYzQB47q3h34ueEPi14k8WfDubwXJZ67ZWdtcReJvtZkRrcSYKCEAYPmHqT0HStH/hNv2pP7vwj/AO+dU/xr1LGaTHtX6Fg+Oc3wOHhhqTjyxVlp2POngaNSTk92eXf8Jt+1J/d+Ef8A3xqf+NH/AAm37Un934R/98an/jXqO0UbRXX/AMRDzvvH7if7OoHlv/CbftR/3fhH/wB86n/jXN/ET44/tKfDPwff+JdUt/hZcWFkYvMjtI9SaU75VjGAzAcM4zk9AfpXuxFeQftbf8m++KR/tWf/AKWQ16GX8eZxicVTozcbSaT0M6mX0IwbRe/4Tb9qT+78I/8AvnU/8aP+E2/ak/u/CP8A741P/GvUW70bRXHU8Qs6jNxTjo+xX9nULHl3/CbftSf3fhH/AN8ap/jR/wAJt+1J/d+Ef/fGp/416jtFG0Vn/wARDzrvH7h/2dQPLv8AhNf2pP7vwj/751P/ABqT4P8Ag/xlomteNfEHjqbQpNc8SX8N28fh8zfZoxHAkQAEo3AkIO5r03HtRxjpXk5pxhmebYZ4TEtcrt0tsbUsHSoy547gKWiiviDuCiiigAooooAKKKKACiiigAooooAKKKKACiiigAooooAKKKKACiiigAooooAKKKKACiiigApNopaKAE2ijaKWigBMda8e/aGx/a3wl/7Hay/9Ez17D3NePftDf8hb4S/9jtZf+iZ693I/9+j6S/8ASWY1vgPYdoo2ilorw5bs2E2ijaKWikAm0UtFFABRRRQAUUUUAFFFFABRRRQAUUUUAFFFFABRRRQAUUUUAFFFFABRRRQAUUUUAFFFFABRRRQAV4z4y/5Om+HP/YE1T+cNezV4z4y/5Om+HP8A2BNU/nDXu5P/ABan/Xuf/pLOetsvVfmezUUUV4R0BRRRQAUUUUAFFFFABRRRQAUUUUAFFFFABSHvS0h71UfiQHp2j/8AILtP+ua/yFXR3qlo/wDyC7T/AK5r/IVdHev7kwP+60v8K/I+CqfExaKKK7yAooooAafun6V5hqn/ACErv/rs/wDM16efun6V5hqn/ISu/wDrs/8AM1+L+J3+5UP8X6Ht5X/El6FWiiiv5yPpQooooAKKKKACiiigAooooAKKKKACiiigAooooAKKKKACuX+Kn/JMfF//AGB7z/0Q9dRXL/FT/kmPi/8A7A95/wCiHrswX+9Uv8S/Mzn8LM74Ff8AJFfAP/YAsP8A0nSu5rhvgV/yRXwD/wBgCw/9J0rua2zP/fa3+J/mFP4EFFFFeaaBRRRQAUUUUAFFFFABRRRQAUUUUAFFFFABRRRQAUUUUAFFFFABRRRQAUUUUAFFFFABRRRQAUUUUAFeP/tbf8m/eKf96z/9LIa9grx/9rb/AJN+8U/71n/6WQ16+T/8jCj/AIkY1v4cvQ9fbvS0jd6WvNrfxJerNVsgooorIYUUUUAFFFFABRRRQAUUUUAFFFFABRRRQAUUUUAFFFFABRRRQAUUUUAFFFFABRRRQAUUUUAFFFFABRRRQAUUUUAFFFFACdzXj37Q3/IW+Ev/AGO1l/6Jnr2Hua8e/aG/5C3wl/7Hay/9Ez17uR/77H0l/wCksxrfAexUUUV4ct2bBRRRSAKKKKACiiigAooooAKKKKACiiigAooooAKKKKACiiigAooooAKKKKACiiigAooooAKKKKACiiigArxnxl/ydN8Of+wJqn84a9mrxnxl/wAnTfDn/sCap/OGvdyf+LU/69z/APSWc9bZeq/M9mooorwjoCiiigAooooAKKKKACiiigAooooAKKKKACkPelpD3qo/EgPTtH/5Bdp/1zX+Qq6O9UtH/wCQXaf9c1/kKujvX9yYH/daX+FfkfBVPiYtFFFd5AUUUUANP3T9K8w1T/kJXf8A12f+Zr08/dP0rzDVP+Qld/8AXZ/5mvxfxO/3Kh/i/Q9vK/4kvQq0UUV/OR9KFFFFABRRRQAUUUUAFFFFABRRRQAUUUUAFFFFABRRRQAVy/xU/wCSY+L/APsD3n/oh66iuX+Kn/JMfF//AGB7z/0Q9dmC/wB6pf4l+ZnP4WZ3wK/5Ir4B/wCwBYf+k6V3NcN8Cv8AkivgH/sAWH/pOldzW2Z/77W/xP8AMKfwIKKKK800CiiigAooooAKKKKACiiigAooooAKKKKACiiigAooooAKKKKACiiigAooooAKKKKACiiigAooooAK8f8A2tv+TfvFP+9Z/wDpZDXsFeP/ALWp/wCMfvFP+9Z/+lkFevk//Iwo/wCJGNb+FL0PX270tI3elrza38SXqzVbIKKKKyGFFFFABRRRQAUUUUAFFFFABRRRQAUUUmRQAtFJkUZFAC0UmRRkUALRSZFGRQAtFJkUZFAC0UmRS0AFFFFABRRRQAUUUUAFcrq3xU8GaBqM1hqfi3Q9OvoTiW1utRhilQkAgMpbIOCD+NdTXm/7PngTw34u8f8Axml1zQNM1iWHxHEkb39pHMyKbKEkAsDgZ5r7fhTIKXEGJnQqTcUlfT1OHF4h4eHMkav/AAuz4ef9D34b/wDBtB/8XR/wuz4ef9D34b/8G0H/AMXXrf8AwpX4ff8AQj+Hf/BXB/8AE1z/AI8+E/hfSfCOp3Hh/wCHfhu/1oRbLOKTTIBGsrEKskny58tCd7bQWKqwUM2Af1P/AIhjhP8An/L7keT/AGpP+U4T/hdnw8/6Hvw3/wCDaD/4uj/hdnw8/wCh78N/+DaD/wCLrzj4f+G9Cg+Ilzoks/hzU7aDTtKgVrz4c3pM7F7lGY7pcRSMFXdKwwx28fIa3Pi94P0+71rxV4a0XwpYaZHNHPpmnX1h4fsHiW6/strsI0plE0cu0MQyxkDKHOeh/wAQwwn/AD/l9yD+1J/ynVf8Lr+Hmf8Ake/Df/g2g/8Ai68p+O3xU8F6rqnwwax8W6HeJa+MLS4uGt9RhkEMQimBkchvlUEj5j0yPWu00Hwlo1t4T0XU/Dfhnwt4zsNa8RvbQ3usWEdmGhZnLeURDK3lmRZApPAULtG0rjpvF+o/Dnwn4Vt9ab4X6DcrNqWs6d5K2dupBsIb+Vmz5ZyH+wEYxx5vfHPZg/DrDYOsq0a7dk1suqsRPMpTXK4jP+F2fDz/AKHrw3/4NoP/AIqj/hdnw8/6Hvw3/wCDaD/4uuj8FeF/BniDxRqvh/V/hd4b0bUbOytdUjWG2guUktbh5kj3N5S7ZQ1vJuQBlGVw7ZOMvx5ovgDwN4yS0k8C6Ldxy6dF9nsl021VJbqe9itYAW8rcuXmUFskAZO0kVyf8Qxwjf8AHl9yL/tSf8pQ/wCF2fDz/oe/Df8A4NoP/i6P+F2fDz/oe/Df/g2g/wDi6m8OeC9Jv9c8c2uo+BfBmkXelmwWCC5tIJrKMyR7nZZhCjsrdBvVTuHTGCfVf+FK/D7/AKEfw7/4K4P/AIml/wAQwwn/AD/l9yD+1J/ynkn/AAuz4ef9D34b/wDBtB/8XR/wuz4e/wDQ9+G//Btb/wDxdet/8KV+H3/Qj+Hf/BXB/wDE0n/Clfh//wBCP4d/8FcH/wARR/xDHCf8/wCX3IP7Un/KcXo2uad4i02HUNKvrbU7Cbd5d1ZzLLE+GKnDKSDhgR+Bq9Xkf7MEEdr8MZ4YY1iij13VkSNFAVVF9NgAdgABivW6/Cc0wccvxtXCxd1Btfce/Sn7SCn3FoooryzUKKKKACiiigAooooAKKKKACiiigAooooAKKKKACiiigAooooAKKKKACiiigArxnxl/wAnTfDn/sCap/OGvZq8Z8Zf8nTfDn/sCap/OGvdyf8Ai1P+vc//AElnPW2XqvzPZqKKK8I6AooooAKKKKACiiigAooooAKKKKACiiigApD3paQ96qPxID07R/8AkF2n/XNf5Cro71S0f/kF2n/XNf5Cro71/cmB/wB1pf4V+R8FU+Ji0UUV3kBRRRQA0/dP0rzDVP8AkJXf/XZ/5mvTz90/SvMNU/5CV3/12f8Ama/F/E7/AHKh/i/Q9vK/4kvQq0UUV/OR9KFFFFABRRRQAUUUUAFFFFABRRRQAUUUUAFFFFABRRRQAVy/xU/5Jj4v/wCwPef+iHrqK5f4qf8AJMfF/wD2B7z/ANEPXZgv96pf4l+ZnP4WZ3wK/wCSK+Af+wBYf+k6V3NcN8Cv+SK+Af8AsAWH/pOldzW2Z/77W/xP8wp/AgooorzTQKKKKACiiigAooooAKKKKACiiigAooooAKKKKACiiigAooooAKKKKACiiigApP4qWk70Aec6/wDGaLSfGWo+GNP8I+KPFGpafBDcXR0KwWdIlmDGPcd45Oxu3Y1F/wALg1j/AKJL8Rv/AASr/wDHa2PgZ/yc18XP+wTof8rqvo3rX9HZNwNlONy+hiaqfNKKb17o+ar5hWp1JRj0Plr/AIXBrH/RJfiN/wCCRf8A45R/wuDWP+iS/Eb/AMEi/wDxyvqbmjmvZ/4h5kvaX3mP9pVz5Y/4XBq/X/hUvxG/8Eq//Ha4X44eJvE3xM+F+teG9M+FXj23vb025jku9H2xL5dxHIclXJ5VCOncV9wGit6HAeT4epGrBSvF3WpMswrSXKz5a/4XDrH/AEST4jf+CVf/AI7R/wALh1j/AKJL8Rv/AASr/wDHa+pvxo/GspeH2TSd3GX3j/tKv3Pln/hcGsf9Ek+I3/gkX/45R/wuDWP+iSfEb/wSL/8AHK+pqOan/iHuS9pfeP8AtKufLP8AwuDWP+iS/Eb/AMEq/wDx2tf4d/E21+Ik+uW0Wk6tod/o1wlteWOs26wzRu8YkXKhjwVYda+jvWvlvwH/AMl1+OP/AGG7P/0ggr5Hirg/LMpyueKwyfMmt33Z2YTG1a1VQkeldKPxrD1y7123uI10rT7a7hK/O005jIbngcGsz+0vGP8A0BbD/wADD/8AE1+Fqndbn1EaDkr3X3o6/wDGj8a5H+0/GX/QFsP/AAMP/wATR/afjL/oC2H/AIGH/wCJp+zfcv6tL+aP3o678aPxrkf7T8Zf9AWw/wDAw/8AxNH9p+Mv+gLYf+Bh/wDiaPZvuH1aX80fvR1340fjXI/2n4y/6Ath/wCBh/8AiaP7T8Zf9AWw/wDAw/8AxNHs33D6tL+aP3o63v8AjWwvhXUZFDCIYIz98V50NU8Y/wDQF0//AMDD/wDE1q2fxR8RaH468aQ6xcQnwxHfW+kafKI0U6deNp1tOiu2PmSaSd1UtyJAi8+YAv6Vwbw1hM+lWWKb921rPueNmNSpg1Hlad/O/wCR2X/CJ6l/zxH/AH0KP+ET1L/niP8AvoVynhX48ajqFlp6DRH1dLZdNtNSvI3kFw1xcQW8jyRwJCUaNBcozEyIQBJhTtAYb9piLywq+Gbt7ltGN2iCceW+qC4NsdKD7f8AXCUY3Y6HOO1fp/8AxDfJ/wCaf3r/ACPD/tOt5HVf8InqX/PEf99il/4RPUv+eI/76FZ1rD4g/wCFy3Ojv401iTSodKg1MWjW9jtZ2uZUaMsLbds2oo4YNz97PNZOs/tGf2X4Z8H6tF4de7k8R+Hk12K2F4E8rdPYQiHcU551AHdx/q+nPB/xDfJ/5p/ev8g/tOt5HT/8InqX/PEf99Cj/hE9S/54j/voVlH4u+IV1hdBbwpZ/wDCQtrLaSIxq7Gz2/YDerP53kb8FR5ZXyshvUcnK/4aJup4bn7F4VkurzS7OS51ayS6kaVJEuLmB4LXZAwnk8y0m27vKDZj5G47T/iG+T/zT+9f5C/tSt2R1P8Awiep/wDPEf8AfYpf+ET1L/niP++hXl158UvEl18S7PSG1vXbbSpp9ezHoelw3Nzi2k05YFKvBIQqi5mycdWGScCtvwj8cNWk0LTbOK0k8Q6zKuoXUkurk2EqW0N9LBCkqQ27gXBCFWTYoBifdtOAT/iG2T/zT+9f5D/tOt5Ha/8ACJ6l/wA8R/30KyJI2hkeNuGVtp+oNMuPjpeSWMmrWPhaU6FBeaZp9y2oXTWt9FNei1ZR9mMR4jW8i3BnVsq428ZPP63qXixdZvlh0exkhE7hGa7IJXccEjb19q/O+MeFsFkNGlPCN3k2ndr/ACPXy6vVxkpRlZW+X5nRc+tHPrXI/wBqeMv+gLYf+Bh/+Jo/tPxl/wBAWw/8DD/8TX5T7J90e99Wl/NH70dd+NH41yP9p+Mv+gLYf+Bh/wDiaP7T8Zf9AWw/8DD/APE0/ZvuH1aX80fvR19ITjrXI/2n4y/6Ath/4GH/AOJrM8Tax4uh8O6i8mmWlqiwOTPDdsXT5T8y/L1H17U1SbaVyo4SUpKPNHXzR6AW9K5X9lr/AJHj42f9jLD/AOkUFeZeC/HXji4aOK1tX1mDO0NNGQBj/ppxz9TXon7I811ceKvjLJeQLa3TeIoTJCr7wrfYoMjOK/YfDek6eZVdfs/qjyeIMDPBwUZyT16O59IVma/pdzrGkXFnaateaHcS7dl/YJC00WGB+UTRyJyBg7kPBPQ4I06K/o0+HPKrf4Jata61e6vF8VPGCaheQw2883kaSd8cRkMa4+wYGDNJ0Gfm56Cm658NPB99qN0914lvLTVpb9b66mi1RYZXa4UWSoVHyx+YkX2dXRVk4ZUcMWz6vXyPrOgW1r4s1SDUdL17VdLuLySGFrGKwMM90NXvGTfHPP8AMkdxqtrjcoBeEMRsBoA930X4NaDoemtpj3ep3enJcQzafazXrRDTUhJ8mC2aLYyxpuYAFicHaSVAApap8Ifh5rWrra38ZubuWW/uodPbWLgKHuo5Y7t44BLtG9biXJC8GRiME5rzTxba6LdSfB+e98PQvK+nNe28VnozSRWV0bzSpJJwsYkW2VV83MjNtUEguc86vwF0vWNOgSTTYdFsUvtHh1w2x0kW9xPJdPcMiXE6uSSpVCWKE8txQB6rr3g27/tCXWPC91p+j+IbiC3sbi+1Kymvo3tYTM8cQiWeIBg87tvznBIIPBXM1TwTps2i3mqfEO90u9uYrUw3GrW6S6ZBBbrKsysM3D+UyOiuJQ4ZSoIK4qf7Z8Tf+gV4T/8ABndf/I9cv8ZtN1qw+HviTxhqWoxS3Ph7Q59V0/RYYg1lDqEFu8izyFhunKSAFAwVV2q2zeoYAHWxfCfwvNpeuWz2st9Br/lNqUl5dy3LXYQAJlpGbAwABtxgYxjAx21cr4R8Hv4PlmgsdRkbw+6A22kTRhhZNnO2CTIIiweI23BeAhVQFrqqACiiigD5N/Zn/wCSc3n/AGHtX/8AS+avV68o/Zn/AOSc3n/Ye1f/ANL5q9Xr+LuJP+Rxiv8AG/zPtsN/Bh6BRRRXzZ1BRRRQAUUUUAFFFFABRRRQAUUUUAFFFFABRRRQAUUUUAFFFFABRRRQAUUUUAFeM+Mv+Tpvhz/2BNU/nDXs1eM+Mv8Ak6b4c/8AYE1T+cNe7k/8Wp/17n/6SznrbL1X5ns1FFFeEdAUUUUAFFFFABRRRQAUUUUAFFFFABRRRQAUh70tIe9VH4kB6do//ILtP+ua/wAhV0d6paP/AMgu0/65r/IVdHev7kwP+60v8K/I+CqfExaKKK7yAooooAafun6V5hqn/ISu/wDrs/8AM16efun6V5hqn/ISu/8Ars/8zX4v4nf7lQ/xfoe3lf8AEl6FWiiiv5yPpQooooAKKKKACiiigAooooAKKKKACiiigAooooAKKKKACuX+Kn/JMfF//YHvP/RD11Fcv8VP+SY+L/8AsD3n/oh67MF/vVL/ABL8zOfwszvgV/yRXwD/ANgCw/8ASdK7muG+BX/JFfAP/YAsP/SdK7mtsz/32t/if5hT+BBRRRXmmgUUUUAFFFFABRRRQAUUUUAFFFFABRRRQAUUUUAFFFFABRRRQAUUUUAFFFFABSUtJ/OgDjfgX/yc38Xf+wTof8rqvo3+GvnH4F/8nN/F3/sE6H/K6r6O/hr+0OG/+RRhv8C/I+IxP8afqcz4u1zU9JvdEi02OCQ3d35UiXUMvluu0kr5ybvJbALKzoVYpsypdTXO+CfGXirUvFHiyz1rTdKtdM0vUEiE8V+xa3iayglwQYgJPndjuJXAbGPlyei8Z6DqWvtpCWdykNpa3X2u7t3YqLwJG/lQMQCQhlMbsR2j24IY1wvw9+D7eC/Gep61F4O8G6f9uulmjm01Sk9kgto4WSM/Z14YozHBX/WN9T9KcxwUf7TF1e+Ir/TYvHXge0gmv3jsrqWPetvAkmpLiQfax5jMtnbYYFB+/wA7TuWvQtF/aE0aSz0CTUCzW154al8QXmq2NtPNaQiFYzKodEZSBuk/jyCgXBZgKx7L4S+NLbW9O1mSXRJL2yghmlhiupkivbww6h9oJJiJij87UnZcBziJc4Lcb2sfBW51rRdG0x9bjtrOHwvdeGNRRbQu88U8MSeZC+8CJlaIN8yuCCRgH5qAOq8RfE7w34V1Q6bqV/JFqA+zYtobWaZ2+0NMsAURocl2tpgAORs5xkZxZP2gPBEdqtx/aF9IphurhootGvZJoY7aXyrhpYlhLxeW/wAp3qpGR61lWfwb1y+8aweKfEPiq11HUUOn7obHSTawBbU3xAUNPIw3/buSWbBjOOGwtzQvgt/YvijVtY/tjzvt8Opw+R9l27Ptdys+d2852bdvTnOeOlAG+3xW8MDUls11CSVjLbwNcQ2k8lskk6q0MbzqhiRnDx4VmB/eR/31zf8AAniaTxh4XtNWlgW2edpVMSsWA2SMnXHfb+teZ6P+zbDouqWjRXuj3OnGWyur37ZoST3sk1tDBEPJnaTbFG4toyVMbsN0hV1JUp6f4J8Mnwf4ZtdINz9r8hpG87y9md8jP93J6bsde1AG56V8teA/+S7fHH/sN2f/AKQQ19S+lfLPgP8A5Lt8cf8AsN2X/pBDX51x7/yIqvrH8z0sv/3hHpa0vTpWJrXjLRfDxYahqEMEgGfL3Zf/AL5HNYWh/FrSNe1iS0h3QQxxGT7RcsI1Y5AAA98nr6V/KapTaukfcRwtecHUjB2XU7misr/hJtJ7anaf9/l/xpf+Em0r/oJ2n/f5f8ankl2MfZz7GpRWX/wk2lf9BO0/7/L/AI0f8JNpP/QTtP8Av8v+NUqcm7WD2c+xqUVs+HPFHhTWfE0/haJkfXLWwhv3jaMhZYZBw6N0fB25weN6Z+8M6nhfUPDfi/w9o+s2CR/Y9Wt0urQTAJI6OoI+XrnBFfrtHw2x1anGoq0Unr1/yPBlmdOLtys5D6+tbNzpvhDUNL8R2N5p/wBotvEZ3arG5ci4byI7fPX5T5cUY+TGCuepzXWjR9LYriGE7gWXBHIHU/qK4O9+IeiWfiZNB/4RHXri9kSaaFobFWjmhidEeVG38oDJHz/tivr8j4UzrIHN4WtB89r3T6HHiMZQxFueL0Fi8I+Bre9tLiKzvIRbm3YWsd5cC2ka3VFgklh3+XK6LHGAzqT+7Q5+RcSf8Iv4Da4M39k/vDrQ8RfflwNQCBBOF3YzgZ2gbc5bGea7b+x9KVN/kwBSCd2RjjqfpTP7P0UxtIFtiisULbhgEDJGfUCvrPY8Tf8AP2l9zOPmwvZmSupaAniCTXFhkGqSWq2Tz/NzCrs6rtzt+87HIGTmuMtvhh8NrV4GXTL2UW1v9kto5tQu5Et4BPDOIY0MhVEElvCQqgAbMdMivSm03RkjjkZLdUlICMWADZ6YPfNcfrXjrw3o+p3Gmpo2oalqEOonTDbWFqJHaX7LHdEjLD5RFKnPrkUex4m/5+0vuY+bC9mXmi8Ktrw1k2kn9pLdfbRPvk4m+zm23bc4/wBUSuMY5zjPNYl94J8BX7Sl7G8iWczfaY7e+uYUu1lnluJI51WQCVDLPK2x8qBI4ACswPR+G9a8M+J9NlvIIfsfkXLWlxb6hGYJoJ1AJjdGwQ21lYdiGUjIINbZ0vSFnEBigEx6R5G44GTx9CPzo9jxN/z9pfdIObC9mcrp+l+DtL8RJr1rYSRasv2vbP5kp/4+Whaf5S235jbQduNnGMtmjqnhXwVqsrSvDqFrM0s8rS2GoXVq585leZd0UinY7KGKD5d2Wxkk1e0zxh4YvJLf7VDDYR6hrFxo+ltIdxvZIVkMjAAfIMwXAG44IjU5y4FdW2k6SqBjDAFIJBJAHHWj2PE3/P2l9zFzYXszzHxd8P8Awj4ijDWXn6Pcfa7C6Zbd5haubSaF03WyuImbZAsYYqSoCEZ2KBevJFmu55F5VnLL+JNegW+k6TdKWhhgmUHBaMgjI7cVVWHSG1S8sWsXia1giuJJpIisJVzIAFc8Fh5ZJA6blz1FfM55wznefwhTxVaCUeyZ1YfFUMO24RZwvFLWh/wnHhuTxI2lwWHmRQ6sNEubwkBIrp7OO7iA/vK6SKu7I+cqMHORjavrulWeq3cBv7WJo5WQp5qjbg9Dz1r8l4g4RxPD9KFWrNS5nbS57WFxSxUnGCehZorL/wCEm0r/AKCdp/3+X/Gj/hJtK/6Cdp/3+X/GvhuSXY9L2c+xp8UyaJJozHIiyRsMFWGQR6EVn/8ACTaT/wBBO0/7/L/jR/wk2k/9BO1/7/L/AI0KMuw/Zz7M0I41jUBVCgdgK5j9ln/kePjZ/wBjLD/6RQV0NnqNtqCl7a4juFU4LROGA+pHeud/Za/5Hn42f9jJD/6RQ1+w+Gl/7SrX/k/VHhZrf2av3PoeiivKPjXqRtdf+H9ncX2sWmkX2p3MV+miyXEcssa2NwyhjB+9Ch1RiUwRgE8Zr+kT5c9XrzS3+Cfwp1i4vfI8H+Grya1uDFc+XZQs0UxCSFX44fDI3PPKn0rz6DxN4t0PR9Ta8g8UXFvdaNqkWhqlldTXLMl1L9kEgC7knaBocGXDkKS53BqyvBdjrum6lqsxg8VW3iy68TabPArw3i2U9o1vp6XbyjHkMNiXILP86soxhtoIB7hoeh+Bz4fuPCWkW2inR7i3lEuj2nlmJ4WZopMxjqhYOhOMZBFXte8QeF/Bd6l/rWq6Xoc93Gtuk+oXUdv5qxlmCKXIztLscD+9XhLWfjTR7d0sbPWrax+zwi7+y28olWBtbkN0Ygq7vN+yszDYPMwQU+bbXQWuj65qXijQZfBl9q9nZWsuoomoeMtOur9FjaK0+WPzJopyjOH2tM5JKybcpswAe16RrFhr+nQ6hpl7b6jYTjMV1aSrLFIASCVZSQeQeh7GovEljpmqeH9Ts9bSCXR7i2khvY7ogRNAykSBz2XaTn2rxnVvCtx4P1RrXWdQ8R3GlXUF1qf2rwvDdQ+Zqkk25w0drllVU2eVG7FWJl3+Y2DXIax4F8beOvhH8VH8WnxFceJm8PxwWWl2l7cQWz3R0aAzrFFCypMGuWkUqd67lIA5bIB9A+IviFoPhFrlNSupIvssEVxMIbeScokswhhG2NSd0kmVVQCW2tgfKayl+OXgExabI/i3S7c6jg28dzOIZMGIyguj4aMbMH5wv3lHVlB8n8aQw6fbeKoUg1A/bJfC91YtePKLqa3W/ij8vdORJvSQMW3nKmZc43V4R4qj1XT5LuGbxNLZXekabdWOm2p1GGyUSrZaXAXikSLdM32pLqLO/av2ZgHQISQD9CqWkpaAPk39mf8A5Jzef9h7V/8A0vmr1evKP2Z/+Sc3n/Ye1f8A9L5q9Xr+LuJP+Rxiv8b/ADPtsN/Bh6BRRRXzZ1BRRRQAUUUUAFFFFABRRRQAUUUUAFFFFABRRRQAUUUUAFFFFABRRRQAUUUUAFeM+Mv+Tpvhz/2BNU/nDXs1eM+Mv+Tpvhz/ANgTVP5w17uT/wAWp/17n/6SznrbL1X5ns1FFFeEdAUUUUAFFFFABRRRQAUUUUAFFFFABRRRQAUh70tIe9VH4kB6do//ACC7T/rmv8hV0d6paP8A8gu0/wCua/yFXR3r+5MD/utL/CvyPgqnxMWiiiu8gKKKKAGn7p+leYap/wAhK7/67P8AzNenn7p+leYap/yErv8A67P/ADNfi/id/uVD/F+h7eV/xJehVooor+cj6UKKKKACiiigAooooAKKKKACiiigAooooAKKKKACiiigArl/ip/yTHxf/wBge8/9EPXUVy/xU/5Jj4v/AOwPef8Aoh67MF/vVL/EvzM5/CzO+BX/ACRXwD/2ALD/ANJ0rua4b4Ff8kV8A/8AYAsP/SdK7mtsz/32t/if5hT+BBRRRXmmgUUUUAFFFFABRRRQAUUUUAFFFFABRRRQAUUUUAFFFFABRRRQAUUUUAFFFFABSd6WkJoA4v4F/wDJzXxd/wCwTof8rqvo7FfLfiP4JjWPGmo+J9M8Z+KfCeo6hbw292NBvkgjmWLcIywMZORvbv36VW/4Uvrv/RZPiR/4OI//AI1X9I5NxxlGDy+hhqsnzRik9OyPmq+ArVKspR6n1dRXyn/wpfXf+iyfEj/wcR//ABmj/hS2u/8ARZPiR/4OI/8A41Xs/wDEQsk/nf3Mw/s6ufVn1pO9fKf/AApfXf8AosnxI/8ABxH/APGq4P45eEfFnw1+FuteJNM+L3xAnvbI24jjutWQod9xHG2QIwTgOeh6gVvQ47yfE1Y0oSd5Oy0ZMsvrRV2fdPFGBXyl/wAKX13/AKLH8SP/AAcR/wDxql/4Uvrv/RZPiR/4OI//AI1WMvEDJYtpyenkyv7Or9j6sor5T/4Utrv/AEWT4kf+DiP/AOM0f8KW13/osnxI/wDBxH/8apf8RCyT+Z/cw/s6ufVhFfLPgP8A5Lt8cv8AsN2X/pBDUH/Cl9dH/NZPiR/4OI//AI1W78OfhfbfDmXXLhda1fxBqGs3KXV5f61Os08jJGI1BYIvG1R27V8fxXxflmbZXPC4aTc2107M7MJg6tGqpy2NLXPh/oPiBne806EzMdxmjGxycdSR1/GsDQfg3pWiaxJcswv7Zoygt7yNX2tkEHPtz2716EtGOa/C1Vmla59ZDGV6cHTjN8r6GF/wg/h7/oCWP/gOn+FL/wAIP4e/6Alj/wCA6f4Vu0VHtJdzH21Tu/vML/hB/D//AEBLH/wHT/Cj/hB/D/8A0BLD/wAB0/wrdo5qo1JJ3uL2s/5mU2+Fuo32p6xq+mC303UoEsLnw/eMR5ayxQOjxSKvIhdWMbgDO1yVwyqR5VpP7PHjGDS9CtNQtr17qbQ9J08y2NxpxTSZLZf3mZJ4ZJV2yEyo9vkls524DH2tdYvYkVVuZFVRgAGl/tu+/wCfqX/vqv6Dw/iTgaNGFN0ZXSS6Hy0srqSk3zHnmu/BHxo1/rEekzW9rp0V3JpmkFZgJYNOv2mk1CZT/CySXEO1PTT0/vV683hWa3+Jfh7UrO1ig0XT9CvtOxGVURs81m0SKg7bYH6DA2gcVh/21f8A/P3L/wB9Uv8Abl//AM/Un/fVdH/ETcB/z5l+Av7LqfzI871b4aeNdW8Ct4QHh9YoNO0bW9NS/e+hC3slxDJHbtEobKqwb5vM2lSRwRk1tax8C1k+LVpcWPh3TYfBaz6VdTWcUcSQNNBBqsckhhGAWAmsFzjJCr2Tjqv7bv8A/n6l/wC+qP7bv/8An6l/76o/4ibgP+fMvwD+y6n8yPHtQ/Z98R2fyppMt5pCPrVlZaJp7ab5NrDc6jNPExW7ikjSJ4WjVvKG9AijY3Re3sfglq1xrlvFqV3qTWUOrrdNqVpqr291Ki6La2nmNJEyNlpoZMjAzjOMEV1X9uX/APz9Sf8AfVH9t3//AD9S/wDfVH/ETcB/z5l+Af2XU/mR534q+DusrayWi+HLvxDDp9/fLp9+bqyuryeC4ht23XCXoMcwLrLCzuwmCQx7SwZjVDw/4G1nXta8UWVz4S0yXxCmv6I9x4htZkEOmSW2naXLKsZkJnKjEnlBQ24uRJsBJPqf9t3/APz9S/8AfVH9t3//AD9yf99Gj/iJuA/58y/AP7LqfzI5OP4b3c2n+BbeXw2mrT+DvFd0ZRdRxhpbOSG6WOaJpMK4xc20jAH70TgZZMVyvjH4U+OfE/g638Lx+G1ij0vTNZ08Xsl/DsvWuBiBowH3BWUfN5gUqTjkAmvVv7bv/wDn6l/76o/tu/8A+fqX/vqj/iJuA/58y/AP7LqfzINC0HTfhX408T3tvpQ0nw/qsNj9nh0mxeRDcRrKkrGKBDs+TyFyQM7QO1c74w8F6l448ReIPEFjpn9qaNdWehBdNvF8g6j9jvb6W4gZJgu35ZY2XeArEKCduSOi/tu//wCfqX/vqj+27/8A5+pf++qP+Im4D/nzL8A/sup/MjhfDvw81ePVtStm8LHwxZa543tfEMdtD5TpbW1tZ2jM0hiJjSSS4t9u0McmRiMgE10GveD9Du9bvp5tHspZZJnZ3eBCzEk8njqa2v7bvv8An6l/76qq0jSOXc7mY5JP86+D4t4uw/EFCnSoQcXF319D0sDhamEk5c2/Ywf+EH8Pf9ASx/8AAdP8KP8AhB/D3/QEsf8AwHT/AArdor8u9pLuez7ap3f3mF/wg/h7/oCWP/gOn+FJ/wAIP4f/AOgLY/8AgOn+Fb1FHtJdw9tU7v7ylpuj2WjxmOytYbSNm3FYUCAn1IHfAFYP7LX/ACPHxr/7GWH/ANIoa6rpiuU/Zb/5Hj42f9jLD/6RQ1+weGbcsyrNv7H6o8HNXemm+59D1TudLs767s7q4toprizkaS3lkQFomZWRmU9iVZl47E1cor+kj5cKKKKAPLvFXx0sPDPjy98Jppd/e6nb2Ed4G+yzpC7PIEVDMYvLC8j595GQV+8MVeh+Kzf8IfJr91pLWsVnrDaVqEIn8wwBbn7M0ykL8yqxVjnGEDHqMHjviB8Kb/VPjBF4istNm1KS4SwhN5NcBEtIUu42njA3AlPJWVghDAySA9eQi+HfFt5oPjnwnLoT2tlqessbW/keNlmgur2WS5kBV2KhLcpjeqnecc9QAezW+r2lxq11psc6vfWsUc80IByiSFwh9MExv/3zV+sKxXXf+Es1Zrl7X/hHvs9utiioRP54MhnLHOChBhC9DkPkYwTu0AR+WpkD7RuAwGxzg44z+FSUUUAFFFFAHyb+zP8A8k5vP+w9q/8A6XzV6vXlH7M//JObz/sPav8A+l81er1/F3En/I4xX+N/mfbYb+DD0CiiivmzqCiiigAooooAKKKKACiiigAooooAKKKKACiiigAooooAKKKKACiiigAooooAK8Z8Zf8AJ03w5/7Amqfzhr2avGfGX/J03w5/7Amqfzhr3cn/AItT/r3P/wBJZz1tl6r8z2aiiivCOgKKKKACiiigAooooAKKKKACiiigAooooAKQ96WkPeqj8SA9O0f/AJBdp/1zX+Qq6O9UtH/5Bdp/1zX+Qq6O9f3Jgf8AdaX+FfkfBVPiYtFFFd5AUUUUANP3T9K8w1T/AJCV3/12f+Zr08/dP0rzDVP+Qld/9dn/AJmvxfxO/wByof4v0Pbyv+JL0KtFFFfzkfShRRRQAUUUUAFFFFABRRRQAUUUUAFFFFABRRRQAUUUUAFcv8VP+SY+L/8AsD3n/oh66iuX+Kn/ACTHxf8A9ge8/wDRD12YL/eqX+JfmZz+Fmd8Cv8AkivgH/sAWH/pOldzXDfAr/kivgH/ALAFh/6TpXc1tmX++1v8T/MKfwRCiiivNNAooooAKKKKACiiigAooooAKKKKACiiigAooooAKKKKACiiigAooooAKKKKACiiigAooooAKKKKAE7mvIP2tv8Ak33xT/vWf/pZDXr/AHNeQftbf8m/eKf96z/9LIa9fKP+RhQ/xIyrfw5eh6+3elpG70tebV/iS9WaLZBRRRWQwooooAKKKKACiiigAooooAKKKKACiiigAooooAKKKKACiiigAooooAKKKKACiiigAooooAKKKKAEPauV/ZZ/5Hj42f8AYyw/+kUNdU1eH/Cv9oLwD8F/iX8X7Dxlr66Jd3uvRXFvG9tNL5kYs4Ru+RGGMgjn0r9f8NZRjmNXmdvd/VHj5mm6St3Psvn0o59K8F/4bq+B3/Q8xf8AgBdf/GqP+G6vgd/0PMX/AIAXX/xqv6Q9tT/mX3nzPK+x71z6Uc+leC/8N1fA7/oeYv8AwAuv/jVH/DdXwO/6HmL/AMALr/41R7an/MvvDlfY97orwT/hur4Hf9DzF/4AXX/xqmt+3Z8DVxu8dQjJwM2F1+X+qoVam9pL7w5X2PfPwo59K8F/4bq+B3/Q8xf+AF1/8ao/4bq+B3/Q8xf+AF1/8ao9tT/mX3hyvse9c+lHPpXgv/DdXwO/6HmL/wAALr/41R/w3V8Dv+h5i/8AAC6/+NUe2p/zL7w5X2PeufSjn0rwX/hur4Hf9DzF/wCAF1/8ao/4bq+B3/Q8xf8AgBd//GqPbU/5l94cr7HEfsz/APJObz/sPav/AOl81erDtXkP7LN5FqXwo+3W5Z7S81nVLiCRlK743vZirAEdCD3FevV/GfEbUs3xLX87/M+2w/8ABj6C0UUV84dAUUUUAFFFFABRRRQAUUUUAFFFFABRRRQAUUUUAFFFFABRRRQAUUUUAFFFFABXjPjL/k6b4c/9gTVP5w17NXjPjL/k6b4c/wDYE1T+cNe7k/8AFqf9e5/+ks562y9V+Z7NRRRXhHQFFFFABRRRQAUUUUAFFFFABRRRQAUUUUAFIe9LSHvVR+JAenaP/wAgu0/65r/IVdHeqej/APILtP8Armv8hVwd6/uTA/7rS/wr8j4Kp8TFooorvICiiigBreteX6p/yE7v/rq/8zXqB6Vy114KN1dTS/a9vmOW2+X0yc461+Zcc5Ljc5wtKlg4czjK71S6eZ6mArQoTbm7HH4oxXWf8IGf+f0f9+v/AK9H/CBn/n9/8hf/AF6/GP8AUPPv+fP/AJMv8z2/7Qw/835nJ4oxXWf8IGf+f3/yF/8AXo/4QM/8/v8A5C/+vT/1Dz//AJ8/+TL/ADD+0MP/ADfmcnijFdZ/wgZ/5/f/ACF/9ej/AIQM/wDP7/5C/wDr0f6h5/8A8+f/ACZf5h/aGH/m/M5PFGK6z/hAz/z+/wDkL/69H/CBn/n9/wDIX/16P9Q8/wD+fP8A5Mv8w/tDD/zfmcnijFdZ/wAIGf8An9/8hf8A16P+EDP/AD+/+Qv/AK9H+oef/wDPn/yZf5h/aGH/AJvzOTxRius/4QM/8/v/AJC/+vR/wgZ/5/f/ACF/9ej/AFDz/wD58/8Aky/zD+0MP/N+ZyeKMV1n/CBn/n9/8hf/AF6P+EDP/P7/AOQv/r0f6h5//wA+f/Jl/mH9oYf+b8zk8UYrrP8AhAz/AM/v/kL/AOvR/wAIGf8An9/8hf8A16P9Q8//AOfP/ky/zD+0MP8AzfmcnijFdZ/wgZ/5/f8AyF/9ej/hAz/z+j/v1/8AXo/1Dz//AJ8/+TL/ADD+0MP/ADfmcl6VzHxU/wCSY+L/APsD3n/oh69T/wCEDb/n9H/fr/69cn8XPBJt/hT40l+2Z2aLetjy+uIHPrXRheBs9p14TlR0TX2l39SJY/DuLVzhvgX/AMkV8A/9gCw/9J0ruqy/2fvBZu/gT8OZ/tYTzPDmnvt8vpm2jPrXoH/CBn/n9H/fr/69aY7gfPK2KqVIUdHJv4l39Qhj8OopNnJ4oxXWf8IGf+f3/wAhf/Xo/wCEDP8Az+/+Qv8A69cX+oef/wDPn/yZf5l/2hh/5vzOTxRius/4QM/8/v8A5C/+vR/wgZ/5/f8AyF/9en/qHn//AD5/8mX+Yf2hh/5vzOTxRius/wCEDP8Az+/+Qv8A69H/AAgZ/wCf3/yF/wDXo/1Dz/8A58/+TL/MP7Qw/wDN+ZyeKMV1n/CBn/n9/wDIX/16P+EDP/P7/wCQv/r0f6h5/wD8+f8AyZf5h/aGH/m/M5PFGK6z/hAz/wA/v/kL/wCvR/wgZ/5/f/IX/wBej/UPP/8Anz/5Mv8AMP7Qw/8AN+ZyeKMV1n/CBn/n9/8AIX/16P8AhAz/AM/v/kL/AOvR/qHn/wDz5/8AJl/mH9oYf+b8zk8UYrrP+EDP/P7/AOQv/r0f8IGf+f3/AMhf/Xo/1Dz/AP58/wDky/zD+0MP/N+ZyeKMV1n/AAgZ/wCf3/yF/wDXo/4QM/8AP7/5C/8Ar0f6h5//AM+f/Jl/mH9oYf8Am/M5PFGK6z/hAz/z+/8AkL/69H/CBn/n9/8AIX/16P8AUPP/APnz/wCTL/MP7Qw/835nJ4oxXWf8IGf+f3/yF/8AXo/4QM/8/v8A5C/+vR/qHn//AD5/8mX+Yf2hh/5vzOTxRius/wCEDP8Az+/+Qv8A69H/AAgZ/wCf3/yF/wDXo/1Dz/8A58/+TL/MP7Qw/wDN+ZyeKMV1n/CBn/n9/wDIX/16P+EDP/P7/wCQv/r0f6h5/wD8+f8AyZf5h/aGH/m/M5PFGK6z/hAz/wA/v/kL/wCvR/wgZ/5/f/IX/wBej/UPP/8Anz/5Mv8AMP7Qw/8AN+ZyeKMV1n/CBn/n9/8AIX/16P8AhAz/AM/v/kL/AOvR/qHn/wDz5/8AJl/mH9oYf+b8zk8UYrrP+EDP/P7/AOQv/r0f8IGf+f3/AMhf/Xo/1Dz/AP58/wDky/zD+0MP/N+ZydeP/tbf8m/eKf8Aes//AEshr6L/AOEDP/P7/wCQv/r14v8AtkeEDp/7OPi24+1eZtay+Xy8db2AevvXoZdwTneHxdKrUo6JpvVf5mVTHYeUHFM7xuppa6v/AIQM5P8Apo/79f8A16X/AIQM/wDP6P8Av3/9euGpwJn0ptqju/5l/maf2hh7fEcnijFdZ/wgZ/5/f/IX/wBej/hAz/z+/wDkL/69R/qHn/8Az5/8mX+Y/wC0MP8AzfmcnijFdZ/wgZ/5/f8AyF/9ej/hAz/z+/8AkL/69P8A1Dz/AP58/wDky/zD+0MP/N+ZyeKMV1n/AAgZ/wCf3/yF/wDXo/4QM/8AP7/5C/8Ar0f6h5//AM+f/Jl/mH9oYf8Am/M5PFGK6z/hAz/z+/8AkL/69H/CBn/n9/8AIX/16P8AUPP/APnz/wCTL/MP7Qw/835nJ4oxXWf8IGf+f3/yF/8AXo/4QM/8/v8A5C/+vR/qHn//AD5/8mX+Yf2hh/5vzOTxRius/wCEDP8Az+/+Qv8A69H/AAgZ/wCf3/yF/wDXo/1Dz/8A58/+TL/MP7Qw/wDN+ZyeKMV1n/CBn/n9/wDIX/16P+EDP/P7/wCQv/r0f6h5/wD8+f8AyZf5h/aGH/m/M5PFGK6z/hAz/wA/v/kL/wCvR/wgZ/5/f/IX/wBej/UPP/8Anz/5Mv8AMP7Qw/8AN+ZyeKMV1n/CBn/n9/8AIX/16P8AhAz/AM/v/kL/AOvR/qHn/wDz5/8AJl/mH9oYf+b8zk8UYrrP+EDP/P7/AOQv/r0f8IGf+f3/AMhf/Xo/1Dz/AP58/wDky/zD+0MP/N+ZyeKMV1n/AAgZ/wCf3/yF/wDXo/4QM/8AP7/5C/8Ar0f6h5//AM+f/Jl/mH9oYf8Am/M5PFGK6z/hAz/z+/8AkL/69H/CBn/n9/8AIX/16P8AUPP/APnz/wCTL/MP7Qw/835nJ4oxXWf8IGf+f3/yF/8AXo/4QM/8/v8A5C/+vR/qHn//AD5/8mX+Yf2hh/5vzOTxRius/wCEDP8Az+/+Qv8A69H/AAgZ/wCf3/yF/wDXo/1Dz/8A58/+TL/MP7Qw/wDN+ZyeKMV1n/CBn/n9/wDIX/16P+EDP/P6P+/X/wBej/UPP/8Anz/5Mv8AMP7Qw/8AN+ZydQtawyNueKNz6soJ/lXZf8IG3/P6P+/f/wBej/hAm/5/R/37/wDr1UeBuIIO8KVvSS/zF9fw/wDN+Bxn2G2/594v++BR9htv+feL/vgV2f8AwgJ/5/B/36/+vR/wgJ/5/B/36/8Ar1p/qXxJ/wA+3/4Ev8xfXsL3/A4z7Dbf8+8X/fAo+w23/PvF/wB8Cuz/AOEBP/P4P+/X/wBej/hAT/z+j/v1/wDXo/1L4k/59v8A8CX+YfXsN3/A4z7Dbf8APvF/3wK8f/aFtIF1b4TYhjGfGtkDhQP+WM/H0r6T/wCEDP8Az+j/AL9//XrxL9pXwibLWPg2v2rd5/juxi/1eMZguDnr7V6uWcI8QYfEqpVh7tn9pdmu5lUxmHlGyf4HdfYbb/n3i/74FH2G2/594v8AvgV2f/CAn/n9H/fr/wCvR/wgJ/5/B/36/wDr15b4L4kv/Df/AIEv8zX69hu/4HGfYbb/AJ94v++BR9htv+feL/vgV2f/AAgJ/wCfwf8Afr/69H/CAn/n8H/fr/69L/UviT/n2/8AwJf5h9ewvf8AA4z7Dbf8+8X/AHwKPsNt/wA+8X/fArs/+EBP/P4P+/X/ANej/hAT/wA/g/79f/Xo/wBS+JP+fb/8CX+YfXsN3/A5FI1jUKgCgdAoGKdXWf8ACBH/AJ/R/wB+v/r0f8IG3/P6P+/f/wBesZcCZ/J3dH/yZf5lf2hh/wCb8Dk8UYrrP+EDP/P7/wCQv/r0f8IGf+f3/wAhf/Xpf6h59/z5/wDJl/mH9oYf+b8zk8UYrrP+EDP/AD+/+Qv/AK9H/CBn/n9/8hf/AF6f+oef/wDPn/yZf5h/aGH/AJvzOTxRius/4QM/8/v/AJC/+vR/wgZ/5/f/ACF/9ej/AFDz/wD58/8Aky/zD+0MP/N+ZyeKMV1n/CBn/n9/8hf/AF6P+EDP/P7/AOQv/r0f6h5//wA+f/Jl/mH9oYf+b8zk8UYrrP8AhAz/AM/v/kL/AOvR/wAIGf8An9/8hf8A16P9Q8//AOfP/ky/zD+0MP8AzfmcnijFdZ/wgZ/5/f8AyF/9ej/hAz/z+/8AkL/69H+oef8A/Pn/AMmX+Yf2hh/5vzOTxRius/4QM/8AP7/5C/8Ar0f8IGf+f3/yF/8AXo/1Dz//AJ8/+TL/ADD+0MP/ADfmcnijFdZ/wgZ/5/f/ACF/9ej/AIQM/wDP7/5C/wDr0f6h5/8A8+f/ACZf5h/aGH/m/M5PFGK6z/hAz/z+/wDkL/69H/CBn/n9/wDIX/16P9Q8/wD+fP8A5Mv8w/tDD/zfmcnijFdZ/wAIGf8An9/8hf8A16P+EDP/AD+/+Qv/AK9H+oef/wDPn/yZf5h/aGH/AJvzOTxRius/4QM/8/v/AJC/+vR/wgZ/5/f/ACF/9ej/AFDz/wD58/8Aky/zD+0MP/N+ZyeKMV1n/CBn/n9/8hf/AF6P+EDP/P6P+/X/ANej/UPP/wDnz/5Mv8w/tDD/AM35nJV4z4y/5Ol+HP8A2BNU/nDX0n/wgZ/5/f8AyF/9evDvG3hEx/tcfDK0+1Z83QdWff5fTBh9++a9TLeC87w85yqUd4yW63aaXUxqY6hJJJ9Uei4oxXWf8IGf+f0f9+v/AK9H/CBn/n9/8hf/AF68r/UPPv8Anz/5Mv8AM2/tDD/zfmcnijFdZ/wgZ/5/f/IX/wBej/hAz/z+/wDkL/69P/UPP/8Anz/5Mv8AMP7Qw/8AN+ZyeKMV1n/CBn/n9/8AIX/16P8AhAz/AM/v/kL/AOvR/qHn/wDz5/8AJl/mH9oYf+b8zk8UYrrP+EDP/P7/AOQv/r0f8IGf+f3/AMhf/Xo/1Dz/AP58/wDky/zD+0MP/N+ZyeKMV1n/AAgZ/wCf3/yF/wDXo/4QM/8AP7/5C/8Ar0f6h5//AM+f/Jl/mH9oYf8Am/M5PFGK6z/hAz/z+/8AkL/69H/CBn/n9/8AIX/16P8AUPP/APnz/wCTL/MP7Qw/835nJ4oxXWf8IGf+f3/yF/8AXo/4QM/8/v8A5C/+vR/qHn//AD5/8mX+Yf2hh/5vzOTpD3rrf+EDP/P6P+/X/wBej/hAj/z+j/v1/wDXpx4Dz5NP2P8A5Mv8w/tDD/zfgdDo/wDyC7X/AK5L/IVc96hs7f7LaxQ53bFC5x1xxU9f1PhYSp0KcJbpI+Sk7ybQtFFFdZIUUUUANpKU1xfxa+Ip+F/hF9b+wf2ltmSHyPO8r7x67tp6fSolOMIuUtkZ1KkaUXOb0R2v40V8vf8ADbX/AFJ3/lS/+1Uf8Ns/9Sf/AOVL/wC1V5/9pYX+f8zyv7YwP/Pz8H/kfUVFfLv/AA2z/wBSf/5Uv/tVH/DbP/Un/wDlS/8AtVH9pYX+f8w/tjA/8/Pwf+R9RUV8u/8ADbP/AFJ//lS/+1Uf8Ns/9Sf/AOVL/wC1Uf2lhf5/zD+2MD/z8/B/5H1FRXy7/wANs/8AUn/+VL/7VR/w2z/1J/8A5Uv/ALVR/aWF/n/MP7YwP/Pz8H/kfUVFfLv/AA2z/wBSf/5Uv/tVH/DbP/Un/wDlS/8AtVH9pYX+f8w/tjA/8/Pwf+R9RUV8u/8ADbP/AFJ//lS/+1Uf8Ns/9Sf/AOVL/wC1Uf2lhf5/zD+2MD/z8/B/5H1FRXy7/wANs/8AUn/+VL/7VR/w2z/1J/8A5Uv/ALVR/aWF/n/MP7YwP/Pz8H/kfUVFfLv/AA2z/wBSf/5Uv/tVH/DbP/Un/wDlS/8AtVH9pYX+f8w/tjA/8/Pwf+R9RUV8u/8ADbP/AFJ//lS/+1Uf8Ns/9Sf/AOVL/wC1Uf2lhf5/zD+2MD/z8/B/5H1BXHfGbj4P+OfT+wr7/wBJ3rw//htg/wDQn/8AlS/+1VzvxH/bE/tv4e+KNO/4RPyftelXUHmf2jnbvhZc48rnrTWY4Vuyn+YLN8FJ2VT8Ge/fs4/8m+fDL/sWdN/9JY69Fr4t+Df7Xn/CM/CPwRpH/CK/aBYaJZWvnf2ht37IEXdjyjjOOnNdj/w2x/1J/wD5Uv8A7VQ8xw0XZz/MbzbBRbTqfgz6ipa+Xf8Ahtn/AKk//wAqX/2qj/htn/qT/wDypf8A2qp/tLC/z/mL+2MD/wA/Pwf+R9RUV8u/8Ns/9Sf/AOVL/wC1Uf8ADbP/AFJ//lS/+1U/7Swv8/5h/bGB/wCfn4P/ACPqKivl3/htn/qT/wDypf8A2qj/AIbZ/wCpP/8AKl/9qo/tLC/z/mH9sYH/AJ+fg/8AI+oqK+Xf+G2f+pP/APKl/wDaqP8Ahtn/AKk//wAqX/2qj+0sL/P+Yf2xgf8An5+D/wAj6ior5d/4bZ/6k/8A8qX/ANqo/wCG2f8AqT//ACpf/aqP7Swv8/5h/bGB/wCfn4P/ACPqKivl3/htn/qT/wDypf8A2qj/AIbZ/wCpP/8AKl/9qo/tLC/z/mH9sYH/AJ+fg/8AI+oqK+Xf+G2f+pP/APKl/wDaqP8Ahtn/AKk//wAqX/2qj+0sL/P+Yf2xgf8An5+D/wAj6ior5d/4bZ/6k/8A8qX/ANqo/wCG2f8AqT//ACpf/aqP7Swv8/5h/bGB/wCfn4P/ACPqKivl3/htn/qT/wDypf8A2qj/AIbZ/wCpP/8AKl/9qo/tLC/z/mH9sYH/AJ+fg/8AI+oqK+Xf+G2f+pP/APKl/wDaqP8Ahtn/AKk//wAqX/2qj+0sL/P+Yf2xgf8An5+D/wAj6ior5d/4bZ/6k/8A8qX/ANqo/wCG2f8AqT//ACpf/aqP7Swv8/5h/bGB/wCfn4P/ACPqKivl3/htn/qT/wDypf8A2qj/AIbZ/wCpP/8AKl/9qo/tLC/z/mH9sYH/AJ+fg/8AI+oqK+Xf+G2f+pP/APKl/wDaqP8Ahtn/AKk//wAqX/2qj+0sL/P+Yf2xgf8An5+D/wAj6ior5d/4bZ/6k/8A8qX/ANqo/wCG2f8AqT//ACpf/aqP7Swv8/5h/bGB/wCfn4P/ACPqKkr5e/4bZ/6k/wD8qX/2qj/htn/qT/8Aypf/AGqj+0sL/P8AmH9sYH/n5+D/AMj6g+teG/tt/wDJsnjH03WP/pdb1yP/AA2x/wBSd/5Uv/tVeW/tNftVHx18EvEeif8ACM/Yhctanz/t2/btuon6eWP7vrVRzDDSfKp/mVHNsFOSjGpq/Jn3pRXy5/w2xt/5k7/ypf8A2ql/4bZ/6k//AMqX/wBqqf7Swv8AP+ZP9sYH/n5+D/yPqKivl3/htn/qT/8Aypf/AGqj/htn/qT/APypf/aqP7Swv8/5h/bGB/5+fg/8j6ior5d/4bZ/6k//AMqX/wBqo/4bZ/6k/wD8qX/2qj+0sL/P+Yf2xgf+fn4P/I+oqK+Xf+G2f+pP/wDKl/8AaqP+G2f+pP8A/Kl/9qo/tLC/z/mH9sYH/n5+D/yPqKivl3/htn/qT/8Aypf/AGqj/htn/qT/APypf/aqP7Swv8/5h/bGB/5+fg/8j6ior5d/4bZ/6k//AMqX/wBqo/4bZ/6k/wD8qX/2qj+0sL/P+Yf2xgf+fn4P/I+oqK+Xf+G2f+pP/wDKl/8AaqP+G2f+pP8A/Kl/9qo/tLC/z/mH9sYH/n5+D/yPqKivl3/htn/qT/8Aypf/AGqj/htn/qT/APypf/aqP7Swv8/5h/bGB/5+fg/8j6ior5d/4bZ/6k//AMqX/wBqo/4bZ/6k/wD8qX/2qj+0sL/P+Yf2xgf+fn4P/I+oqK+Xf+G2f+pP/wDKl/8AaqP+G2f+pP8A/Kl/9qo/tLC/z/mH9sYH/n5+D/yPqKivl3/htn/qT/8Aypf/AGqj/htn/qT/APypf/aqP7Swv8/5h/bGB/5+fg/8j6ior5d/4bZ/6k//AMqX/wBqo/4bZ/6k/wD8qX/2qj+0sL/P+Yf2xgf+fn4P/I+oqK+Xf+G2f+pP/wDKl/8AaqP+G2f+pP8A/Kl/9qo/tLC/z/mH9sYH/n5+D/yPqKivl3/htn/qT/8Aypf/AGqj/htn/qT/APypf/aqP7Swv8/5h/bGB/5+fg/8j6ior5d/4bZ/6k//AMqX/wBqo/4bZ/6k/wD8qX/2qj+0sL/P+Yf2xgf+fn4P/I+oqK+Xf+G2f+pP/wDKl/8AaqP+G2f+pP8A/Kl/9qo/tLC/z/mH9sYH/n5+D/yPqKivl3/htn/qT/8Aypf/AGqj/htn/qT/APypf/aqP7Swv8/5h/bGB/5+fg/8j6ior5d/4bZ/6k//AMqX/wBqo/4bZ/6k/wD8qX/2ql/aWF/n/MP7YwP/AD8/B/5H1FSV8vf8Ns/9Sf8A+VL/AO1Uf8Ns/wDUn/8AlS/+1U/7Swv8/wCYf2xgf+fn4P8AyPqHFeD/ALUn/Ib+CP8A2UKw/wDSe5rlv+G2f+pP/wDKl/8Aaq8q+OX7VH/CVan8Mpf+EZ+zf2T4vtNRx9u3ebshnGz/AFYxnd156dKqOYYabtGf5lxzXB1Hyxqfmfe1FfL3/DbX/Unf+VL/AO1Uf8Ns/wDUn/8AlS/+1VP9pYX+f8yP7YwP/Pz8H/kfUVFfLv8Aw2z/ANSf/wCVL/7VR/w2z/1J/wD5Uv8A7VR/aWF/n/MP7YwP/Pz8H/kfUVFfLv8Aw2z/ANSf/wCVL/7VR/w2z/1J/wD5Uv8A7VS/tLC/z/mH9sYH/n5+D/yPqKivl3/htn/qT/8Aypf/AGqj/htn/qT/APypf/aqf9pYX+f8w/tjA/8APz8H/kfUVFfLv/DbP/Un/wDlS/8AtVH/AA2z/wBSf/5Uv/tVH9pYX+f8w/tjA/8APz8H/kfUVFfLv/DbP/Un/wDlS/8AtVH/AA2z/wBSf/5Uv/tVH9pYX+f8w/tjA/8APz8H/kfUVFfLv/DbP/Un/wDlS/8AtVH/AA2z/wBSf/5Uv/tVH9pYX+f8w/tjA/8APz8H/kfUVFfLv/DbP/Un/wDlS/8AtVH/AA2z/wBSf/5Uv/tVH9pYX+f8w/tjA/8APz8H/kfUVFfLv/DbP/Un/wDlS/8AtVH/AA2z/wBSf/5Uv/tVH9pYX+f8w/tjA/8APz8H/kfUVFfLv/DbP/Un/wDlS/8AtVH/AA2z/wBSf/5Uv/tVH9pYX+f8w/tjA/8APz8H/kfUVFfLv/DbP/Un/wDlS/8AtVH/AA2z/wBSf/5Uv/tVH9pYX+f8w/tjA/8APz8H/kfUVFfLv/DbP/Un/wDlS/8AtVH/AA2z/wBSf/5Uv/tVH9pYX+f8w/tjA/8APz8H/kfUVFfLv/DbP/Un/wDlS/8AtVH/AA2z/wBSf/5Uv/tVH9pYX+f8w/tjA/8APz8H/kfUVFfLv/DbP/Un/wDlS/8AtVH/AA2z/wBSf/5Uv/tVH9pYX+f8w/tjA/8APz8H/kfUVFfLv/DbP/Un/wDlS/8AtVH/AA2z/wBSf/5Uv/tVH9pYX+f8w/tjA/8APz8H/kfUVFfLv/DbP/Un/wDlS/8AtVH/AA2z/wBSf/5Uv/tVH9pYX+f8w/tjA/8APz8H/kfUH4V4J48P/GZXwr/7F3WP5wVzX/DbP/Un/wDlS/8AtVeUeKv2pjqH7R3gTxJ/wjRT+ztI1K2+zfb87/MMXzbvL4xt9O9VHMMNLaf5lxzXBz+Gp+Z980V8u/8ADbX/AFJ//lS/+1Uf8Ns/9Sf/AOVL/wC1VH9pYX+f8yP7YwP/AD8/B/5H1FRXy7/w2z/1J/8A5Uv/ALVR/wANs/8AUn/+VL/7VT/tLC/z/mH9sYH/AJ+fg/8AI+oqK+Xf+G2f+pP/APKl/wDaqP8Ahtn/AKk//wAqX/2qj+0sL/P+Yf2xgf8An5+D/wAj6ior5d/4bZ/6k/8A8qX/ANqo/wCG2f8AqT//ACpf/aqP7Swv8/5h/bGB/wCfn4P/ACPqKivl3/htn/qT/wDypf8A2qj/AIbZ/wCpP/8AKl/9qo/tLC/z/mH9sYH/AJ+fg/8AI+oqK+Xf+G2f+pP/APKl/wDaqP8Ahtn/AKk//wAqX/2qj+0sL/P+Yf2xgf8An5+D/wAj6ior5d/4bZ/6k/8A8qX/ANqo/wCG2f8AqT//ACpf/aqP7Swv8/5h/bGB/wCfn4P/ACPqKkr5e/4bZ/6k/wD8qX/2qj/htn/qT/8Aypf/AGqj+0sL/P8AmH9sYH/n5+D/AMj6gxRXi3wf/aMPxY8US6P/AGB/Znl2rXPnfbPNzhkXG3Yv979K9pU12Uq0K0eem7o9GhiKWJh7Sk7odRRRW50BRRRQAleL/taf8kjm/wCvyD+Zr2ivF/2tP+SRzf8AX5B/M1xYz/d5+jPPzD/dKnoz4looor85Px8KKKKACiiigAooooAKKKKACiiigAooooAKKKKACiiigArM8Uf8izq//XnN/wCizWnWZ4o/5FnV/wDrzm/9FmtafxxNqP8AEj6lbwN/yJPh/wD7B9v/AOihW5WH4G/5Enw//wBg+3/9FCtyqq/GysR/Fl6sKKKKwOcKKKKACiiigAooooAKKKKACiiigAooooAKKKKACiiigAooooAKKKKACiiigAooooAKKKKYBRRRQOzCuQ+LP/JP9V+sP/o6OuvrkPiz/wAk/wBV+sP/AKOjrpw/8SPqdWFX+0Q9Udg3WkoPWisJbnPJPmYUUUVJNmFFFFAgooopAFFFFABRRRQAUUUUAFFFFABRRRQAUUUUAFFFFABRRRQAUUUUAFFFFABRRRQAUUUUAFFFFMDnLz4ieHNPvJ7W41NEuIWMcieW52sOoJC9R9ah/wCFoeF/+gsn/fqT/wCJr7I/4J94/wCFaeN/+xxvf/RFtX1F+FfXU8oozgpNs++o8P4epTjNyeqPyV/4Wh4X/wCgsn/fqT/4mj/haHhf/oLJ/wB+pP8A4mv1q2+1GPatP7Fo/wAzN/8AV3DfzP8AA/JX/haHhf8A6Cyf9+pP/ia5vxl440PVp/DrWuoJKLTVYrmb5HXbGqOC3I5wSOnrX7HUcVcMppU3zKTNKeQ0KUlKMmfkr/ws/wAMf9BVP+/Un/xNH/Cz/DH/AEFU/wC/Un/xNfrVtHpRt9qj+xaPdmf+ruG/mf4H5K/8LP8ADH/QVT/v1J/8TR/ws/wx/wBBVP8Av1J/8TX61bfajaPSl/YtHuw/1dw38z/A/Jb/AIWd4X/6Cyf9+pP/AImtvSNZsteslvLC4W5tmYqJFBAyCQRgjqCD2r9Tq/KnRf8Aj+8S/wDYwal/6VyV52Py+nhaXPFs8bNMppYGh7SEm3c1aKKK+ePkwooooAKKKKACiiigAooooAKKKKACiiigAooooAKKKKACiiigAooooAKKKKACiiigArjdY/5Kl4e/68br+aV2VcbrH/JUvD3/AF43X80rqw/xS9H+R24X4pej/I7KiiiuU4gooooAKKKKACiiigAooooAKKKKACiiigAooooA9z/Y9/5Klef9guT/ANGRV9n18Yfse/8AJUrz/sFyf+jIq+z6+5yn/dvmfpuQ/wC5r1YtFFFe0fRhRRRQAleL/taf8kjm/wCvyD+Zr2ivF/2tP+SRzf8AX5B/M1xYz/d5+jPPzD/dKnoz4looor85Px8KKKKACiiigAooooAKKKKACiiigAooooAKKKKACiiigArM8Uf8izq//XnN/wCizWnWZ4o/5FnWP+vOb/0Wa1p/HE2o/wASPqVvA3/Ik+H/APsH2/8A6KFblYfgb/kSfD//AGD7f/0UK3Kqr8bKxH8WXqwooorA5wooooAKKKKACiiigAooooAKKKKACiiigAooooAKKKKACiiigAooooAKKKKACiiigDD8dXU1j4N1u4tpGgnitJHSRDhlYKSDn1Br6r8MfsI+Dta8N6VqE3jDxws13aRTuserRhQzICQMwnjJPevk/wCIn/Ih6/8A9eUv/oJr9RfAP/Ii+HP+wbb/APopa+syenCdOTkr6n3nD1KnUozc431Pn/8A4d++CP8AocvHf/g3i/8AjFH/AA798Ef9Dl47/wDBvF/8Yr6eo/GvoPY0v5UfV/VqP8i+4+Yf+Hfvgn/ocfHf/g2i/wDjFVr7/gnf4B1S1e2u/Ffje5t3xujk1WEqcEEZHkeoBr6nop+xpp6RQ1h6Kd1BfcfMP/Dv3wT/ANDj47/8G0X/AMYo/wCHfvgn/ocfHf8A4N4v/jFfT1FT7Gl/Kg+rUf5F9x8w/wDDv3wR/wBDl47/APBvF/8AGKP+Hfvgj/ocvHf/AIN4v/jFfT340fjT9jS/lQvq1H+RfcfCP7SX7J+gfBn4Q6p4u0PxX4uudTsbqxSOLUNSSWBhLdwxMGURAn5Xbv6fSvK6+w/27f8Ak2XxL/1+aZ/6cLevjz1+tfL5xCMHBRVj4niKnCnKnyK24UUUV82fHBRRRQAUUUUAFFdNafDLxbf2sNzbeGtUngmQPHLHaOyupGQQcdCCOnrU3/Cp/Gn/AEKmr/8AgFJ/hXR7Co9os6fq1dpNQf3HJ0V1n/CpvGn/AEKusf8AgFJ/hR/wqfxp38K6x/4BSf4UfV6v8rD6rX/kf3HJ0V1n/Cp/Gn/Qqav/AOAUn+FH/CpvGn/Qq6x/4BSf4UfV6v8AKw+q1/5H9xydFdZ/wqfxp38K6x/4BSf4Uf8ACp/Gn/Qqav8A+AUn+FH1er/Kw+q1/wCR/ccnRXWf8Km8af8AQq6x/wCAUn+FH/Cp/GnfwrrH/gFJ/hR9Xq/ysPqtf+R/ccnRXWf8Kn8af9Cpq/8A4BSf4Uf8Kn8af9CrrH/gFJ/hR9Xq/wArD6rX/kf3HJ0V1n/Cp/Gn/Qq6x/4BSf4Uf8Kn8aY/5FXV/wDwCk/wo9hV/lYfVa/8j+45Oius/wCFT+NP+hV1j/wCk/wrnNT0u70a/lsr+2ltLuMgSQzqUdMgEZB9iD9DUSpTjrJWInRqU1ecWkVqKKKyMQooooAKKKKa3A+of+Cff/JM/G//AGON7/6T21fUP8VfL3/BPr/kmfjf/scb3/0ntq+of4q/SqH8KPoj9nwv8CHohaKKK6DpCivHPjr8U9W8BtJbaRdaba3y6Nf6jax3kqE3M0VvLsWQMyiKBZPK3SlhlpI0HBYjlPAH7Rl94uk8TrbXmnarLpukm9gs9GuI9Vu5JA4XasEIRiDlV5GMsCSOaAPo6ivm+P47+LpPCtzNPbxpcslxDHqUelTW8HnRadfTTCMTMTviubMxlHXhQCeWIT6NiO6NCepANAD6KKKAE/ir8qdE/wCP7xN/2H9S/wDSuSv1W/iNflTof/H94m/7D+p/+lcleFnH+7r1Pl+If90XqjUooor4k/NwoorS0Tw3qviW4kg0nTrrUpo13PHaxGQqM9eO3NVGLk7JXZUYyk0oq7Zm0V1f/Cp/GnbwrrH/AIBSf4Uf8Kn8af8AQq6x/wCAUn+Fbewq/wArN/qtf+R/ccpRXVn4T+NO/hXWP/AKT/CgfCfxp28K6x/4BSf4Uewq/wArD6rX/kf3HKUV1f8Awqfxp/0Kusf+AUn+FB+E/jTv4V1j/wAApP8ACj6vV/lYfVa/8j+45SiurHwn8advCusf+AUn+FH/AAqfxp/0Kusf+AUn+FHsKv8AKw+q1/5H9xylFdWfhP407+FdY/8AAKT/AAoHwn8advCusf8AgFJ/hR7Cr/Kw+q1/5H9xylFdX/wqfxp/0Kusf+AUn+FKfhN407+FdY/8ApP8KPq9X+Vh9Vr/AMj+45Oius/4VP40/wChU1f/AMApP8KD8J/Gn/Qq6x/4BSf4UfV6v8rD6rX/AJH9xydFS3VrNY3U1tcRPBPC7RyRyKVZGBIII9eP0qKsHo7M5mmnZhRRSr94U4/Eio/Ejc+F/wAB/i78WvAmleLdETwdBpepo0kEd9fXSTBVdkIYLCQDlT0NdV/wyF8cvXwH/wCDG8/+R6+if2If+TWfAP8A17Tf+lMte5V97HL8M0m4H6pHKcHyr92fAf8AwyH8cvXwH/4Mrz/5Ho/4ZD+OXr4D/wDBlef/ACPX35+FH4VX9n4X+Qr+yMF/z7PgP/hkP45evgP/AMGN5/8AI9Zdz+xH8a7rxBZau03ggXNpFJEiDUrvaQ+Mk/6N22joa/Q/2oqo4HDxu1EuOV4SDvGB8Cf8Mg/HL18B/wDgxvP/AJHo/wCGQvjl6+A//Blef/I9ffn4UfhS/s/DfyEf2Tgv+fZ8B/8ADIfxy9fAf/gyvP8A5Ho/4ZC+OXr4D/8ABlef/I9ffn4UfhS/s/C/yB/ZOC/59n57a5+yz8a/D+i6hqlz/wAIO1vZW8lzKI9QuyxVFLMBmDrgHqa808N6q+ueH9M1F41ie7to52RSSFLKGIB7gZr9Lfid/wAk18Wf9gm7/wDRL1+Yvw//AORF8Pf9eEH/AKLFeJmmGpUIRdNWPms8wVDC0oyoxtqb9FFFfMnxgUUUUAFFFFABRRRQAUUUUAe5/se/8lSvP+wXJ/6Mir7Pr4w/Y9/5Klef9guT/wBGRV9n19zlP+7fM/Tch/3NerFooor2j6MKKKKAErxf9rT/AJJHN/1+QfzNe0V4v+1p/wAkjm/6/IP5muLGf7vP0Z5+Yf7pU9GfEtFFFfnJ+PhRRRQAUUUUAFFFFABRRRQAUUUUAFFFFABRRRQAUUUUAFZnij/kWdX/AOvOb/0Wa06zPFH/ACLOr/8AXnN/6LNa0/jibUf4kfUreBv+RJ8P/wDYPt//AEUK3Kw/A3/Ik+H/APsH2/8A6KFblVV+NlYj+LL1YUUUVgc4UUUUAFFFFABRRRQAUUUUAFFFFABRRRQAUUUUAFFFFABRRRQAUUUUAFFFFABRRRQBz3xE/wCRD1//AK8pf/QTX6i+Av8AkQ/Dv/YNtv8A0Utfl18RP+RD1/8A68pf/QTX6i+Av+RE8O/9g22/9FLX2GS/wpep+g8OfwJ+pv0UUV9GfXhRRRQAUUUUAFFFFAHz/wDt2Dd+zN4jBYKDe6WMnoP+Jhb88V8m2+mRuuTL5nshH+f0r6y/bt/5Nk8S/wDX5pn/AKcLevj1WKt8pIOe1fD8S0a1ZQjRqcr16HjYrH4HAYmnUx2GVaOujbX/AA5oXVjFlNrpEMdGJ5561D9hT/n5i/Oq8kzzY3sXI4GaZXyGHw2IpU1CdW79D57Ms3ynFYudahgkovZXa/BaFv7Cn/PzF+dH2FP+fmL86qUV0+yrf8/PwR5n9oZf/wBAi/8AApf5lv7Cn/PzF+dH2FP+fmL86qUU1SrX/ifggWPy/wD6BF/4FL/M+z/h38TrvRNZ8OeGdQtbZfDb6FpMdvqqkho76dJdkcuTjZIItqMAPnwpyZExe8I/tCQaj4G0fWNS0m7u7n+xrfWdbm0mJPs+lwyhyJHEkgdlxFIdsYkcBMkcqTi+DtT+G114HS31rxDYtJq2hWOm6hZy3qp5YhjbG0rhkcGRvmzkFVIwRmqen+Gvhfo/hsaFp3xGltNOm0iDQ79RfWzPfW0QdV3sY/lkKyOpePbkMehCsv6hRq01TinJXsfoFPE0HCLUkvmdenxmvrrWvEVn/YU+n2+leJLHRIrybyZ47xJ4rWQbQk+VYi5BViNoUoT825Fj+GHxpvfFmoXC+IdIl0CC91bUdM0pZIotu6zllSSOSVLiTdIVhkf7iKPLkALgBjUkuvhhJqWoXS+NYIY73VbLWHtY7yDyluLWOGNCvy7grJbxKV3fw8YJJPOePtP+H2v/AA1uPCOm+MbEQ3+vNqlzczamsU0UdxfNcXyxugyC0U1xEox0kwT1J29tS/mRp9Yofzr7zt/DvxB8RfFWS+vPB7afoujWcduFk17T5J57maa3juQuxJo/KQRTwHJLkmQjC7PmfP8AE7VtP16z0/Vbaz0uR5NLinhCtP5clwtwZUEgdRgGEAPjoCSpyMZmoa14Gk1i+1HR/iV/wjMl/FHFdxabc2rRSmNdiShZo32yBNq7lxkKoYHauKvl/CjzLAr4ut1jsmsTHEdQjYN9lSVYwxYFm3CZtxJySBz1ye2pfzIPrFD+dfebkP7RXhqbTY9Sex1aKwuoIrvTZhbxynUbeSaGFZoY43aQDdcw/JIqSEPwhwQGar8cJ7W60y0tPB2sSX0muDRb6yne0SW1JtvtCNnz9j74yrAqxAw4Yqy7a4/QfDfwp8P2NlYQeOoTYWEdrDZwefaJ5UcFxDPGGdIg0hzBGhZyx2g87mZj0eq6p8NtU1a41MeOIbS9l1K31RZoLyD91LFD5IChlI2tGWBDA/eJBBxg9tS/mQfWKH86+8zNF/aA1W88K+IJtS0uzsdatNRnXTVXeYL+xj1I2ZlHOfMQja6hjgtG3AkVR1tx8fPC+n3F498l5YaRbvexLrM0aG2nktEme5RFVjKCi285y0aqwjOwtkZ4/VdL+EmseE7HQZ/GESR2Oqy6vb3kV/Etwksty9xIm7btMbGRkKlfu4/iAaqknh34S3A1S3n8Z28ulagt+JdPFxaxri8EomXzEjEpUCaTarOQu4ddq7T21L+ZD+sUP51956DB8atLa3uhPpGq2eqxtbrBpEqwNc3f2h3WHyikrR/MY5MhnUoELOEXmvNrj9ozVG8dX+jX2peH/Aenw6pd2S3Xim3+ZPJsdNmETYuo0Mhe9m+ZXKlUXbn7x0bWy+G1vDIT8QojfCa1ntb6N7KF7V4C5V0WOFUJcSOrllO4NgYGMWPCqfDXwv4wuvEx+IP9qaxc3Nzdyy3t5bBWaeG0hZQsca4VUsYdo92yW4we2pfzIPrFD+dfeavhH47f2h9msNS0qe91FvtVw2oaZGkOntYQ3TQfb980o2xMu2TarOSpJTzAM1sQ/G7Smt5JrnRNcsN1g2rWkVxbRmW9sUaMS3MUaSM2IxNGzRuFlAYYjJ4qnqHiz4aatr9zqt54o064e60xtJmtnu4/JeBnLMCOuTkjrjB6Vy32T4d3EUaX3xNuL+S30xtGtZ3v7ZJbezd4mnjV0jBJlEESNI2WCoCpViWJ7al/MhfWKH86+87u1+N3he6jmummmt9IFneahb6vMqi1vLe0KC4liYMSVUuMEqA4BZNy4Y/Inxw26l8UtbvHDWLz+TIba6AEsWYYzscAkZHQ4J6Gvb/Eml/De80rw5oeneK9Lj0Kx10ag1rLex7LSzMUnmWcKgfNDIxCGJyQqytghURB4N8cdVs9a+Kuv3thcxXlnNIhjnhYMjDy0HBHB5BH4V89nUlVoRVKet/Jni5ri8LCkvaQVTXa9vyOP+wp/wA/MX50fYU/5+YvzqpRXxPsq3/Pz8EfK/2hl/8A0CL/AMCl/mW/sKf8/MX50fYU/wCfmL86qUUeyrf8/PwQf2hl/wD0CL/wKX+Zb+wp/wA/MX50GxT/AJ+ovzNVKKFSrf8APz8EH9oYD/oEX/gUv8z6h/4J/qE+G/jlQwf/AIrG95HT/j3tq+oK+Xv+Cff/ACTPxv8A9jje/wDpPbV9Q5r9Vw6aowv2R+jUGpUouKsrDqK8OuPjH4osdPn1uWHRZ9LfW9W0KCwhSUXSvaveCOZn3kOWFqN0QRcBmffxsqD4ifFbVLnQ/D1vp81nbX97DoOqvtuHj2mfVrOIqxByInV5F5HzAMOea6Tc9E8WfD5PE3ifTdUWb7CYbS4tJrm1Yx3WHC+WVcDojB2w2R8x4IJFcv4d+Eur6XeeKr+/n0/VbzVNOtdLjjupbiS3nji83fJOjMcF/OP7sEhduA3zGuX8WfEDXx4ktNG1C7jN7o+qXdvc3OkNLaQXsbaHcXSAx+YzRlWZfl3tyiOCMgL0nh/4geIdSzNa3OiWWiaPPpum3cWsPL9ou5Li3tZS6XBfCEC6VVVkkMrrt3JuDAAwLL9m688P+CtV0nTT4bkv7y5u7iGeHTpbBbc3K3aNvKySGYRx3roikKMKPqPfUXaoXrgYrxLwbbxax4F0jxxq3i7V7HXLq9jkuHW/na1ima5EZsBZh/KIB/0fATeSN2d/zVU8V/HLxN4b8J3nioW+iz6ZcHWLew07bL9oglsra9mV5pN+JA/2Iho1RDGZMbm25IB71RXjF58SfGuk3dxptzFoVxfzNo0trLFFMkUMd7dSQSRupkJkaIRFg4KB9wBVMZPafDXxRqniK312z1oWj6romqSaZPcWMbRQXGIopUkSNmdkykyZUu2GB5IoA7Eehr8f9c8Z3nhOfxK9t4fv9XLa9qZD24BjH+ly/eIJYY91r9gPpX5U6J/x/eJeP+Y/qX/pXJXjZpKMaKclfU+czyUIYeMpxuro8R0r46+Itc8WWEP2QCzMuGsbGINLKAM7dzHrn0I6V6j/AMLBve/hDXv+/Mf/AMXXQ3Ph3TLvUIL6Wwt3vYW3R3HlgSKcf3uuOe5rRr5itiKE7ctOx8XiMXhatuSjb5nG/wDCwL3/AKFDXv8AvzH/APF19A/sc/EiOx8UeJ77U9D1bS7a20xSGngVmmkaeNEijVSS0ju6qFHUkV5hXq3wAbQJtS12z8Q6uui2txaRNDeeckUkU8c8csUkZYFd6PGrjIIyoyCK1wNWn7ePu2+ZvllaisXD3Ledz6sb4sxxpHbyeFPEMevyztBHoLQQfaJNsYkaRZPO+zmMKwy/nYBITO8hay7z9oTw/bx3stvpOt6hBp2nJqupS29qgFhbma5hkaUO6ndE9pOHjUM/y/KrYOMRtS8FyX8OqSfFW4k1uGeSaK/a9tiEjeNY2txF5fliI7EfAXJdQxYmqtjY/Cux0vxHYjxuko1/R/7Hvp5L+EyurS3krzg7cCV5L+dmONuduFABB+09tS/mR+j/AFih/OvvO3k+M2jweIX06bTdUhs49SOkSaxJDGtnHd+WJFiJ3+YQysMOqFN3ylg3FZ9p+0J4ZuLFLuW01KyiureO70wTwxl9UiklhhjaFVdipaS5t02TCNgZV3KBkjLvr/4X6lZyW1x4vtXhk1hNadTexYMq7QEPH+rO0cdeTg1zWn+F/hTY6Oum/wDCfLJBBBbQWcguLSOS2NvNFNFKGSJfMkWSCJt0ocHZyDufce2pfzIPrFD+dfejutW+MN/Z6h4VtIvBOtxzarrT6Rd2959mjktSLOW5DK3nGOUFUU7o3ZcLICQ6hDu+NPHN34X8VeDdJt9CudTh16+ktJbqGSFVtlW3ll3EPIrE/u8nAPyq2MttU8Q+reBrptOuL74nSXuoWGsf2zDdyXttlZPsz2xhVPL2LEY5HG1VByxbduJNbniLxz8P/EWoaBeyeM7O0uNGvvt0DW93FhyYZImRwwbKMkrA4wc4IIo9tS/mQ/rFD+dfeavhn4taT4o1Kwggsr60stVR5NI1O6SMW2qKo3MYSrs2dgLgSKhZVZlDAEhnij4v6Z4V1nVbCbStUu4tHtIb/Vb61hjMFhbSebiV9zh2AEMhIjV2AXJGK4vwzJ8NfDFzofl+O4b3TvD6yJo2m3V1b+TYB1MY2lUDsUiZolLscIxzk/NWd4gufB/izxd4uuLz4g2tjoWu6ZZ6bPa2N7Bm4jjNx5qNvRimVmC7kIJDNyCFKntqX8yF9Yofzr7zvB8adMll1AW+h63cpa6jJo8ciW8ai7vklMZt4Q0gLH5S/mECJVVtzqVYK2++Onh3R9PW61a21LSMTzWM0Nzbq0kF6kayraMI2bMsiMDHs3LJlQrFnQNhXGqfDeTSEsoPHENnNDq8ut297DeQ+dBcSzSSvtypUqRLJHtZT8jEZzzWPfab8LNct5I9Y8djVWmuptQmeXUIYy948aRx3P7tVxJDHGqxYwEwGwXVWB7al/Mh/WKH86+89Is/ippV1NDatZ6hb6i+sDQmsZYV82O5Nv8AajuwxXYID5hYMePU8U3xR8UbXw34km0SPQta1q/t7BNUnXS7eOQRWzPIhc7pF3EGNv3aBnb+FW5x51pepeC7f40T+Mrrxnp11FBoFvpls0mooWnuBJKZ7iSJQEEmwQqHXqGcYAAFO17XPDmufErU9ct/iTb6FZXOhQaWJNNvIDNvWed3OJEcAhZF2sOQS1HtqX8yF9Yofzr7zup/jPoa3v8Ao9te3+jRzW1vc69apG1lbS3AiMCMS4kbcJ4TujRlUSAuygHHN337QEt0uhz6J4K1zUNN1LWTpC30ptIUdkadJPLV7gOSGgYZZVUjkE8Csn7H8L4UksrPx1Hp/h+aezuptEt7u3FvI9ssKxjcUMiqVt4Qyq4zsHTLbrv2r4Zw+G9H0e38cxW66TqTara3SXkBmWZpJXYHchQqfOdcFehHORmj21L+ZB9Yofzr7z4k+Lnji7s/it4ygXwrrc6w6zeRiWKKMo+JmAZTv6HHcd65P/hYF7/0KGvf9+Y//i69T+Id5DqHj7xJdW0qzW0+pXEscqNlXVpGIII9iPzrnq+CrVaXtJe5f5s/K69aj7Wf7u+r6s43/hYF7/0KGvf9+Y//AIulHxBvc/8AIn69/wB+Y/8A4uuxpV6iojUp3XufizKNWipL9317s+zv2Hzn9lfwAcY/0Wbg/wDXxLXuZ714b+xD/wAms+Af+vWb/wBKZa9xPev0WOyP2CPwodXhn7U3i7VvB+haBd6bc3kEBvQLlbNrlGfLIIhvhtpsYmaJmDFdyLIgVy/HudcZ8QPhjp/xGk0s6leXsUOnzLOlvA0flu6yxSBmDI3zfuimRghZZAPvZFFHi3wn8XeJ9W+JF1HqrXesXf2ho7CWbWbuztFSPStPllDWvkqG3S3TMDIm5SzcKUGeT+J/jrU7G00O1j8bw+Epxd3CtDq+v37My2moyQyxrLEieYh8sqGkBkKsAx4zX0h4Z+Eei+EbrRptPkulGki8SBJHVsrcNH8rHbkiNIo405yFQA7sZrLX9n3wpHq19qMQv4bq8N1JI6XbfLNcTGaSUZ/iDdFOVAA+WgDjvE3jzxBonwt8P6xBrsFro2paEZf7VTTbnUM3DRb4vnMqTKZlb5N0Zw6hCxZ0DWP2X/EHiTxPo1xf6nqs+oWH2W1SVL63kjnivvIj81F3zyNsChGzhVkMhdPlbc/azfBnQ5NA0nTI7i/ibStLj0mxvPNSWS2iVPLMiJIjRCV0yjSeXu2kgECt3QfAej+G7u1urC3eK6gsI9NMolYedDGFCeYoO12ULgMwJAZgCASKAOjooooA5j4nf8k18Wf9gi6/9EvX5ifD/wD5EXw9/wBeEH/osV+nfxP/AOSa+LP+wRd/+iXr8xPh/wD8iL4e/wCvCD/0WK+bzr+HH1Pj+JP4MPU36KKK+QPz8KKKKACiiigAooooAKKKKAPc/wBj3/kqV5/2C5P/AEZFX2fXxh+x7/yVK8/7Bcn/AKMir7Pr7nKf92+Z+m5D/ua9WLRRRXtH0YUUUUAJXi/7Wn/JI5v+vyD+Zr2ivF/2tP8Akkc3/X5B/M1xYz/d5+jPPzD/AHSp6M+JaKKK/OT8fCiiigAooooAKKKKACiiigAooooAKKKKACiiigAooooAKzPFH/Is6v8A9ec3/os1p1meKP8AkWdX/wCvOb/0Wa1p/HE2o/xI+pW8Df8AIk+H/wDsH2//AKKFblYfgb/kSfD/AP2D7f8A9FCtyqq/GysR/Fl6sKKKKwOcKKKKACiiigAooooAKKKKACiiigAooooAKKKKACiiigAooooAKKKKACiiigAooooA574if8iHr/8A15S/+gmv1E8A/wDIi+Hcf9A22/8ARS1+aepabb6vp9xZXSeZb3CNHIoYglSMEZB9D2NZv/CLR9tX170/5Dd3/wDHK9/L8fTwsHGZ9TlOaUcDTlCrfVn6u7qN1flH/wAIrH/0F9e/8HV3/wDHKP8AhFk/6C+vf+Du7/8Ajlet/bGH7M9//WHC9mfq5SHFflIPCsf/AEF9e/8AB1d//HK57x/p03h/wjf6hZ6zrqXMJj2s2s3TD5pUU8eZ6E1cM2oTkopMunn2GqSUIp6n6+5ozX5SHwtH/wBBfXv/AAdXf/xyk/4RaP8A6C+vf+Dq7/8AjlQ84oJ7Mh8QYVPZn6ubqN1flH/wisf/AEF9e/8AB1d//HKP+EWj/wCgvr3/AIOrv/45R/bGH7MP9YcL2Z9uft3H/jGPxKe32zTP/Thb18e9zWBceC7O8RY7q91e8hV1k8m61W5ljLKwZSVaTBwQDyOwrfrw8wxlPFOLh0Pmc4zCljnD2d9Aooorxj50KKKKACiiigAooopjuwooooC7CiiigLsKKKKAuwooooC7CiiigLsKKKKAuwooooEFFFFIAooooAKKKKa3A+of+CfX/JM/G/8A2ON7/wCk9tX1D/FXy9/wT7/5Jn43/wCxxvf/AEntq+of4q/SqH8KPoj9nwv8CHojj/C/ws8O+FriW7i0y0udTe/vtQGozW0ZuFe6nllcB9ucASlAeu0AGpofhX4Lt7GWyj8I6GlnMixyQDTofLdFcOiFduCqsqsB0BVcdBXV0V0HSYNr4G8O2FukFvoGmQwrLJOqJaRgeY8Zjd+n3mQlS3UqSDkUybwD4auNVtdTk8P6ZJqNqIxBdNaR+ZH5eRHtbHGzJ2/3cnGMmuhooA51fh74XXXjrY8OaUNYMvnm/FlH53m7dvmb8Z3beN3XHGaY/wAOfCk15e3UnhnSJLi9SWO6kexiJnWUYlD/AC/MHHDZ+9xnNdLRQBnS6DplxcCeXTrSSdREBI8CFgImLxDOOiMzMvoSSMZqe0060sJLqS2tYbZ7qXz52hjCGaTaq73IHzNtVRk84UDtVqigBP4q/KnRP+P7xN/2H9S/9K5K/Vb+Kvyp0T/j+8Tf9h/Uv/SuSvCzj/d16ny/EP8Aui9UalFFFfEn5uFFFFABRRRTHdhRRRQF2FFFFAXYUUUUBdhRRRQF2FFFFAXYUUUUBdhRRRSEFKv3l+tJRVRdnccXZpnvH7Kf7U/wp8A/s/eDvD/iDxnZaZrFjbypcWskcrNGxmkYA4Ujow7163/w2x8Ef+ihad/35n/+Ir4szRX08c6srcn4n20eJOVJez/E+0/+G2vgh/0ULT/+/U3/AMRR/wANtfBD/ooWn/8Afqb/AOIr4sop/wBuf3PxK/1k/wCnf4n2n/w2x8EP+ihad/36n/8AjdJ/w218ER/zULT/APvzP/8AG6+La47WCf8AhaXh0Z/5cbr+aVpTzj2jtyfibUuIPatr2fRvfsfoJ/w2x8D/APooWnf9+Z//AI3R/wANsfA//ooWnf8Afqf/AON18WUVn/bf9z8TD/WX/p3+J9p/8NtfBD/ooWn/APfqb/4ij/htr4If9FC0/wD79Tf/ABFfFlFH9uf3PxH/AKyf9O/xPrTx5+2R8GdY8D+IbC08fafNd3WnXEEMflzDc7RMqjJTHJIHJr4s8AceBfD4Ix/oEA/8hrW/RXm43MPrkVHltY8bMs1+vwjDltYKKKK8c+fCiiigAooooAKKKKACiiigD3P9j3/kqV5/2C5P/RkVfZ9fGH7Hv/JUrz/sFyf+jIq+z6+5yn/dvmfpuQ/7mvVi0UUV7R9GFFFFACV4v+1p/wAkjm/6/IP5mvaK8X/a0/5JHN/1+QfzNcWM/wB3n6M8/MP90qejPiWiiivzk/HwooooAKKKKACiiigAooooAKKKKACiiigAooooAKKKKACszxR/yLOr/wDXnN/6LNadZnij/kWdY/685v8A0Wa1p/HE2o/xI+pW8Df8iT4f/wCwfb/+ihW5WH4G/wCRJ8P/APYPt/8A0UK3Kqr8bKxH8WXqwooorA5wooooAKKKKACiiigAooooAKKKKACiiigAooooAKKKKACiiigAooooAKKKKACiiigAooooAKKKKACuQ+LP/JP9V+sP/o6Ouvrkfi1/yT7VfrD/AOjkrpw/8WPqdeF/3iHqjr260lK3WkrGW5zS+JhRRRUEhRRRQAUUUUAFFFFABRRRQAUUUUAFFFFABRRRQAUUUUAFFFFABRRRQAUUUUAFFFFABRRRQAUUUUAFFFFMDe+D/wAbvH/wN0zXtI0LQ/DurafqOrzaqs2oXU6SqZEjTbhExwIx3zya77/htn4sf9Cj4P8A/A66/wDiK8jo/wA969iOaYiMVFW0PoYZ5i4RUVbTyPXP+G2fix/0KPg//wADrr/4ij/htn4sf9Cj4P8A/A66/wDiK8j4/wA5o/z3qv7WxPkX/rBjO6+49c/4bY+LH/QoeD//AAOuv/iKzdX/AG9vihosmnpceD/CRN9dLaRbL25I3kMRnK9MKelea/571x/xC/4+vCXH/Mch/wDQJK2o5piKk7No6MPnmLqVFF2+7yPoz/htr4s/9Cj4P/8AA66/+Io/4bZ+LH/Qo+D/APwOuv8A4ivI6P8APesf7WxPkc/+sGM7r7j1z/htn4sf9Cj4P/8AA66/+Io/4bZ+LH/Qo+D/APwOuv8A4ivI/wDPej/Pej+1sT5B/rBjO6+49bP7bPxY/wChQ8H/APgddf8AxFeH+HrW9t4b+XUEhju72/ur547d2dE86ZpNoYqCcbu47Vq0Vy4jHVcTDkqM4sXmmIxkFTq2sFFFFeceQFFFFABRRRQAUUUUAFFFFABRRRQAUUUUAFFFFABRRRQAUUUUAFFFFABRRRQAUUUUAFcbrH/JUvD3/XjdfzSuyrjdY/5Kl4e/68br+aV1Yf4n6P8AI7cL8UvR/kdlRRRXKcQUUUUAFFFFABRRRQAUUUUAFFFFABRRRQAUUUUAe5/se/8AJUrz/sFyf+jIq+z6+MP2Pf8AkqV5/wBguT/0ZFX2fX3OU/7t8z9NyH/c16sWiiivaPowooooASvF/wBrT/kkc3/X5B/M17RXi/7Wn/JI5v8Ar8g/ma4sZ/u8/Rnn5h/ulT0Z8S0UUV+cn4+FFFFABRRRQAUUUUAFFFFABRRRQAUUUUAFFFFABRRRQAVmeKP+RZ1f/rzm/wDRZrTrM8Uf8izq/wD15zf+izWtP44m1H+JH1K3gb/kSfD/AP2D7f8A9FCtysPwN/yJPh//ALB9v/6KFblVV+NlYj+LL1YUUUVgc4UUUUAFFFFABRRRQAUUUUAFFFFABRRRQAUUUUAFFFFABRRRQAUUUUAFFFFABRRRQAUUUUAFFFFABXIfFn/kn+q/WH/0dHXX1yHxZ/5J/qv1h/8AR0ddOH/ix9Trwv8AvEPVHYN1pKVutJWMtzml8TCiiioJCiiigAooooAKKKKACiiigAooooAKKKKACiiigAooooAKKKKACiiigAooooAKKKKACiiigAooooAKKKKACiiigAooooAK4/4if8fXhL/sOQ/+gSV2Fcf8RP8Aj68Jf9hyH/0CSurDfxEdmE/jL0f5HYUUUVzHI9wooopCCiiigAooooAKKKKACiiigAooooAKKKKACiiigAooooAKKKKACiiigAooooAKKKKACiiigAooooAK43WP+SpeHv8Arxuv5pXZVxusf8lS8Pf9eN1/NK6sP8T9H+R24X4pej/I7KiiiuU4gooooAKKKKACiiigAooooAKKKKACiiigAooooA9z/Y9/5Klef9guT/0ZFX2fXxh+x7/yVK8/7Bcn/oyKvs+vucp/3b5n6bkP+5r1YtFFFe0fRhRRRQAleL/taf8AJI5v+vyD+Zr2ivF/2tP+SRzf9fkH8zXFjP8Ad5+jPPzD/dKnoz4looor85Px8KKKKACiiigAooooAKKKKACiiigAooooAKKKKACiiigArM8Uf8izq/8A15zf+izWnWZ4o/5FnV/+vOb/ANFmtafxxNqP8SPqVvA3/Ik+H/8AsH2//ooVuVh+Bv8AkSfD/wD2D7f/ANFCtyqq/GysR/Fl6sKKKKwOcKKKKACiiigAooooAKKKKACiiigAooooAKKKKACiiigAooooAKKKKACiiigAooooAKKKKACiiigArkPiz/yT/VfrD/6Ojrr65H4tf8k+1X6w/wDo6OunD/xY+p14X/eIeqOvbrSUrdaSsZbnNL4mFFFFQSFFFFABRRRQAUUUUAFFFFABRRRQAUUUUAFFFFABRRRQAUUUUAFFFFABRRRQAUUUUAFFFFABRRRQAUUUUAFFFFABRRRQAVx/xD/4+PCX/Ych/wDRcldhXH/EP/j48Jf9hyH/ANAkrqw38RHZhP4y9H+R2FFFFcxyPcKKKKQgooooAKKKKACiiigAooooAKKKKACiiigAooooAKKKKACiiigAooooAKKKKACiiigAooooAKKKKACuN1j/AJKl4e/68br+aV2VcbrH/JUvD3/XjdfzSurD/E/R/kduF+KXo/yOyooorlOIKKKKACiiigAooooAKKKKACiiigAooooAKKKKAPc/2Pf+SpXn/YLk/wDRkVfZ9fGH7Hv/ACVK8/7Bcn/oyKvs+vucp/3b5n6bkP8Aua9WLRRRXtH0YUUUUAJXi/7Wn/JI5v8Ar8g/ma9orxf9rT/kkc3/AF+QfzNcWM/3efozz8w/3Sp6M+JaKKK/OT8fCiiigAooooAKKKKACiiigAooooAKKKKACiiigAooooAKzPFH/Is6v/15zf8Aos1p1meKP+RZ1j/rzm/9FmtafxxNqP8AEj6lbwN/yJPh/wD7B9v/AOihW5WH4G/5Enw//wBg+3/9FCtyqq/GysR/Fl6sKKKKwOcKKKKACiiigAooooAKKKKACiiigAooooAKKKKACiiigAooooAKKKKACiiigAooooAKKKKYBRRRQAVyHxZ/5J/qv1h/9HR119cj8Wv+Sfar9Yf/AEcldOH/AIsfU68L/vEPVHXt1pKVutJWEtzml8TCiiipJCiiigAooopAFFFFABRRRQAUUUUAFFFFABRRRQAUUUUAFFFFABRRRQAUUUUAFFFFABRRRQAUUUUwCiiiizHZ9goooosws+wUUUUWYWfYK4/4h/8AH14S/wCw5D/6BJXYVx/xD/4+fCX/AGHIf/QJK6sMn7RHbhE/ar0f5HYUUUVzWZxtPsFFFFKzFZ9goooosws+wUUUUWYWYUUUUhBRRRQAUUUUAFFFFABRRRQAUUUUAFFFFABRRRQAUUUUAFFFFABRRRQAUUUUAFcbrH/JUvD3/XjdfzSuyrjdY/5Kl4e/68br+aV1Yf4n6P8AI7cL8UvR/kdlRRRXKcQUUUUAFFFFABRRRQAUUUUAFFFFABRRRQAUUUUAe5/se/8AJUrz/sFyf+jIq+z6+MP2Pf8AkqV5/wBguT/0ZFX2fX3OU/7t8z9NyH/c16sWiiivaPowooooASvF/wBrT/kkc3/X5B/M17RXi/7Wn/JI5v8Ar8g/ma4sZ/u8/Rnn5h/ulT0Z8S0UUV+cn4+FFFFABRRRQAUUUUAFFFFABRRRQAUUUUAFFFFABRRRQAVmeKP+RZ1f/rzm/wDRZrTrM8Uf8izq/wD15zf+izWtP44m1H+JH1K3gb/kSfD/AP2D7f8A9FCtysPwN/yJPh//ALB9v/6KFblVV+NlYj+LL1YUUUVgc4UUUUAFFFFABRRRQAUUUUAFFFFABRRRQAUUUUAFFFFABRRRQAUUUUAFFFFABW18GvhDJ8dfilr+hTeKNT8O2mm6Vb3qf2ckTb2eWRWDB0PYDoe35Ytev/sQ/wDJevG3/YvWf/pRLXsZXCNTEWkuh9DkdOFTFcs1fRnWf8O/Lb/oqHib/vxa/wDxuj/h35bf9FQ8Tf8Afi1/+N19cVALqHcFEyEkMQAwz8pAb8iQD9a+x+rUf5F9x+h/U8P/AM+19x8nf8O/Lb/oqHib/vxa/wDxuj/h35bf9FQ8Tf8Afi1/+N19YzXEUEMk0kqRwopZpGYBVUDJJPYe9T0fVqP8i+4PqeH/AOfa+4+R/wDh37bf9FQ8Tf8AgPa//G6raj/wTr03VrOS0vPiV4kuLeTG6OS3tSGwQRn936gV9gUhprD0k78qGsJh4u6gvuPkj/h33bd/ij4n/wC/Fr/8bp3/AA77tv8AoqHib/wHtf8A43X1tSfhS+rUf5F9wvqeG/59r7j5K/4d923/AEVDxN/34tf/AI3R/wAO+7b/AKKh4m/78Wv/AMbr6220Yo+rUf5F9wfU8P8A8+19x8k/8O+7b/oqHib/AMB7X/43Sf8ADvu2/wCioeJv/Ae1/wDjdfW9FH1aj/IvuD6nh/8An2vuPyzk0Ofwn428beGpdTudXi0TWHsYbq7VBK6CKNsttUDqx6DvVqrnjb/kt3xY/wCxlm/9Ew1Tr4XHRUcRNR2Py/M4xhi6kYqyuFFFFcB5YUUUUAFFFFABRRRQAUUUUAFFFFABRRRQAUUUUAFFFFABRRRQAUUUUAFYfiqyj1T+xLCcyC2vNZsbWYRSNGzRyXCI6hlORlSeh71uVl6x/wAhLwv/ANjBpv8A6VR12YPWvC/c9DL0niqafdH2d/wwP8Hv+gTq/wD4Prz/AOO0n/DA3we/6BOr/wDg+vP/AI7X0TSV+h+zj2P1v2VP+VHzx/wwP8Hf+gTrH/g+vP8A47Sf8MDfB7/oE6v/AOD68/8Ajte+y6tZQSOkl5bxusiQsrSKCJHxsU8/ebIwOpyKbpms6frUTy6ffW1/EjbGe1lWVVbGdpKk4PI496PZx7IPZU/5UeCf8MDfB7/oE6v/AOD68/8AjtL/AMMD/B3/AKBOsf8Ag+vP/jte/wBlfW2oxNLaXEVzEskkLPC4dQ6OUdSR3V1ZSOoKkdqsUezj2D2VP+VHzx/wwP8AB3/oE6x/4Prz/wCO1FJ+wD8GZihk0bVXKEMpbXbw4Ydx+94NfRuKKPZwWyH7OHZHzt/wwN8Hf+gTq/8A4Prz/wCO0v8AwwP8Hf8AoE6x/wCD68/+O19D0Uezj2F7Kn/Kj53/AOGB/g9/0CdX/wDB9e//AB2l/wCGB/g7/wBAnWP/AAfXn/x2voij8KPZx7B7Kn/Kj53/AOGB/g7/ANAnWP8AwfXn/wAdpP8Ahgf4Pf8AQJ1f/wAH17/8dr6BW9t5LyW0SeNruKNJZIA4LojlgjFeoDFHAPfY3oasUezh2D2VP+VHzv8A8MD/AAd/6BOsf+D68/8AjteC/tSfs8+DPgddfD++8I2+oWVxqGqzWtz9o1O4uFkjFtIwXbI5A5A6Cv0Cr5J/4KA/6j4W/wDYcm/9JJK58RTh7GWnRnJjKcPq9SyWz/I+c6KKK/OT8fCiiikAUUUUAFFFFABRRRQAUUUUAFFFFABRRRQAUUUUAFFFFABRRRQAUUUUAFcbrH/JUvD3/XjdfzSuyrjdY/5Kl4e/68br+aV1Yf4n6P8AI7cL8UvR/kdlRRRXKcQUUUUAFFFFABRRRQAUUUUAFFFFABRRRQAUUUUAe5/se/8AJUrz/sFyf+jIq+z6+MP2Pf8AkqV5/wBguT/0ZFX2fX3OU/7t8z9NyH/c16sWiiivaPowooooASvF/wBrT/kkc3/X5B/M17RXi/7Wn/JI5v8Ar8g/ma4sZ/u8/Rnn5h/ulT0Z8S0UUV+cn4+FcIvxGlm8SHSI7VzMrHcDZ3OVTzlAYjZwDEepGN2OcV3deR+bHD4zGmTQ2H28XMcUMcyyibaT5j3Ikc4LcEAkkkoAOtd+FpxnzcyPUwNKnU5+dX0Oz0DxxFq19HZyW1wk88tx9nkWBhE8MchUPuz0IKfiwrPuviQYf7R8u2I+z30NrG15bz267XjjJZyydQzN8oGcAHHeq/guG0sfFl3YQzA2djDJDphwcOrur3KhsfMUdUHB4zWHrH2m2uNbfULx5ZY9R+1SQ2I8hdsFikpZTksDkRpktjkcc11Ro03Nqx3Qw1GVVq3RP8TqtJ8dT3+uWVj/AMS64Sd3jkazmkdoisbMCwaMcEgDr/EKnvPHD2v9t3MVhJe6bpxMRmtmQkSIheUtucfKMqvAzkN7Vj+GbGfTfEhiupbg/wBoSyyxmLVWmAxEineu0Zbg/N7L6VRbwjpUmg6xb/Z4IoLHVv3bSWL3ZVAISyhVO7DYG4g9M+tJ0qSnZrsKVDDqrZrTT8zttH1zULy1i+3aHe2dwId8rN5PllwoJVQJS3JzjI+tY1n8SY306e5ubC4jJkkFqoRQJVBJQZDHB2DcWI2gAnpVHwfYWcupXF9ZWOjz2FtE6rf6ZprQSNNjBSM+Y24BSckDqwAzzjB0+G70+8urO1/tm0tFuraBftBUHaIFAUrAyyE7QOhHAGeacaFKUmrDhhaM5yjbsdtoXjQX3n210bd7yNGkSSzYtbzALkqrdmXPKn2I46VLHx7eTWTyzWVqJpIbc2kMNyzGWeZSyQtlBghdrEjorZrI8K3uo3Utsbye5lSTTJ3QzsxDgW9gSwJPPztJznqW96q6NCsVnpssNvMjz/2WsNzJGyN5pMQuEjJwShggQkjjhuetP2NNX0G8LRTldHoeg6u2pJNbXQji1O1by7mFMgZOdrqCc7GAyM+46g1y1p8SH1DRbjVIH0plS2WRLCG8Mtx5jsoRZPlGw5bbtAPJ61saD5S3muahPE1xPa3s0cbqheUR7I2KIMZwSB8orkdBgvrvwJYMJtQtPs1hDcW15qCWS20ciRjaFO0uAQT8zDpzmsoUqbu2uxhTo0ndtdV+J3egaxc6hcanbXsdvFc2M6wkW8jMrAxpJu5AP8eOnatiuK+Hd0uvSahrHnyXCSbIITeRwC6RQMtvMajAZiMKeyA967WuKvFRnZHnYqKp1XFBRRRXOcgVmeKP+RZ1f/rzm/8ARZrTrM8Uf8izq/8A15zf+izWtP44m1H+JH1K3gb/AJEnw/1/5B9v/wCi1rb3DdgEE9cd/wDP+FeKXGi/Ea98H6O2janbmw+xW/l29mwguApjGMs3cD0fnHSq3wl0nxvpU2urDbWtvcO8RnbW1m3OfnwUK9RnOTnuK9SWDjKMqnOj2qmXxlGpW9qr32+fU91orjv+Lgn+Lwx/3zc/40n/ABcEfxeGP++bn/GvP9h/eX3nm/Vv78fvOyorjf8Ai4X97wx/3zc/40mPiH/e8L/983P/AMVT9h/eQfVl/OvvOzr2nwp+yz4g8XeHdP1m11TTore9hWZI5DJuAI6HC18x7fiH/f8AC/8A3xc//FV90fCfx14qj8D6dpcF14b0s+H/AA5p+o6jPqqTC3ufPa4BVZfMH2dFW2P7xlk5Y/KNnzerl+Dp1pNVHf0PbyrLaOIqSjWafoziv+GNfFH/AEF9L/OT/wCJo/4Y18Uf9BfS/wA5P/ia9ij+K2v+dbau8WnHQLvxFc+Ho9MWCQXyNFNNB55l8zawLwGQx+WMRsTuJXni4/j945tfCfg/UbqDw/PdeK9J0nU7RYrWeKOza5vrC2ljkzMxkAW/DKwKYMZyDmvc/srC9j6f+w8F/L+JyP8Awxr4o/6C+l/nJ/8AE0f8Ma+KP+gvpf5yf/E16nJ8WPF8PieTweYdPm1yPU7m2bVrfTZntTBFZ2lyMW/2gN5rfbUXHm4xFI3bbU9h8VfFOvW13cQP4b8Ppo+mQahqH9tSMYbgvLcISs8cu23hItiwkZZT85BQGMgn9lYXsP8AsPBfy/ieSf8ADG3ij/oMaX+cn/xNH/DG3ij/AKC+l/nJ/wDE19AfCW+8Q31z4yGuapbaklvrk1tarBavCYUVUO35pXyMMMAYwQ3XPHIeFfHHie8XVdJ0u+023uLG51vUJrvXo5ZxNGur3kMUMW2RNqxrFh3JIjDQgId3B/ZWF7C/sPBfy/ieX/8ADGvij/oL6X+cn/xNH/DGvij/AKC+l/nJ/wDE1634L+MGu/ELOr2X9i+H9EtLjS7e4staEguJjeW1pcHZOHCo4F4saIY28yRMbl3/AC8v4g+MfiHWPCXiPF1YnTtV8GazrWlahpdvNayReQsQQxySSb5gROG80RRcqpUEMCD+ysL2H/YeC/l/E4r/AIY18U/9BfS/zk/+Jp3/AAxr4o/6C+l/nJ/8TX0b8UPEXiDw/p+kjw5b2txe32oLbSfaEWZo4vKkkZ44DNCZmHljKK4bbvYBtm0+at8evEWpWOpXujW+l3sOh6XHe3ubaaJb2bfcJJErzSRfYwGtmTdKr7XLqw/dEsf2Vhuwv7DwX8v4nnn/AAxr4o/6C+l/nJ/8TSf8MbeKf+gtpf5yf/E161D8WPE9jZy+KNYk0Oz8G2via50S7QW8ouYbZLua0juTKZdgPnCDeuzATzG3DgDIj+OXjO9tby8i0nTbVLDSbfWpLO4jbfPFcPO8MTSNKi2zCGJFMjh1Mhk4UJyf2Vhuwf2Hgv5fxPF/iF+zhrvw58MXGuX2o2NxbQsiNHbl9xLMFGMqOma8lr6U+NHinxp48+AvjLUvP0Ozih8QXWl2FuLWYtstdTkt/MlcyYLMsX3VQYPOcHaPjj7H4/8A+gloP/gNL/8AFV4GPwdOjVUYOy8z5XNMuo4eso0pJK3VnZ0Vxf2Px9/0EtC/8BZf/iqX7D4+/wCgpof/AICyf/FV5vsV/Ov6+R431eP/AD8X4nZ0Vxn2Dx7/ANBXRP8AwFk/+Lo/s/x7/wBBbRf/AAEk/wDi6PYL+dD+rR/5+R/E7OvYP2If+S9eN/8AsXbP/wBKJa+bf7P8ef8AQY0b/wAA3/8Aiq+gP2BIdUh+NnjhdXuLe5u/7AtPntYyibftEmOCTz1r2MrpqOIvzJ6Hv5JRUMVdST0ex91ai0y2Fy1u4jn8tjG7RmQK2Dg7Ry2DjgcmviKPw7q2p6t4Dj19b6+SPSRDfW+q6ZdWyCOTU7SNBcQPPs3SKjNJvjcNJ5nLDyzF9xTwJdQyRSDdHIpVhnqCMEflXFXHgDwL4F8O6xdjRbHR9HjiS9vjaxmNQlsxnViqdlYO+0Dks5IJY5+xP0M8Q1W00PTfA3hPT7O+ihv7jwrNDDoeoNK9m6afHIbkKkNxCC7vMFY/NuVAQMKavfZbpPhPqGsQjWYb2ZtMtvsMSXmmxSxy3dvlIzPcSNuILpvV1G1+nevRbrXPgz46uJIbjWvCOtTatFbWZtpdQglaZY3doI1jLZDK0rkBQDlvWun8P+CvDKxPLYyz6rZqxtjDdarcX9tHJDMAVEcsjxq8csWOAGRkI4INAHmVna+NPBeux3Gj6eug2euXVrpkWneINWn1YRyBbh5boL5pCYRUAjSQBypzt4ato/E7xRbS3t5NJo8llpviOz8OXFglnKt1O0r28TTI/nER/NcCVYyj/u1GX+bcvrVxZ2940DTwRTvbyebE0iBjG+Cu5c9DhmGRzgmsq58D+HL7xFH4gufD+l3GvRxGBNUls42uVjIIKCQjdtwzDGcYY+poA8k0747a7dWHim+ePSHtPCrRvfGCKZmv7RLqRbm8thu/1awxSBR8+ZopVyVVXddM8STfFfx9o1vrdw1p4WvLbUL/AESDT7yW3XU1iuI4o5nkjceaDEWmWMHbtuFJUlAw9D8SaX4Vj0bUtMN7p/ht9N0Vrf7ZamCCbSLGYMgdGYYhjJtzjI25gHB2cR6fpnw7+InhWPQLSDw34p8PaYsUCafGIL22ttiYjXZ8yqQuMe3SgDkNJ8UXGn+ItM8EeDddjubd11a4bVPEMc9/5JtJbeNrSNjJG0u17oje0jbfJZOSPlytP+NXi/WPDt74jgh0ODS9MtdNu7i1a3mkku0mAafypRKoRSuWico2Qy5A6n1vVvh74W13QbTRNS8NaRqGjWZQ22nXVjFJbwlQVXZGVKrgEgYHQkVfm8O6VNHdxyaZZyR3aqlwjQKVmVRhQ4x8wAwBnpigDy3Qfih4puPEnh37eNIk0XW/E+s+Ho7e3tZY7mAWbX3lTGUylWJFiQy7BzICCMYPstZkfh3SY2tmTS7NTa3Mt7blbdAYbiXzPNlTj5XfzZdzDBPmPk/Mc6dAH5keNv8Akt3xY/7GWb/0TDVOs34sWviS4+PHxTOi31haQf8ACRS71u4Gdi3lRcghhxjFc/8A2f48/wCgvop/7c5P/iq+Ex1JSxE3zI/L8yoKWLqNzS18zsqK4z7B49/6Cui/+Akn/wAXR9h8ff8AQU0P/wABZP8A4uuH2C/nR5v1aP8Az8j+J2da/hLw3P4w8Safo1rLHDcXkgiRpM7QcHrj6V5r9h8ff9BPQ/8AwFl/+Kr0H9n2DxnD8aPCL397pE9kt6pljt7eQSMuD90luv1rWjh4yqRi5Kxrh8JCdaEZTTV/M9y/4Y18Uf8AQX0v85P/AImj/hjXxR/0F9L/ADk/+Jr1S2+L3iaPwRo3im4k8PPb+I7C2utN0vbLDdWTXE9rFG0pMjCaKL7UpmdVj2bRgHflTVPil4x03xxp3gkSaHNq9xq0Nm+riwmFsIZdPvbofuPP3CVWs8EeaQVkU8E8fWf2Vhux97/YeC/l/E8r/wCGNfFH/QX0v85P/iaP+GNfFH/QX0v85P8A4mu4i+OPjrULXxUbWDw/DN4X0SfUrvzrad1vJoL/AFG1kjjxKPKSQafuDEuU38h+3VQ/FjxFeeJ7h7fTrc6DBrqaGbWWDy7lslEafz2mCDDOXWIRkvGFIbLgB/2Vhewf2Hgv5fxPHf8AhjXxR/0F9L/OT/4mkP7G/ij/AKC+l/nJ/wDE16LrvxE8Z6t8GdV8QQ634b02fVPB914g06G1jl+22e2FHwoMuJwqyBTMPLCP5fyMHwOz+OGoeI9B+CfiC90/Vraz121svMa+itXVcjAYxoJdyE9iXbHvS/srC9g/sPBfy/ieDf8ADG3in/oL6X+cn/xNO/4Y18Uf9BfS/wA5P/ia9m1T4jeJtJv9YmebQ5dP0HVtO0a8t/s8iXF5JcJaFpYm80iL/j7ASIrIWKY3jdkdH468Ua1pvinwtoGjTaXaz60boG61ON5RH5MYkGyJXTzGPPy71wMtn5cE/srC9g/sLBfy/ifO3/DGvij/AKC+l/nJ/wDE0f8ADGvij/oL6X+cn/xNegad8ePFOpSa/dLZaWum+GdBl1bUIoYJZp76SG81C2eO3/eAIsn2DcrMGK7gCGzkbfiD4qeKfBUOpxanNoGq3Vvoq69FJYQSxRNGkyJJagGVy0kobbDIMbmz+74wX/ZWF7D/ALDwX8v4nkn/AAxr4o/6C+l/nJ/8TR/wxr4o/wCgvpf5yf8AxNelt8fdatPDOn61c6ValPENlN/YtqqurwakLhYodOuSW5mbzFDqqjY1vcDkAGvR/if4rvvAPwo8U+JIUtrnUtG0e5v0SRWWCSWKFnAIDZCll/vZwetL+ycN2F/YeC/l/E+bf+GNfFH/AEF9L/OT/wCJo/4Y18Uf9BfS/wA5P/ia9f1z4neKPC+sPoN4+h3up3g05rPUIbeWG1tvtV01uRMplYuQRlMOnmn5fkxuNO1+J/jbUfiVaeB7Z/D4u4ZdQS+1ZrSZo2W3i02ZGjgEwIYjUNjK0hwU3A/wE/srC9h/2Hgv5fxPnH4p/BHVvhPZ2NxqN7aXa3kjRotsWyMDOTkCvOq9V/aA1Hx7q3wv0e4fVdG1S/TxVr1qZbu1nhCxQ388KIoErcDy+MnhQo+Ygs3zx/xcL+94Y/75uf8AGvncbhIUqzjTaSPjsxwFOjiHClJJebOyorjf+Lg/3vDH/fNz/jS/8XB9fDH5XH+NcHsP7yPM+q/31952CsGBKkFc4yCDjHUfUVmax/yEvC//AGMGm/8ApVHXgmreH/H158QNUudOhmivWZRLcaa7w2zYVRgM5GRwOD6GvUNBsPF1leeGB4k1KxvB/b+lhFt4T5g/0qP7z/KvH+6frXq0sLGjVpyU09j26GAjh69Kaqp6rTqfsFRRRX2h+kHyh8QNL1Kb4gX9rcaVdavJqHiyxl0+zmt7J/MWNDJLMqS3KsAYrURBioXbaEj/AFjmsfwv/wAIPqHwF06XWHswljqWkbruNbaeA3MmlW1u8kscySRj7PA8jSB1+UW7Scdvq618I6JY6kNQt9Hsbe+DzSfaIbdFfdKVMrbgM5cqu49TgZp9v4X0i0j0qOLTLVE0mPyrACFf9FXZ5eI+PlGz5eO3FAHz98C/hjY/8JZJq0uiMf7J1bUYLPVrPSdHsrZvJnmgU7rdVuCzJuBBUKSSfSsnwH4M1fQ/g34Q8ZaRoPhvwpPpPhsarLq2lTF73Vf+JZIFjuE+zxqQ0jpM295AGjHU4cehafJ8HNF8QJdWPhi10y5j1drEalb+G54LVb5ZzDg3CwiIN5w2bi2CxAzkivVPEniDTvCHh+81XU5Ps+m2ce+ZlQvtUYH3QMn8BQB5DqXijxJouqQaVrvxBtfDuNGbXm1a5sreOCaQMFkt1VwP9HhAVmG7zcTp+8GMmrY/FXxV4g8S6LpL3cfh231e1s57q5ksvMk0m/ltDKNLJI2GRiFl3OMgZQ4M0Jr2jXtS0zS1sP7SCEXN3Ha2+6Iv++ckIBwcdDzU2kaha65pdvf20cq29wBKq3Ns8EnsWjkUMp46MAelAHzrqPxM1fx/pEUuszLpfg/SdQsdG8W+XmHZeKZGvVd+otlf7EpYEKUml3fKCB0Gs674S+HsWrD4e3VhowebTLLUpNNjjOlaatxdeX9oKJ+7S42SE89R5TSAqFrsLLx14M8Ax6ppgub97e1v5X1HUGsLme2huJ5DLJ51ysZjUKZPmy2I1wG2gV6HDY29vB5MUEUUJ/5ZogC89ePegDxDSfF3irxF4kHhSw8XrJbW9/e2beI4LOCSe4SK2tpRgbfJEqSzvGxCbcIRtDZK8/cfFfxvdeEtW8SJrUFqfDvh6y1WaxisozFqE5nvI51csCyI4tlwEYFSep6H6Rgt4baNI4YkijQYRUUAKPQAdKd5Me0jYuCMEY4xQB8++MrG71f4oanfWsVzm5WDTwNR8GahdxxiJnGVniuIkMZaRm3YxznOK9Q+EUjTeCYXkitI5BeXkLPYRvHDL5dzJEsiK7uyh1jVsF2xnrXQeIvDGk+LLFbLWdPt9StA/mCG5QOu7BGcHvhiPxNWtM0uz0XT7bT9OtIbGwtY1hgtraMRxRIowqqo4AAAAAoAtdq+Sv8AgoD/AKn4Xf8AYcm/9JJa+te1fJX/AAUB/wBT8Lv+w5N/6SS1zYj+DP0Zx4z/AHep6M+c6KKK/Nj8bCiiikAUUUUAFFFFABRRRQAUUUUAFFFFABRRRQAUUUUAFFFFABRRRQAUUUUAFcbrH/JUvD3/AF43X80rsq43WP8AkqXh7/rxuv5pXVh/ifo/yO3C/FL0f5HZUUUVynEFFFFABRRRQAUUUUAFFFFABRRRQAUUUUAFFFFAHuf7Hv8AyVK8/wCwXJ/6Mir7Pr4w/Y9/5Klef9guT/0ZFX2fX3OU/wC7fM/Tch/3NerFooor2j6MKKKKAErxf9rT/kkc3/X5B/M17RXi/wC1p/ySOb/r8g/ma4sZ/u8/Rnn5h/ulT0Z8S0UUV+cn4+FULXQtNs7cwQ2FtHEz+YyLEuCwOQxGOSD3NX6KpSa0TLUpR2dirHpNlFFaRJaQpFaNugRUAERAIBUY4OCenqaqr4X0mOGeJdPgWOdZElAQAusgUOCf9oKvf+EelalFNTmuo/aTWzM638O6VZ3Udzb6da208YYLJDCqHkYI4HQj1q1bWMFm05hjEZmkMsmM/MxABJ98AflU9FDk3uxSnKW7K1vpdpaXVxcQW0cM9xtMzxqAZCOhb1IBPWo7jRbK6aZpbdXMzCRyc5LBNgPXqF4q7RRzy3uCnJO6ZQt9A061mMsNnFHJ5ItwyrjEYAAQegwB09BUkel2kP2TZbxj7Inl2/ygmJSApCntwAPwq3RRzSe7B1JPqRW9rDaNKYY1jMr+a+3+JiACx9yAPyqrJoOnTWlpayWUMltabfIikQMse1dq4B9B/Sr9FHM+jDnktmV/7OtVvjei3jF2yeUZwoDlcg7ScdMgdasUUUm292S23u7hRRRUiCszxR/yLOr/APXnN/6LNadZnij/AJFnWP8Arzm/9FmtafxxNqP8SPqVvAv/ACJPh/8A7B9v/wCi1rcrD8Df8iT4f/7B9v8A+ihW5VVfjZeI/iy9WFFFFYnMFFFFIAr3rw58dvBNn4d8O2et+B4db1HRoEihvbmGGRoypByhYEj5gGHPUA9q8Forrw+JqYZ81NndhcZWwUnKk9z6YX9prwKniCXXV8ARLrcow+pCKH7Q2VCHMm3dyoC9egA6DFOb9pzwK9vp8DfD+FoNPijgs4jDAVto43jkjSMbfkVXhiYBcAGJCMFRXzL/AJ70f5713f2riu/4Hpf27jv5l9x9M6x+014F8RW9xBqngGPUIbi4F1Ml1FDIJJhGIxK2V5cRqqbuu0AdKivP2kPh9qM2mS3fw6t7iTTFSOyeWCBjbKhBRY8r8qrgEAdCAe1fNf8AnvR/nvR/auK7/gH9u43+ZfcfU1n+1t4W0+/vb618HSW99fFGu7mHylluCq7UMjAZbA4GegrN1b9o/wCH2uwRQ6j8Ore/hhllnjjubeCRUklcvK4BXGXYlmI5YnJzXzX/AJ70f570f2riu/4B/buN/mX3H0xeftM+BNS1y21q68ARXOr2oUQX8sULTx7c7drlcjblsY6bj61Xsf2hvhzpi3a2fw1s7YXcUlvcCK1t1EsUn+sjbC8o3dTwfSvm/wDz3o/z3o/tXFd/wD+3cd/MvuPqHxB+1V4P8V6eLHWvBTarZhxIILwRSoHHRgCDhhk8+9Zz/tEfDmRtLZ/htaE6WFWxJtoP9FVTuUR/L8oDAMMcZGevNfN/+e9H+e9H9rYrv+Af27jf5l9x9Q3H7Vfg+60i80qbwR5ul3plNzZOkJgn81maUuhG1t5ZmbIOSxz1NVtW/aa8C69qFnf6l4Ai1C9s9v2a4uooZJIdpyArFSRhuR6EZ9K+Z/8APeij+1cV3/AP7dxv8y+492+Jv7QGg+MvAN94c0jw22jC5uPtRZNiJ5jTGWRyqjlnYsxPcsSTzXhNFFcFfEVMRLnqbnl4rF1cZPnrPUM0UUVynGFFFFABXsH7EH/JevG//Yu2f/pRLXj9ewfsQf8AJevG/wD2Ltn/AOlEte1lH+8/I+lyD/fPkz7jrl/iVoc3ifwLrmiRWRv01W0l0+aFboWzeVKjI5WQowBCsSPlPOK6iivuT9LPm/QZ9a0b4g+GdHl8U3d3qLamIbrRTe6belbZbWeR5JVhs4pIgrJCAxI5kUd+et+GvieTQdA1nQW0zW7fXX8Qa69v5+hXwtj5uqXcsDmcQ+X5bK6Nv34ww5r2OigD5kW58YLodmfD7eNJJ20mA+Jv7XjuTOkxu7ITm2EgwJhbHUCFtBsyI9oJMed3VrpJNPtLHS08fnQZ9VlY317LqQaPbaphVMY+2vC0jMV3vGu9JPn2+Wj+/UUAfKuk6L4u1KSz1rxBomsagLKw8OSajBcWj+fdpa3+q7/kwfNljD207IpLHC4yWXPoPjTxBP4lt9R1Hw5oGuW0a/2db3+tQ2VxZ309r9tU3EEELxrM+yEzMXQbh5hEeXzj2migDwDQNF1nxN4ztrEXnjCHwJ51+bd7i6vbWaSMW9jsV5mK3AXzmuShdg52tgmPGcfVNM8dXHgPWtTNz4rPiHRvB1jNpUcMtxGZ9Sjkvi5eFMLPK4S33xurAhl+XkV9L0UAIOlLRRQB+ZHjj/kt/wAWP+xmm/8ARMVU6ueN/wDkt/xY/wCxmm/9Ew1Tr88x/wDvMz8lzX/fanqFFFFeeeSFdB4A8SxeDfGmka1NC88djMJTHGQCwwenvzXP0VcJOEuZbouE5U5Kcd0fSVr+0Z8PbGXU5bf4c20EmqI8d+0dvADdKxJdZPl+dWJJIOclj61LpX7S3gPQ4bSLTvh9DYx2lw15brbwwxiKZozE0q4XhzGzJuHO1iM4r5o/z3o/z3r1v7VxXf8AA93+3cd/MvuPpyP9qDwRD9vEfgKNBfRPDd7YoR9ojaSSR0k+X5lZ55nIbq0rnqxpjftNeBj4hTXz4BjOuINq6l5UP2gDZs4k27vukr16HHTivmb/AD3o/wA96P7VxXf8B/27jv5l9x9J2H7R3w+0ttTaz+HVvaHU0aK98mCBftKNncsmF+ZTubIP94+taT/tZeE5NDOiv4MZ9HMH2U6ewiNv5O3b5fl427McbcYxxXy1/nvR/nvR/auK7/gH9u47+ZfcfSn/AA0f8Pl1Kx1EfDq3W+sY0itbkW8AkgRAQio23KhQSBjpk4pvif8AaU8HeMdQ0+41jwldahHZpMi2lw0UkL+YEyWVlOSCgxgjHvXzb/nvR/nvR/auK7/gL+3cd/MvuPqLTv2rPCGjsrWHgn7Ewto7MG3WKMiCMsY4eAPkUu+F6De2OtZumftE/DrRYXhsPhtaWUTTRXDR29tAi+bG26J8BeqNyp6qeRivm/8Az3o/z3o/tXFd/wAA/t3HfzL7j6O1T9o7wZqmpaPet4SurdtN1RtYSO2aJFmu2hkh82T5cs22VjnOchSScYrnvEvxu0vxZput6bqWq+NJdL1a2uLSey+0WIjEc0bIVX/Rtw2hsjLdQM55z4l/nvRx/nNH9rYrv+Af27jv5l9x9JW37R3w9s9P1Cxt/hzbRWWoEG8tkt4BHckdPMULhsds5xVnSP2nvBGgfZP7M8Bpp5tEljt2to4YzEsrK0qqQOA5RC2PvFFJzgV8yf570f570f2riu/4B/buN/mX3Hqvxk+LGhfEaztotH8PDRJftUl5dSKiKbiRlCl22j5mwoyx54615VRRXnVq068+ee55GIxFTFVPa1XqFFFFYHMFZes/8hLwt/2MOm/+lUdalZes/wDIS8Lf9jDpv/pVHXZg/wCPD1PRy/8A3un6o/Veiiiv0Y/XwooooA8c8GfBaeaPUX8S6nq72cniS/1aLQDcQ/YiP7RlubaQ+WnmH/lnLtaTrwR/DXm/ir4aePPEXgfTvDMPhS6WXSNE1TTHuptQtkhvJZXg8gxESlwrLGx3OqleB9PquigDwjT/AIfanceJ/wC0tI8Iv4Q0L+0dKkOju1rGfMge5NxdbIZWjG5JIE4O9vK5GApPO+H/AIVa3pOi6Vb+JPAjeL5z4estPso/tlug0i7jedpi0xk3whi8Dedbh3/ddMogb6ZooA8g0638X+CdF1nwvpvhU6xcXWoahd2GtT3EB07bd3MtwDdIZFm/dtMVZURt4QEMNxCYsnw511vGBYaEx14+J11UeON1uANNE4c2n+s87/j3BtdmzYfv55Ne80UAfKE37POuWvgzwNY6f4bitrw+GYrDxGIJ4Y2muUvtLlAlcP8AvSscV8QwJx8wB+dQfd/h34Jj8Eax4xisdMg0nRr7Uo7yzt7UIkPNpAkjLGvCZkRsjAyct/Fk9xRQAUUUUAN7V8lf8FAf9T8Lv+w5N/6SS19a9q+Sv+CgP+p+F3/Ycm/9JJa5sR/Bn6M48Z/u9T0Z850UUV+bH42FFFFIAooooAKKKKACiiigAooooAKKKKACiiigAooooAKKKKACiiigAooooAK43WP+SpeHv+vG6/mldlXG6x/yVLw9/wBeN1/NK6sP8T9H+R24X4pej/I7KiiiuU4gooooAKKKKACiiigAooooAKKKKACiiigAooooA9z/AGPf+SpXn/YLk/8ARkVfZ9fGH7Hv/JUrz/sFyf8AoyKvs+vucp/3b5n6bkP+5r1YtFFFe0fRhRRRQAleL/taf8kjm/6/IP5mvaK8X/a0/wCSRzf9fkH8zXFjP93n6M8/MP8AdKnoz4looor85Px8KKKKACiiigAooooAKKKKACiiigAooooAKKKKACiiigArM8Uf8izq/wD15zf+izWnWZ4o/wCRZ1f/AK85v/RZrWn8cTaj/Ej6lbwN/wAiT4f/AOwfb/8AooVuVh+Bv+RJ8P8A/YPt/wD0UK3Kqr8bKxH8WXqwooorA5wooooAKKKKACiiigAooooAKKKKACiiigAooooAKKKKACiiigAooooAKKKKACrXw3+KXib4H/EXWPEOh+GLXxLFqmmw2TJcah9l8oxyu5P3DnO4fkaq0V1YfETw8+eB24TF1MHU9pT3PYv+G9PiL/0SrS//AAf/AP2qj/hvT4i/9Ep0z/wf/wD2qvHaK9T+18R2R7X+sOL7I9i/4b0+Iv8A0SnTP/B//wDaqP8AhvT4i/8ARKdL/wDB/wD/AGqvHaKP7YxHZB/rDi+yPYf+G9PiL/0SrS//AAf/AP2qqOt/8FDPHegaXNqF58LNMS3i2hmXXix+Zgo48r1IryyuR+LX/JP9V7cw/wDo6OtKObV5zUWkb0M+xVSrGDS1Z9H/APDe3xF/6JVpf/g//wDtVL/w3p8Rf+iU6X/4P/8A7VXjrdTRUSzfEJ7IylxBi02kl9x7F/w3p8Rf+iU6Z/4P/wD7VR/w3p8Rf+iU6X/4P/8A7VXjtFL+2MR2RP8ArDi+yPYv+G9PiL/0SrS//B//APaqT/hvX4i/9Eq0v/wf/wD2qvHqKP7XxHZB/rDi+yKMGqar4m8UeLPEmr6dFpF3rmqPf/YobgTiIGONcb8DPKnt0NXqKK8erVlWm6kup4FetLEVHVnuwooorE5wooooAKKKKACiiigAooooAKKKKACiiigAooooAKKKKACiiigAooooAKxPFS36Wun3mm2Q1G70/UbW+W0Myxeb5UyyFd54GQvUituitadR0pqcehtRqyoVFUjuj2Mf8FBvHn/RFIv/AAqYv/jNH/DwTx5/0RSL/wAKmL/4zXjlFe1/bNfsv6+Z9F/rFiu0fx/zPY/+Hgnjz/oikX/hUxf/ABmj/h4J48/6IpF/4VMX/wAZrxyij+2a/Zf18x/6w4rsvx/zPY/+Hgnjz/oikX/hUxf/ABmj/h4J48/6IpF/4VMX/wAZrxyij+2a/Zf18x/6w4rsvx/zPY/+Hgnjz/oikX/hUxf/ABmqWo/8FG/GOktZpdfBmOI3c620P/FTxndIQSF4gOMhT144rymuP+In/H14S/7DcP8A6BJWtHNq9Sdmkb0M+xNSoouK/HsfSf8Aw8F8ef8ARFIv/Cpi/wDjNH/DwTx5/wBEUi/8KmL/AOM145RWX9sV+y/r5nP/AKxYrtH8f8z2P/h4J48/6IpF/wCFTF/8Zo/4eCePP+iKRf8AhUxf/Ga8coo/tmv2X9fMP9YcV2X4/wCZ7H/w8E8ef9EUi/8ACpi/+M0f8PBPHn/RFIv/AAqYv/jNeOUUf2zX7L+vmP8A1hxXZfj/AJnsX/DwTx5/0RSL/wAKmL/4zXmnxi+P3iz9oLUPCNtqfw+TwlZ6LfSXr3Q1qO835geMLtCKRyw5GfwrIo9KiebV5xcWlqY1c+xVWDg0tfUKKKK8M+bCiiigAooooAKKKKACiiigAooooAKKKKACiiigAooooAKKKKACiiigAooooAK43WP+SpeHv+vG6/mldlXG6x/yVLw9/wBeN1/NK6sP8T9H+R24X4pej/I7KiiiuU4gooooAKKKKACiiigAooooAKKKKACiiigAooooA9z/AGPf+SpXn/YLk/8ARkVfZ9fGH7Hv/JUrz/sFyf8AoyKvs+vucp/3b5n6bkP+5r1YtFFFe0fRhRRRQAleL/taf8kjm/6/IP5mvaK8X/a0/wCSRzf9fkH8zXFjP93n6M8/MP8AdKnoz4looor85Px8KKKKACiiigAooooAKKKKACiiigAooooAKKKKACiiigArM8Uf8izq/wD15zf+izWnWZ4o/wCRZ1f/AK85v/RZrWn8cTaj/Ej6lbwN/wAiT4f/AOwfb/8AooVuVh+Bv+RJ8P8A/YPt/wD0UK3Kqr8bKxH8WXqwooorA5wooooAKKKKACiiigAooooAKKKKACiiigAooooAKKKKACiiigAooooAKKKKACiiigAooooAKKKKACuQ+LP/ACT/AFX6w/8Ao6Ouvrkfi1/yT7VfrD/6Ojrpw/8AFj6nXhf94h6o69utJSt1pKxluc0viYUUUVBIUUUUAFFFFABRRRQAUUUUAFFFFABRRRQAUUUUAFFFFABRRRQAUUUUAFFFFABRRRQAUUUUAFFFFABRRRQAUUUUAFFFFABXH/EP/j48Jf8AYch/9FyV2Fcf8Q/+Pjwl/wBhyH/0CSurDfxEdmE/jL0f5HYUUUVzHI9wooopCCiiigAooooAKKKKACiiigAooooAKKKKACiiigAooooAKKKKACiiigAooooAKKKKACiiigAooooAK43WP+SpeHv+vG6/mldlXG6x/wAlS8Pf9eN1/NK6sP8AE/R/kduF+KXo/wAjsqKKK5TiCiiigAooooAKKKKACiiigAooooAKKKKACiiigD3P9j3/AJKlef8AYLk/9GRV9n18Yfse/wDJUrz/ALBcn/oyKvs+vucp/wB2+Z+m5D/ua9WLRRRXtH0YUUUUAJXi/wC1p/ySOb/r8g/ma9orxf8Aa0/5JHN/1+QfzNcWM/3efozz8w/3Sp6M+JaKKK/OT8fCiiigAooooAKKKKACiiigAooooAKKKKACiiigAooooAKzPFH/ACLOr/8AXnN/6LNadZnij/kWdY/685v/AEWa1p/HE2o/xI+pW8Df8iT4f/7B9v8A+ihW5WH4G/5Enw//ANg+3/8ARQrcqqvxsrEfxZerCiiisDnCiiigAooooAKKKKACiiigAooooAKKKKACiiigAooooAKKKKACiiigAooooAKKKKACiiigAooooAK5D4s/8k/1X6w/+jo66+uR+LX/ACT7VfrD/wCjkrpw/wDFj6nXhf8AeIeqOvbrSUrdaSsZbnNL4mFFFFQSFFFFABRRRQAUUUUAFFFFABRRRQAUUUUAFFFFABRRRQAUUUUAFFFFABRRRQAUUUUAFFFFABRRRQAUUUUAFFFFABRRRQAVx/xD/wCPrwl/2HIf/QJK7CuP+If/AB8+Ev8AsOQ/+gSV1Yb+Ijswn8Zej/I7CiiiuY5HuFFFFIQUUUUAFFFFABRRRQAUUUUAFFFFABRRRQAUUUUAFFFFABRRRQAUUUUAFFFFABRRRQAUUUUAFFFFABXG6x/yVLw9/wBeN1/NK7KuN1j/AJKl4e/68br+aV1Yf4n6P8juwvxS9H+R2VFFFcpwhRRRQAUUUUAFFFFABRRRQAUUUUAFFFFABRRRQB7n+x7/AMlSvP8AsFyf+jIq+z6+MP2Pf+SpXn/YLk/9GRV9n19zlP8Au3zP03If9zXqxaKKK9o+jCiiigBK8X/a0/5JHN/1+QfzNe0V4v8Ataf8kjm/6/IP5muLGf7vP0Z5+Yf7pU9GfEtFFFfnJ+PhRRRQAUUUUAFFFFABRRRQAUUUUAFFFFABRRRQAUUUUAFZnij/AJFnV/8Arzm/9FmtOszxR/yLOr/9ec3/AKLNa0/jibUf4kfUreBv+RJ8P/8AYPt//RQrcrD8Df8AIk+H/wDsH2//AKKFblVV+NlYj+LL1YUUUVgc4UUUUAFFFFABRRRQAUUUUAFFFFABRRRQAUUUUAFFFFABRRRQAUUUUAFFFFABVKS8v7jXrLRdI0HU/EOq3cUs8dppcaO+yMqGJDMOm8dPertdr+zT/wAnU+Dv+wTqn/oMVd+Boxr14wnsepluHhisTGlU2OUHg74i/wDRJ/Gf/gFH/wDHaP8AhDfiL/0Sfxn/AOAUf/xyv04pa+q/snDdmfc/2Dguz+8/Mb/hDfiL/wBEn8Z/+AUf/wAco/4Q34i/9En8Z/8AgFH/APHK/TjFGKP7Jw3Zj/sHB9n95+Y//CH/ABF/6JP4z/8AAKP/AOO1h+Nvhl8TPE3he9023+Ffi+Oafy8NLZRhRtdWOSJPRT29K/VSkxVRyvDwd0i4ZJhKclJJ6eZ+ZH/CH/EXOf8AhU/jL/wBj/8AjlH/AAhvxF/6JP4z/wDAKP8A+OV+nH4UtL+ycM+/3kPIcG3ez+8/Mb/hDfiL/wBEn8Z/+AUf/wAco/4Q34i/9En8Z/8AgFH/APHK/Tmil/ZOG8/vF/YOC7P7z8xv+EO+Iv8A0Sfxn/4BR/8Axyj/AIQ34i/9Eo8Zf+AMf/x2v05oo/snDdn94f2Dg+z+8/KzRdWGsW8zm1uLGeC4ltZrW7ULLFLG5R1YAnkEHoa0KpWv/IxeM/8AsZtV/wDSyWrtfIYinGnWlCPRn59jKUaOInThsmFFFFcpxhRRRQAUUUUAFFFFABRRRQAUUUUAFFFFABRRRQAUUUUAFFFFABRRRQAUUUUARXVwtnayzuCUiRpGx1wASce+BS6HpPjbxJo9lq2l/DLxdf6bfQpcWt1DZxMksbqGVlPm9CMfnVXXv+QHqH/XtJ/6Aa/QD9l//k3D4Y/9i5Yf+iEr38twdLFRk6h9Tk2XUMbGbrdD4X/4Q34i/wDRJ/Gf/gFH/wDHKP8AhDfiL/0Sfxn/AOAUf/xyv04oxXtf2ThuzPpf7BwfZ/efmP8A8Ib8Rf8Aok/jP/wCj/8AjlH/AAhvxF/6JP4z/wDAKP8A+OV+nGKMUf2ThuzD+wcH2f3n5j/8Id8Rf+iT+M//AACj/wDjlYPij4Y/EzXJtDeD4V+LkFjqMd3J5llGMqqsMD951yw6+9fqse1FXHLMPB8yRdPJMJTlzJP7z8yP+EO+Iv8A0Sfxn/4BR/8Ax2k/4Q34i/8ARJ/Gf/gFH/8AHK/TilqP7Jw3n95H9g4Ps/vPzG/4Q34i/wDRJ/Gf/gFH/wDHKP8AhDfiL/0Sfxn/AOAUf/xyv05oo/snDef3i/sHBdn95+Y3/CG/EX/ok/jP/wAAo/8A45S/8Ib8Rf8Aok/jP/wBj/8AjtfpxSUf2ThvP7w/sHBdn95+WOpya54c1nS9M8R+ENd8MzaksxtH1W3SNZfKUFwpDnkBl7fxCrle6/t+f8lA+Dv+7rP/AKKtq8Kr5zMcPDD1eSHY+OzfCUsHXUKW1goooryTwwooooAKKKKACiiigAooooAKKKKACiiigAooooAKKKKACiiigAoo/wA9KOf8iqsx2YUUc/5FHP8AkUrMLMK43WP+SpeHv+vG6/mldlz/AJFcZrB/4ul4c/68br+aV1Ye/M/R/kdmEvzS9H+R2dFFHP8AkVzWZxBRRz/kUc/5FKzAKKKM5oAKKKKQBRRRQAUUUUAFFFFABRRRQB7n+x7/AMlSvP8AsFyf+jIq+z6+MP2Pf+SpXn/YLk/9GRV9n19zlP8Au3zP03If9zXqxaKKK9o+jCiiigBK8X/a0/5JHN/1+QfzNe0V4v8Ataf8kjm/6/IP5muLGf7vP0Z5+Yf7pU9GfEtFFFfnJ+PhRRRQAUUUUAFFFFABRRRQAUUUUAFFFFABRRRQAUUUUAFZnij/AJFnWP8Arzm/9FmtOszxR/yLOr/9ec3/AKLNa0/jibUf4kfUreBv+RJ8P/8AYPt//RQrcrD8Df8AIk+H/wDsH2//AKKWtyqq6zZVf+LL1YUUUVgc4UUUUAFFFFABRRRQAUUUUAFFdt4B+DviT4lWVzdaJBBLFbyeU5lmCHdgHoe2DXU/8Mq/ED/nxtf/AAKSuuGEr1I80Yto7qeBxNWKnCDaPIKK9g/4ZU+IH/Pja/8AgUlc148+Cvif4b6VBqOt28EVtNMIFMUyud5VmAwO3yn9KJYSvCPNKDsOeAxVOPPOm0jhKKKK5DgCiiigAooooAKKKKACiiigArtv2af+TqvB3/YJ1P8A9Biria7b9mn/AJOq8Hf9gnVP/QYq9XK/96ie9kn++w+f5H6G0UUV98fqQV8xfFr45eK/AnirxFpOoaxpvh1VtrE6fI3kAzebcagQ0JlOxXeK3iRmuGWNGjcgYYE/TteYt8DdMt/FfibXdPuDY3WtW9nubDvILu3nuJlnkkL7pVPnpH5ZIHlxBPu4CgHmn/C8fFOpfDPTtd8OatpHinUW1ma1uI7S6ijihUOIYrWSURPH5zSvHt2kBzIoQyIfMre+HvxR8Z6p8QJPDmrPYwXMMCPLpuooY7poktk8y6jdUUGNrlzEW2YBjbHbdsa5+z+2veEdL0OTXYrRrfWbzWZ7+101DKXuLiaZlhWVpI0A89l/eJLwqkAMqsLfhf4HzeGtc0jV11uCS503TV0KG3TTglr/AGaFBMPl+YW8xpFVzIWxhQu3qSAeEQ/tBeO9ee8ca48UVjJdiRfDm26VlOqXNvCWk/syYYCRqq8LuVA2SzFV9v8A+E61nQbH4SQavq6rd61rMljqM11b+QbhRZXjIhWSGJlZpkt8ERoWOABhsHmm/ZTkkkSebXNKvrj7VPLJFfaG0to0Uk9zcLGIRcjlJbycq248bRjIzXYWfwSf/hHrXT9R1iPUZLHw9/Yll5lmRBDKxVnuinmbixaK3IAcFPK+VssTQBt/C3xpJ4z/AOEu8y4a4/srxDd6WuYwgQRbMKMAbgN3U88kdq7qvPvCHw80/wAA6kl3pmsstna6b9h1WG4YObiVG85LmRsgRygSzM2B84mUnhFrvRMm1W3rtbG054OfSgCSiqllqVpqUaSWl1DdRsiyK8MgcFG5Vhg9Dg4PfFW6APyutf8AkYvGf/Yzar/6VyVeqja/8jF4z5/5mbVf/SyWr1fnWMTeIn6n5DmX+91PVhRRRXCeaFFFFABRRRQAUUUUAFFFFABRXqWifs2eN/EGk2WpWdnava3kKTxM1yoJRlDAn3wRV7/hlTx//wA+Nr/4FJXasHiGrqDsegsvxckmqb18jx+ivYP+GVfH+f8Ajytf/ApK878aeC9T8Ba5JpOrIkd6iLIyxvvGCOOfWs6mGrUo8042M6uDxFCPNVg0jDooormOMKKKKACiiigAooooAKKKKAKGvf8AIE1H/r2k/wDQDX6Bfsu/8m4fDH/sXLD/ANEJX5+69/yBNR/69pP/AEA1+gX7Lv8Aybh8Mf8AsXLD/wBEJX1uS/DM+84b+Cp8j1Ciiivpj7Qa2dpxwe2RXyj4u/aE8U+GtU1LTtZ1vTfDuo2+u/ZxZCW1Vnij06wkkSOWciERGW5klzI/mkMFXBUrX1ayhlI55GOCRXl+k/A2z8Mw64uh3q6ebzVxq1qrRPJHExsoLWRJh5gNxv8AKeQszAl5Axyy5IB5xrPxe8e6t4R8D3Xgu9sPFcuuWZM2p6dIsUBmcuwWES253yRJHJlMhsRMXjQ4B6j4d/FTxbreoeLv7QGl/Y9N+1XEcOps9hNaJ57LarO/lnbHJCjShjHuwwyPRPEn7MNt4k8MeDtBm1qGKz8O6INH81dMR5rweUkbby7FVjbYCVRRJywWVdzZ6vSfhXfaTr+va2NatrvUNci2Xsdzpoa1zEcWhSMSAqIkLAjed5bOVwKAPn2z+OPj3xFouiXsHiG9Se9isLTOjQLPb/aJbKOdpGb+yZssSxYorgjdgJgb2+hbTxvPB4+8EaBe6pCJ9T8PXl5PbSRiF7i4jez2MququCFe5OzAOA24fLx5zcfskj+x0s4de065uDbCGS51XRmuSsiW8NtFNCouE8plht4l6nJUnjOK9A8XfBmPxgddmutWli1DUms4re9ijKy6dbwHOyBlYESMZLhvMJODKAVZU2kAu/Azx03xJ+Feg+I3uvtkt7HIZJfLCHcsjIRtAwMFcceld9XI+FfCdh4L1LXX069jg0iYQO2lgKI7KZItruDn5VeNYDs6AoW6ua6iO4ikhjlSRWicAq4YFWzjBB98/rQBNRVaG+t7pmEE8UxXkiNwxAyy54PqrD6qfSrNAHxl+35/yUD4Pf7us/8Aoq2rwmvdf2/P+SgfB3/d1n/0XbV4VXxecL/aF6H5txF/vS9Aooorwdj5gKKKKQBRRRQAUUVPY2j6he29rHgSTSLGu7gZYgDPtk01q7IaV3ZEFFevj9lXx+eRY2v/AIFLS/8ADKnxA/58bX/wKWu36jif5Gej/ZuM/wCfb+48for15v2VvH6qSbK1wOf+PpK8iZSjMp6qcGsKlCpR+ONjmrYath7e1i1cSiiisDmCiiigAooooAKB1FFKv3hVx+JFx+JHr37Nv7InhD4rfBHwr4r1vWfFY1XUoZJJ/sutypFlZnT5VwccKO/rXpn/AAwB8Ov+g14z/wDB9J/hXS/sQ/8AJrPgH/r2m/8ASmWvcq/SI0qdl7p+xwoUuVe6vuPmj/hgD4df9Brxn/4PpP8ACj/hgD4df9Brxn/4PpP8K+l6Kr2NP+Uv2FL+RfcfNH/DAHw6/wCg34z/APB9J/hUDf8ABPT4ZyXUdy2qeLmuIwVSZtccuoPUA7cgHFfT3NHPpT9lD+VDVGktor7j5o/4d/8Aw6/6DXjP/wAH0n+FH/DAHw6/6DXjP/wfSf4V9L0UvY0/5Rewpfyr7j5o/wCGAPh1/wBBrxn/AOD6T/Cj/hgD4df9Brxn/wCD6T/Cvpeij2NP+UPYUv5F9x8n+Mv2GfAPh/wjrmqW2s+L2uLGxnuY1k12UqWSNmAPHTIHevlLwPcS3XgvQpp5HmmksYWeSRizMxQEknuSfWv03+J3/JNfFn/YJu//AES9fmJ8P/8AkRfD3/XhB/6LFfPZxTjGnFxXU+S4ipwhRg4xtqb9FFFfJnwYUUUUAFFFFABRRRQAUUUUAe5/se/8lSvP+wXJ/wCjIq+z6+MP2Pf+SpXn/YLk/wDRkVfZ9fc5T/u3zP03If8Ac16sWiiivaPowooooASvF/2tP+SRzf8AX5B/M17RXi/7Wn/JI5v+vyD+Zrixn+7z9GefmH+6VPRnxLRRRX5yfj4UUUUAFFFFABRRRQAUUUUAFFFFABRRRQAUUUUAFFFFABWZ4p/5FnV/+vOb/wBANadZfin/AJFnV/8Arzm/9AatafxxNqP8SPqcFaX3jC38G6INLtIDafYbfZJbgPNt8tcZU9z7KfrTvAOoeJbmXVSQlzMrRiQajK6sn38BRjp14x2Fdn4F/wCRJ8P/APYPt/8A0WtblfYf29Tp4aeEeGhd9befU+vnntOnQqYV4aDbe9vPqc/9o8T/APPnpn/f9/8A4mj7R4n/AOfPTf8AwIf/AOJroKK8P+0If8+Ifc/8zwv7Qj/z5h9z/wAzn/tHif8A589N/wDAh/8A4mj7R4n/AOfPTf8AwIf/AOJroKKP7Qh/z4h9z/zD+0I/8+Yfc/8AM5/7R4n/AOfPTf8AwIf/AOJo+0eJ/wDnz03/AMCH/wDia6Cij+0If8+Ifc/8w/tCP/PmH3P/ADOf+0eJ/wDnz03/AMCH/wDiaPtHif8A589N/wDAh/8A4mugopfX4f8APiH3P/MP7Qj/AM+Yfc/8zn/tHif/AJ89N/8AAh//AImj7R4n/wCfPTf/AAIf/wCJroKKf9oQ/wCfEPuf+Yf2hH/nzD7n/me//speNtZ8OeHf7OfSrO81fXNdFlaxi8aGBFS0knkd38tm4SFgAqHJK5wMkekWXxt8QaD4ammuNHt9Y1UXeuSS2hvpS8UdrfPEiIIbaVmTGF8x1QAKueWwPF/hB408EaT4R1DSfFy3xd75by0m015oLi3cRlN8c8TrJExVnUlGBKuynhiD3L+O/gcba3t0sNYhhhFwrRwXN3ELlZ5GlmS4CzD7QrO7ttl3DLtwNxz9JhsbQdJczUfI+5wOY4b6vDmlGL7HocHxi1kXniDVfsOnN4eXTdKutMjudRMMjPduyoHAgYgtkZVTI2UUIrl8V5Z+0p8QtU8dfCWRoNHh0/UtJ8Upp9xBdSTqhX7GZ1dfMhjkGVnj4aMc7sZGCdjUfiZ8FtUt0hmtNYjSOxttOQW9xdQ7IreQSW7LslGJY2AKzD94MkbsEiuI+LnjrwHqngUaP4OhvIbifVk1K7a8aWR55Ft/JMjSSMzM5VI8knJILHJJJeIxtBUm00/IeMzDC/V58slJ227nzt9o8T/8+emf9/5P/iaPtHif/nz03/wIf/4mugor5r+0If8APiH3P/M+F/tCP/PmH3P/ADOf+0eJ/wDnz03/AMCH/wDiaPtHif8A589N/wDAh/8A4mugoo/tCH/PiH3P/MP7Qj/z5h9z/wAzn/tHif8A589N/wDAh/8A4mj7R4n/AOfPTf8AwIf/AOJroKKX1+H/AD4h9z/zD+0I/wDPmH3P/M5/7R4n/wCfPTf/AAIf/wCJo+0eJ/8Anz03/wACH/8Aia6Cij+0If8APmH3P/MP7Qj/AM+Yfc/8zn/tHif/AJ89N/8AAh//AImj7R4n/wCfPTf/AAIf/wCJroKKP7Qh/wA+Yfc/8w/tCP8Az5h9z/zOf+0eJ/8Anz03/wACH/8Aia9G/ZVk1OT9qfwn/aMNtEw0nU9n2eRmz8sWc5AxXM12v7NP/J1Pg/8A7BOp/wDoMVehgcZGrXUFSivNJ3/M9fKsYquKjBUorfVJ329T9Br4kWNwRwfLY/pXyP4Jh8VeF/gX4X+Iml6YumTaP4Pk1m+vbzWp7oaww0t2RJLYfLhpjHMWLBh5eB9419fModSrAEEYIIrn/EEvhbwj4Mmh1t9I0XwnBbrZSx35igsY4WAiWJg2IwhBCBTxyBX1Z+gnm2seOPHGi3GuWN1rfhu1udD0CPXJrqfS5UguzI8/7tB9pyiRi2IZssT56HC7cPBD8YfE2vePE8MafHpmnG8sVvre8vreVxa3D2fmLpkqhlBuVYrcH5lJgJGwH95XY/298L/ida/2sNR8J+Lbfw+4uBerNbXq6c2MiQPlvKPyZzkfd9q67/hHdKZNp0uzKfavt2Ps6Y+0bt3ndP8AWZ53dc96APDLz4rX3xMt9M+0RTeGvBs+p2Ola1J57QXVtcvbTTT2zTqw2gXBsbVtoB3STLkHpuarqml/DbVpdH8Gah5V9qV9p1pc297JLdafpHnG4Kz7dww8oi8vYJAN3knaNx8z0jw74J0zw94bn0QRfb7S6luZ7z7YiObqS4leWdpFACne8j5UKFwcAAYFOsfAPhjS/Ds/h6z8OaTaaBOGEulQWMSWsm7726ILtOe+RzQB5XpvxK8beIfGzeEbG70W2ubSfVIZdak02WWC6EEdi8TRRCcY2m+MUmXbLQPjZnavP+Efjr458YeFIfE8X9g2dlBD4fnubBrKZ3mF7HA9yEk84bNomby8q3QBs177pfhnRdDjsYNN0mw09LCF4bWK1tkjFvE5BZIwoGxWKKSBgEqPSmWfhLQrGxaztNG062s2EStBBaxrGREAIwVAxhAqheONoxjFAHxN4i07VPEGvfFzw/od/YS+Y8VzNqFt4jv7pClxdy25jYPcW9ukywJANskp/wBQUUOJP3fpa2erSfAyO6t9e1K38UDXZD4cS3RQ11f+U9tHEftdzqCvCHMkhdHAVYy4xtLH6R/4RXSxrGp6obNHvNTtobK8aRmZZoYjKUQoTtwDNL0HO7nIAxmL8M/DMel2enR6VHFaWUc0NmsTujWscjAvHE4YNGhwF2oQAoCgBRigD5//AGWdJv7zxNaMup6j9i8M6PHo8kIvrSdYSMKun3IGmW8nmxbN/wDrGZDjJxKd/wBVVzGmfDXwtoeoWF9peg2Ok3VjF5EEmnQi2xFhh5TCPAeMF2IRsqGwwG4Ajp6APydvpNTj8QeMvsEUUg/4SbVt28/Nn7ZL0Gf61i2t5rD61brPvMuTtjmyiHg9gP5Custf+Ri8af8AYz6r/wClctXMZrzqHEVLL/bUJYWEm7rmtrqfjWaUnLGVHfqzM83WP+eFn/38b/Cl8zWP+fe0/wC/jf4Vp0V83/akP+geH3P/ADODk8zM8zWP+fe0/wC/jf4Unm6x/wA8LT/v43+FalFH9pw/6B4fc/8AMOTzMzzNY/597T/v43+FHmax/wA+9p/38b/CtOij+04f9A8Puf8AmHJ5mX5usf8APC0/7+N/hS+ZrH/Pvaf9/G/wrToo/tOH/QPD7n/mHJ5mZ5msf8+9p/38b/Ck83Wf+eFn/wB/G/wrUo+lCzOH/QPD7n/mNQ13PqvUvih4i0n9nvxBH4csIEu/DfgqK6n1J74xSQXD2TSAwxmJg+xVV8sygkgc8kd3dfG68tvHFloMOhW15a3mqS6PFfxX0xCzrbSTDzCLYxJloyhUSl1yDtzlR43H8QfhJ4i8I6Xp3ifTtYublNHj0i/jtLme2hu4hGUKSrFMiyhSzld4JUsSuCa3IPix8HLbxGmtpp2uG9jvm1KKN7mdraG5ZXV5o7czeUjt5km4qg3F2JyTmvpYY3D8qbkkfrVDMMJGlFOotkdfovxq8VWPgLw/eahoum6trV/aXV40MF/OXeOIoFIjhs3YZZypOzYu1csSwFfN/wC0Z4kufFnj+11zSbeP+ztU0myvoRcsVkCSwh13Ad8MOAT9a9Xf4i/BV2hI03xAixvMfKS+uljdJWDPA6C4w8BIyIGBjGWwo3HPjnxW13Qde8SW7eGYJrbRLOwt7G1gnzujjijCKuWJJwFHJJPFcmMx1GNO8VGfkzxc9xVDEYXkpzTd1sed+ZrH/Pvaf9/G/wAKTzdY/wCeFp/38b/CtSivF/tOH/QPD7n/AJn59yeZmeZrH/Pvaf8Afxv8KTzdY/54Wn/fxv8ACtSij+04f9A8Puf+YcnmZnmax/z72n/fxv8ACjzNY/597T/v43+FadFH9pw/6B4fc/8AMOTzMvzdY/54Wn/fxv8ACl8zWP8An3tP+/jf4Vp0Uf2nD/oHh9z/AMw5PMzPM1j/AJ97T/v43+FJ5usf88LT/v43+FalFH9pw/6B4fc/8w5PMwNXk1Q6TeiaG2WLyZN5V2zt2nJAx1xX6Jfsu/8AJuPwx/7Fyw/9EJX5+69/yA9R/wCvaT/0A1+gX7Lv/JuPwx/7Fyw/9EJXuZdiY4iMrU1H0v8Arc++4ZVoVNexD+0Is8+g+GLaC2kv/tPiG0hks47prbz1IkyhcHgHA/KsXwi2v/Dvxppen3dpBpGg+JNRljh0ybUpr9rURWbyFkkfAjMjoT5a7lAQnqxx7NdafbX5g+020Nx5Mqzxeagby3GcOuRwwzwRzzXLfE3VPAFlo8Fr8Q7zw3BpVzLmGHxNLAsEsiDPyrMdpZc545Ga9k+2PGNL+LGuazrPi/xNpmu6HaR2/hG31KOG7ikmhnSG/wBWVWQCZdqskaBnGeWQ8YwXaf8AES90vxD4n106ddXckWr3t7HprXEodNnh6ynECqG2klsj5lOCxIANesW9n8MfFlvoWp29v4T1m3urry9KvIo7a4SW4iM8oEDgEF0IuX+U5GJTx81demg6bHeNeJp9ql20xuGuFgUSGQoIy5bGSxRVXPXCgdBigDxTxV4q1uWDTtK17xfol1o2pS6Y1/e+HVls5oLedpFOW82TEM8qxRrIrqwDvz0Ya+sX2jfDE6rbeD9SS31K4k0yCa0vZpbrT9P+0XXkLcsu4bXcM3yB13mNM45avRtJ8CeGtBsdQstN8PaVp1nqLM97b2tlFHHcsw2sZFVQHJHBznIo0rwH4a0PQbjQ9N8PaVp+i3AcT6ba2UUVtKHG190aqFO4cHI5HWgDym1+JXjbVfiGPBlnqWgJPDeahBNq39nSyo6w2tlPHiIXA2uGvSjfOQfLyNpOBnj4yeOLjwjf+I1bQreHRPC2neIL+z+xTSG7kkWZ7mKN/OHlLtgYISrkFwTnGG9s0nwjofh+3sINL0XT9NhsEkjtI7S1SJbZJCGdYwoG0MQCQMZIGaevhfRvsVxaLpNj9kuLdbSaAWyeXJCAQsTLjBQBmwp4+Y+tAHxh4xtdY1XxP8ZNB0XVLCSW5C3E15b6/fXCoJrqa3MLK1xb28EyxxQ5DynBiMYDiXbH6Dptncr8Bbx5tU1S21Oz14HQ47EIsl5fRbY7e3jN1dahG6GZcbg+1fLJ2rsZj9IDw9p41i+1Q2ytfX1rDZXMjEsJIYmlaNCpO3AM8vbJ385AGMv/AIVr4aXSbPTI9JitrOxWZLNLZnhNosoIcQMhDRfKzKNhG1TtXA4oA+dv2Y9P8Qap4s0iLVtY1GS88M6P9jv0jvbOYW8xKqbG6A02GQMWV5ABPJjy1bcwkDN9Y1y+n/DPwro95p93pvh/T9LudPVo7aWwgW3ZI2LM0eUxlCzsxRsqWO7Gea6ftQB8c/t2LaP8SPg2L2WaGDGs5aCMO3+rtuxYe/Ofwrk/Dem+EZGT7G8V5Puyq3z/AD/TaQFOPYGul/b8/wCSgfB3P93Wf/RVtXhVeRUzOGX4pSlRjPTr+h+M8bZXPMq6jGtKnp0/U7LxHa+G116/Fxc6hFOJmDxwwIUXnovzdB9Kz/s/hT/n+1T/AMB0/wDiq53n+lFfP1syhVqSmqMVd9n/AJnzdHLpUqcYOtJ2Xl/kdF9n8Kf8/wBqn/gOn/xVH2fwp/z/AGqf+A6f/FVztFY/Xo/8+Y/c/wDM2+oy/wCf0vv/AOAdF9n8Kf8AP9qn/gOn/wAVR9n8Kf8AP9qn/gOn/wAVXO0UfXo/8+Y/c/8AMPqMv+f0vvX+R0X2fwp/z/ap/wCA6f8AxVaPhu38L/8ACRaXsvdTLfao8A26YPzjGfm9a4yrui3UdhrNhczHEMM8cjkDJ2hhk4+gqo46PMv3UV8n/ma0cG41It1pWT7r/I968da54q1Px9410jRLkXl5dJJpumaSt5c2kqXT294u8St+5YqknnGPPCBXUbgFrqZfGmrf8Kx8Jajb+ItW1cah4kQWj3Glq80lpHeLEis0KxRopVA26TG7zCM9BWLcfET4T3XiS/8AER1HxLBrt6ssUl9aSNbkRSKEZFSPamdioolK+aBGnz5UGi8+I3wmk8Mjw5ZX3iDR9AW5a6TT9PjVY422gBYyylo1Vx5gVCPnJPIOK+u+u4f+dH7aswwtv4i+8474B+Kda8QfELwla3PiG6uD/ZlrqckR1WSSa5aaCYPHJHJq8ikKFEh22+/j/VxjBPn9xB4VFzJ/puqY3N/y7x+p/wBqveNH+Knwu8P3OmvY6hr0Ntpt9cX9rYCNRbRvKk0ZUIBwgW4fAGCMLye/zLMwkmdh0ZiRn3NeRmGNpLl5FGfqfEcTSpY1UlRqvS/wv0N/7P4U/wCf7VP/AAHT/wCKo+z+FP8An+1T/wAB0/8Aiq52ivH+vR/58x+5/wCZ8J9Rl/z+l9//AADovs/hT/n+1T/wHT/4qj7P4U/5/tU/8B0/+KrnaKPr0f8AnzH7n/mH1GX/AD+l96/yOi+z+FP+f7VP/AdP/iqPs/hT/n+1T/wHT/4qudopfXo/8+Y/c/8AMPqMv+f0vvX+R0X2fwp/z/ap/wCA6f8AxVKLfwruGL3VP/AeP/4qucpR1FVHHRuv3Mfuf+ZcMDLmX76X3r/I+2/2Pl0+P9nHwWukyXE2mLFOLeS6VVlZPtMuCwHAP0NezCvDP2If+TWfAB7fZZv/AEolr3P09K+6Turn75Sjy04reyQtFFFM1CiiigAooooAKKKKAOY+J/8AyTXxZ/2CLr/0S9fmJ8P/APkRfD3/AF4Qf+ixX6d/E/8A5Jr4s/7BF1/6JevzE+H/APyIvh7/AK8IP/RYr5vOv4cfU+P4k/gw9Tfooor5A/PwooooAKKKKACiiigAooooA9z/AGPf+SpXn/YLk/8ARkVfZ9fGH7Hv/JUrz/sFyf8AoyKvs+vucp/3b5n6bkP+5r1YtFFFe0fRhRRRQAleL/taf8kjm/6/IP5mvaK8X/a0/wCSRzf9fkH8zXFjP93n6M8/MP8AdKnoz4looor85Px8KKKKACiiigAooooAKKKKACiiigAooooAKKKKACiiigArM8Uf8izq/wD15zf+izWnWZ4o/wCRZ1f/AK85v/RZrWn8cTaj/Ej6lbwN/wAiT4f/AOwfb/8AooVuVh+Bv+RJ8P8A/YPt/wD0UK3Kqr8bKxH8WXqwooorA5wooooAKKKKACiiigAooooAKKKKACiiigAooooAKKKKACiiigAooooAKKKKACu2/Zp/5Oq8Hf8AYJ1P/wBBiria7b9mn/k6rwf/ANgnU/8A0GKvVyv/AHqJ72Sf77D5n6G1yPxW0a58RfD/AFnTLUag8l3EIHTS2gW5eJmUSKjTssakoWBYsCASV+YCuurP1nRdP8RafJYarp9rqdjKVL2t5Cs0TYIYZVgQcEA9Owr74/Uj5K0XUp/FPw38Q6ysmoGOTR7yS4sbyaymFlI0KIpX7Kf3aOsa4jdVOUcgHca9r+HnxG8L6XJrmiXHiTR4NfbxDqMcelzX8SXLu13IUURltxLZXAxzkV3k3gfw5cadDp8vh/S5bCCVZ4rV7KMxRyLna6rtwGGTggZGa3qAPmPR/jJ4mk8J6ZqNt4jXW9ZvdBN9r2nfZoCPDM5e3EjlEQOoh8y4zDMWdvIPPyPnoNY+JUVjptvbaf8AFJtVtrrWFtF1wQ2MaQ/6JLM0LXhj+zEEorZSJ3G7bt+benvIRVZiAAW5J9aaI02BQihQchce+f50AfHen+LtU8ei+1bVpDd2zafpVrrk1shHnadBr2pQTO6qq/K0Ue6Taqgq0nyqOB6Pr3ijwh4Zg1XUvhfHYxz+TZQanqvh5IX0yytnvIYnnlEf7szxQvNKuVO1I2L/ACYDfQOaasaxjCqFGc4H50AeE6b4w1/xD4ms9B0bxvLqOhS6q1uvia1gs5Zpl+wyzPCjCLyS0cqxnzFjxh9hG5Sa5K4+Kfjm68I+NtWj8TSWlx4S8KSaoqQ2VsUv7q3vNUhZpQ0ZIWRbGPcsZXG47StfUioEUKoAUdABTqAGRtujQ+ozT6KKAPyutf8AkYvGf/Yzar/6VyVeqla/8jF4z/7GfVf/AErlq7X5zjP94n6n5DmX+91PVhRRRXEeaFFFFABRRRQAUUUUAFFFFABRRRQAUUUUAFFFFABRRRQAUUUUAFFFFABRRRQBQ17/AJAmo/8AXtJ/6Aa/QL9l3/k3H4Y/9i5Yf+iEr8/de/5Ampf9e0n/AKCa/QH9lz/k3D4Zf9i5Yf8AohK+syX4Zn3nDfwVPkeo141+1FPeaP8ADt/EVvb6leReHjJq721ibNUZ4Y2eJ5jcZ+RHCsNis25VO04Fey1k654V0XxN9n/tjSLDVfszF4ft1sk3lMepXcDtPHb0r6c+0Pliz0uaz8ZeA7hJr690xry2tbW8v5YJ3/dWHiTMLS27NE7Rq8akq2cFc81P4d8Ia/4X+Bum+O7DRvCvhG/8P+Dp9Rtb/RFaa7v3OmOI1ud0Ma7A7JMykyAvGnoSfp5vCWhtqljqR0XTzqNipS0uzaRmW3UhgRG+MqCGYYBH3j61sUAeEeNPFWs+C9UvtL1f4jS6N9l0RdRsb+6sbX/iZ3jyTCSBY/K+dIhHBiGLEpFwMuTg1W/4WN4t1r4gR6Euq/2Fo93CsZ1YWkUws9Ye1JGlZI2ttJE/mEfeXySxLAV76yK2MgHByOKdQB8y3HjvUPiVY2OqeJ43svAdjq9ppHiHT57fbALiG2uTdySOR81qt49nCdx2f6PKW+Uk10N54o8J6B/aM/gC7ttD0m5vNPg1jxFpEcL6ZaKxlBdAMxefgRxvIVKoJIS+QmK9m8PeHrHwvpa6fp0JgtRLLPtZ2cmSWRpZGLMSSWd2YknqTWisaquwKAnTaBxQB4B4f8Y+KPGXj2x8NWHjW4/sJotYeDxBZWlo82oRwf2X5cis0TRfJJd3MRZE2t5XQHBFDSPiN411jwPL4sk8RGBtOtNEum063sYBBdNPDC9ysjMpfa3mHbsZSh7sOB9HqoVQAAAOABTqACiiigD4y/b8/wCSgfB7/d1n/wBFW1eE17r+35/yUD4O/wC7rP8A6Ktq8Kr4rOP469D834h/3pegUUUV4J8uFFFFABRRRQAUUUUAFFFFABRRRQAUUUUAFFFFABRRRQAUdxRRTjo7jjpJM+qP2N/id4P0P9mnwNYal4s0PT7yG2mEttdalDHKh+0SnDKzAjgg8+te0/8AC5PAH/Q8eG8f9he3/wDi6/NNvA/htmJPh7SSTySbGIn6/dpP+EF8Nf8AQu6T/wCAEX/xNfWrOaaSXKz72PEdGKS5Gfpb/wALk8Af9Dx4b/8ABvb/APxdH/C5PAH/AEPHhv8A8G9v/wDF1+aX/CC+Gv8AoXdJ/wDACL/4mj/hBfDX/Qu6T/4ARf8AxNP+2qf8rH/rJR/59s/S3/hcngD/AKHjw3/4N7f/AOLo/wCFyeAP+h48N/8Ag3t//i6/NL/hBfDX/Qu6T/4ARf8AxNcnqnhLQo/iRoFsuiacttJZ3LSQraxhGYbMErtwSMnqO5rSnm9Oo7KLNqXEFKq2uR7N/cfqz/wuTwB/0PHhv/wb2/8A8XR/wuTwB/0PHhv/AMG9v/8AF1+aX/CC+Gv+hd0n/wAAIv8A4mj/AIQXw1/0Luk/+AEX/wATWf8AbVP+VmP+slH/AJ9s/S3/AIXJ4A/6Hjw3/wCDe3/+Lo/4XJ4A/wCh48N/+De3/wDi6/NL/hBfDX/Qu6T/AOAEX/xNH/CC+Gv+hd0n/wAAIv8A4mj+2qf8rD/WSj/z7Z+hXxI+Lnga6+HviiCDxn4fnmk0u6SOOPVYGZmMLAKBv5JJr88vh/8A8iL4e/7B8H/otaf/AMIL4a/6F3Sf/ACL/wCJrYgt4rWGOGCNYoo1CpHGoVVUDAAGOAB6V5ePx8cZFRirWPEzTNIZhTjCEWrMkooorxD5sKKKKACiiigAooooAKKKKAPc/wBj3/kqV5/2C5P/AEZFX2fXxh+x7/yVK8/7Bcn/AKMir7Pr7nKf92+Z+m5D/ua9WLRRRXtH0YUUUUAJXi/7Wn/JI5v+vyD+Zr2ivF/2tP8Akkc3/X5B/M1xYz/d5+jPPzD/AHSp6M+JaKKK/OT8fCiiigAooooAKKKKACiiigAooooAKKKKACiiigAooooAKzPFH/Is6x/15zf+izWnWZ4o/wCRZ1f/AK85v/RZrWn8cTaj/Ej6lbwN/wAiT4f/AOwfb/8AooVuVh+Bv+RJ8P8A/YPt/wD0UK3Kqr8bKxH8WXqwooorA5wooooAKKKKACiiigAooooAKKKKACiiigAooooAKKKKACiiigAooooAKKKKACq9rceIPD3i7TPE3hjXj4f1ixhmt0uPskVyCkoUMNsgK9FHbvViitqVWdGXPDc3o1qmHmqlN2aOp/4X18bv+ioH/wAJ+x/+Io/4X18bv+ioH/wn7H/4iuWoru/tLFfzHqf2xjf+fn5HU/8AC+vjd/0VA/8AhP2P/wARR/wvr43f9FQP/hP2P/xFctRR/aeK/m/IP7Yxv/Pz8jqf+F9fG7/oqB/8J+x/+IrH8XftMfG7wv4fu9U/4WQbnyCn7r+w7FM7nVOvlnpu9DWdXIfFn/kn+q/WH/0dHW1HMMTKpFOXU3w+bYydWMZT0b8j1j/hfXxuHB+J5/8ACfsf/jdH/C+vjd/0U8/+E/Y//G65dutJWUsyxKduYxlnGNTtz/kdT/wvr43f9FQP/ggsf/jdH/C+vjd/0VA/+CCx/wDjdctRS/tLFfzC/tnG/wA/4I6n/hfXxu/6Kgf/AAQWP/xuj/hfXxu/6Kgf/BBY/wDxuuWoo/tLFfzB/bON/n/BGfoum3Gnw3bXl62o3t5dzXtzctGsfmSyyNI52rwASx4FaFFFedOcqknKR5FSpKrJznuwoooqDMKKKKACiiigAooooAKKKKACiiigAooooAKKKKACiiigAooooAKKKKACiiigCC+tRe2Vxbk7RNG0ZbrjIIyPcZra8KfFL4u+CfDWl+H9H+JJtdK0u1js7SE6FZuUijUKq7mUscADkn3rMorro4qrh1am7HdhsbXwiaoytc6n/hfXxu/6Kgf/AAn7H/4ij/hfXxu/6Kgf/Cfsf/iK5aiun+08V/N+R2/2zjf+fn5HU/8AC+vjd/0VA/8AhP2P/wARR/wvr43f9FQP/hP2P/xFctRR/aeK/m/IP7Yxv/Pz8jqf+F9fG7/oqH/lv2P/AMRWF4o/af8Ajf4dl0dF+IjXZ1C/jseNCsV8veCS/wDqzkADp3qnXH/EIf6V4SP/AFG4f/Rclb0cwxM52cjqw2bYydRKU+/bsesj49/G7/oqB/8ACfsf/iKP+F9fG7/oqB/8EFj/APG65aisP7SxX8xy/wBs43+f8EdT/wAL6+N3/RUD/wCCCx/+N0f8L6+N3/RUD/4ILH/43XLUUf2liv5g/tnG/wA/4I6n/hfXxu/6Kgf/AAQWP/xuj/hfXxu/6Kgf/BBY/wDxuuWoo/tLFfzB/bON/n/BCeK/EHjX4ja9oep+M/FreIToy3As4/7Ot7UJ5yqrkmJRnIRevpxS0UVxVq9SvLmqO7POxGJq4qXPWd2FFFFYHKFFFFABRRRQAUUUUAFFFFABRRRQAUUUUAFFFFABRRRQAUUUUAFFFFABRRRQAVxusf8AJUvD3/XjdfzSuyrjdY/5Kl4e/wCvG6/mldWH+J+j/I7cL8UvR/kdlRRRXKcQUUUUAFFFFABRRRQAUUUUAFFFFABRRRQAUUUUAe5/se/8lSvP+wXJ/wCjIq+z6+MP2Pf+SpXn/YLk/wDRkVfZ9fc5T/u3zP03If8Ac16sWiiivaPowooooATNeL/taf8AJJJj/wBPkH8zXs9eRftQaRf638L5rbTrK4v7n7VCRDbRGR8AnJ2gE4rjxavQml2ODHpvC1EuzPhuiuj/AOFb+Lf+hW1r/wAF83/xNH/Ct/Fv/Qra1/4L5v8A4mvz32VT+U/JfYVv5Wc5RXR/8K38W/8AQra1/wCC+b/4mj/hW/i3/oVta/8ABfN/8TR7Kp/KHsKv8rOcoro/+Fb+Lf8AoVta/wDBfN/8TR/wrfxb/wBCtrX/AIL5v/iaPZVP5Q9hV/lZzlFdH/wrfxb/ANCtrX/gvm/+Jo/4Vv4t/wChW1r/AMF83/xNHsqn8oewq/ys5yiuj/4Vv4t/6FbWv/BfN/8AE0f8K38W/wDQra1/4L5v/iaPZVP5Q9hV/lZzlFdH/wAK38W/9CtrX/gvm/8AiaP+Fb+Lf+hW1r/wXzf/ABNHsqn8oewq/wArOcoro/8AhW/i3/oVta/8F83/AMTR/wAK38W/9CtrX/gvm/8AiaPZVP5Q9hV/lZzlFdH/AMK38W/9CtrX/gvm/wDiaP8AhW/i3/oVta/8F83/AMTR7Kp/KHsKv8rOcoro/wDhW/i3/oVta/8ABfN/8TR/wrfxb/0K2tf+C+b/AOJo9lU/lD2FX+VnOVmeKP8AkWdY/wCvOb/0Wa7b/hW/i3/oVta/8F83/wATWR4v+Hvim38J63LN4Z1iKKOxnd5HsJQqqIySSdvYA9a1p0586vE1pUKvtIvle5y/gb/kSfD/AP2D7f8A9FCtynfD3wD4nvPAPhq4t/DerzQy6bbPHLFYysrqYlIIIXkEEcg45rof+Fb+Lf8AoVta/wDBfN/8TVVqdRzdolV6FX2srRe7Ocoro/8AhW/i3/oVta/8F83/AMTR/wAK38W/9CtrX/gvm/8Aiaw9lU/lMPYVf5Wc5RXR/wDCt/Fv/Qra1/4L5v8A4mj/AIVv4t/6FbWv/BfN/wDE0eyqfyh7Cr/KznKK6P8A4Vv4t/6FbWv/AAXzf/E0f8K38W/9CtrX/gvm/wDiaPZVP5Q9hV/lZzlFdH/wrfxb/wBCtrX/AIL5v/iaP+Fb+Lf+hW1r/wAF83/xNHsqn8oewq/ys5yiuj/4Vv4t/wChW1r/AMF83/xNH/Ct/Fv/AEK2tf8Agvm/+Jo9lU/lD2FX+VnOUV0f/Ct/Fv8A0K2tf+C+b/4mj/hW/i3/AKFbWv8AwXzf/E0eyqfyh7Cr/KznKK6P/hW/i3/oVta/8F83/wATR/wrfxb/ANCtrX/gvm/+Jo9lU/lD2FX+VnOUV0f/AArfxb/0K2tf+C+b/wCJo/4Vv4t/6FbWv/BfN/8AE0eyqfyh7Cr/ACs5yiuj/wCFb+Lf+hW1r/wXzf8AxNH/AArfxb/0K2tf+C+b/wCJo9lU/lD2FX+VnOUV0f8Awrfxb/0K2tf+C+b/AOJo/wCFb+Lf+hW1r/wXzf8AxNHsqn8oewq/ys5yiuj/AOFb+Lf+hW1r/wAF83/xNH/Ct/Fv/Qra1/4L5v8A4mj2VT+UPYVf5Wc5RXR/8K38W/8AQra1/wCC+b/4mj/hW/i3/oVta/8ABfN/8TR7Kp/KHsKv8rOcoro/+Fb+Lf8AoVta/wDBfN/8TR/wrfxb/wBCtrX/AIL5v/iaPZVP5Q9hV/lZzlFdH/wrfxb/ANCtrX/gvm/+Jo/4Vv4t/wChW1r/AMF83/xNHsqn8oewq/ys5yiuj/4Vv4t/6FbWv/BfN/8AE0f8K38W/wDQra1/4L5v/iaPZVP5Q9hV/lZzlch8Wf8Akn+q/WH/ANHR16l/wrfxb/0K2tf+C+b/AOJrifjN4H8SaZ8NdYuLzw/qlpboYA009lIiDM8Y5JXuSO/cV0YelP2kbrqdWFoVFXg3F7o1G60ldH/wrfxduP8AxS2tev8AyD5v/iaP+Fb+Lf8AoVta/wDBfN/8TWMqVS/ws55UKvM/df3HOUV0f/Ct/Fv/AEK2tf8Agvm/+Jo/4Vv4t/6FbWv/AAXzf/E1Psqn8pPsKv8AKznKK6P/AIVv4t/6FbWv/BfN/wDE0f8ACt/Fv/Qra1/4L5v/AImj2VT+UPYVf5Wc5RXR/wDCt/Fv/Qra1/4L5v8A4mj/AIVv4t/6FbWv/BfN/wDE0eyqfyh7Cr/KznKK6P8A4Vv4t/6FbWv/AAXzf/E0f8K38W/9CtrX/gvm/wDiaPZVP5Q9hV/lZzlFdH/wrfxb/wBCtrX/AIL5v/iaP+Fb+Lf+hW1r/wAF83/xNHsqn8oewq/ys5yiuj/4Vv4t/wChW1r/AMF83/xNH/Ct/Fv/AEK2tf8Agvm/+Jo9lU/lD2FX+VnOUV0f/Ct/Fv8A0K2tf+C+b/4mj/hW/i3/AKFbWv8AwXzf/E0eyqfyh7Cr/KznKK6P/hW/i3/oVta/8F83/wATR/wrfxb/ANCtrX/gvm/+Jo9lU/lD2FX+VnOUV0f/AArfxb/0K2tf+C+b/wCJo/4Vv4t/6FbWv/BfN/8AE0eyqfyh7Cr/ACs5yiuj/wCFb+Lf+hW1r/wXzf8AxNH/AArfxb/0K2tf+C+b/wCJo9lU/lD2FX+VnOUV0f8Awrfxb/0K2tf+C+b/AOJo/wCFb+Lf+hW1r/wXzf8AxNHsqn8oewq/ys5yiuj/AOFb+Lf+hW1r/wAF83/xNH/Ct/Fv/Qra1/4L5v8A4mj2VT+UPYVf5Wc5RXR/8K38W/8AQra1/wCC+b/4mj/hW/i3/oVta/8ABfN/8TR7Kp/KHsKv8rOcoro/+Fb+Lf8AoVta/wDBfN/8TR/wrfxb/wBCtrX/AIL5v/iaPZVP5Q9hV/lZzlFdH/wrfxb/ANCtrX/gvm/+Jo/4Vv4t/wChW1r/AMF83/xNHsqn8oewq/ys5yiuj/4Vv4t/6FbWv/BfN/8AE0f8K38W/wDQra1/4L5v/iaPZVP5Q9hV/lZzlFdH/wAK38W/9CtrX/gvm/8AiaP+Fb+Lf+hW1r/wXzf/ABNHsqn8oewq/wArOcoro/8AhW/i3/oVta/8F83/AMTR/wAK38W/9CtrX/gvm/8AiaPZVP5Q9hV/lZzlcf8AEP8A4+vCX/Ych/8AQJK9T/4Vv4t/6FbWv/BfN/8AE1w/xM8D+JLG88Frc+H9VtzP4ggihEtnIvmP5cvyLleWIB4Hoa6cPTqKom4nZhKNRVU3F9fyNWiuj/4Vv4t/6FbWv/BfN/8AE0f8K38W/wDQra1/4L5v/ia5/ZVP5Tk9hV/lZzlFdH/wrfxb/wBCtrX/AIL5v/iaP+Fb+Lf+hW1r/wAF83/xNL2VT+UXsKv8rOcoro/+Fb+Lf+hW1r/wXzf/ABNH/Ct/Fv8A0K2tf+C+b/4mj2VT+UPYVf5Wc5RXR/8ACt/Fv/Qra1/4L5v/AImj/hW/i3/oVta/8F83/wATR7Kp/KHsKv8AKznKK6P/AIVv4t/6FbWv/BfN/wDE0f8ACt/Fv/Qra1/4L5v/AImj2VT+UPYVf5Wc5RXR/wDCt/Fv/Qra1/4L5v8A4mj/AIVv4t/6FbWv/BfN/wDE0eyqfyh7Cr/KznKK6P8A4Vv4t/6FbWv/AAXzf/E0f8K38W/9CtrX/gvm/wDiaPZVP5Q9hV/lZzlFdH/wrfxb/wBCtrX/AIL5v/iaP+Fb+Lf+hW1r/wAF83/xNHsqn8oewq/ys5yiuj/4Vv4t/wChW1r/AMF83/xNH/Ct/Fv/AEK2tf8Agvm/+Jo9lU/lD2FX+VnOUV0f/Ct/Fv8A0K2tf+C+b/4mj/hW/i3/AKFbWv8AwXzf/E0eyqfyh7Cr/KznKK6P/hW/i3/oVta/8F83/wATR/wrfxb/ANCtrX/gvm/+Jo9lU/lD2FX+VnOUV0f/AArfxb/0K2tf+C+b/wCJo/4Vv4t/6FbWv/BfN/8AE0eyqfyh7Cr/ACs5yiuj/wCFb+Lf+hW1r/wXzf8AxNH/AArfxb/0K2tf+C+b/wCJo9lU/lD2FX+VnOUV0f8Awrfxb/0K2tf+C+b/AOJo/wCFb+Lf+hW1r/wXzf8AxNHsqn8oewq/ys5yiuj/AOFb+Lf+hW1r/wAF83/xNH/Ct/Fv/Qra1/4L5v8A4mj2VT+UPYVf5Wc5RXR/8K38W/8AQra1/wCC+b/4mj/hW/i3/oVta/8ABfN/8TR7Kp/KHsKv8rOcrjdY/wCSpeHf+vG6/mleq/8ACt/Fv/Qr61/4L5v/AImuE1zwP4ji+L3he0fw/qiXc2n3jxwNZSb3VTHuZV25IGR0HcV1UKc1J3j0f5HZhaNVSleL2f5GxRXR/wDCt/Fv/Qra1/4L5v8A4mj/AIVv4t/6FbWv/BfN/wDE1y+yqfys4/YVf5Wc5RXR/wDCt/Fv/Qra1/4L5v8A4mj/AIVv4t/6FbWv/BfN/wDE0eyqfyh7Cr/KznKK6P8A4Vv4t/6FbWv/AAXzf/E0f8K38W/9CtrX/gvm/wDiaPZVP5Q9hV/lZzlFdH/wrfxb/wBCtrX/AIL5v/iaP+Fb+Lf+hW1r/wAF83/xNHsqn8oewq/ys5yiuj/4Vv4t/wChW1r/AMF83/xNH/Ct/Fv/AEK2tf8Agvm/+Jo9lU/lD2FX+VnOUV0f/Ct/Fv8A0K2tf+C+b/4mj/hW/i3/AKFbWv8AwXzf/E0eyqfyh7Cr/KznKK6P/hW/i3/oVta/8F83/wATR/wrfxb/ANCtrX/gvm/+Jo9lU/lD2FX+VnOUV0f/AArfxb/0K2tf+C+b/wCJo/4Vv4t/6FbWv/BfN/8AE0eyqfyh7Cr/ACs9Q/Y9/wCSpXn/AGC5P/RkVfZ/NfIv7KnhHXdB+JF1c6lo2oadbnTZEEt1ayRKW8yM4yy9SAT17GvrgV9rlUXHDWatqfpGRRlHBpSVtWPooor2T6EKKKKACkwD2paKAE2j0H5UbR6ClooATaPQUbR6ClooATaPQUbR6ClooATaPQUbR6ClooATaPQUbR6ClooATaPQUbR6ClooATaPQUbR6ClooATaPQUbR6ClooATaPQUbR6ClooATaPQVx3xmUf8Kf8AHPA/5AV9/wCk712Vcd8Zv+SP+Of+wFff+k70AZX7OKj/AIZ7+GXH/Ms6b/6Sx16LtHoK86/Zx/5N7+GX/Ys6b/6TR16NQAm0ego2j0FLRQAm0ego2j0FLRQAm0ego2j0FLRQAm0ego2j0FLRQAm0ego2j0FLRQAm0ego2j0FLRQAm0ego2j0FLRQAm0ego2j0FLRQAm0ego2j0FLRQAm0ego2j0FLRQAm0ego2j0FLRQAm0ego2j0FLRQAm0ego2j0FLRQAm0ego2j0FLRQAm0ego2j0FLRQAm0egrwz9ttQP2ZPGPH8Vj/6XW9e6V4Z+25/ybH4x/3rH/0ut6BHuW0ego2j0FLRQMTaPQUbR6ClooATaPQUbR6ClooATaPQUbR6ClooATaPQUbR6ClooATaPQUbR6ClooATaPQUbR6ClooATaPQUbR6ClooATaPQUbR6ClooATaPQUbR6ClooATaPQUbR6ClooATaPQUbR6ClooATaPQUbR6ClooATaPQUbR6ClooATaPQUbR6ClooATaPQUbR6ClooATaPQUbR6ClooATaPQUbR6ClooATaPQUbR6ClooATaPQV4P+1IB/bfwQ4/5qFYf+k9zXvNeD/tSf8hz4If8AZQrD/wBJ7mgD3faPQUbR6ClooATaPQUbR6ClooATaPQUbR6ClooATaPQUbR6ClooATaPQUbR6ClooATaPQUbR6ClooATaPQUbR6ClooATaPQUbR6ClooATaPQUbR6ClooATaPQUbR6ClooATaPQUbR6ClooATaPQUbR6ClooATaPQUbR6ClooATaPQUbR6ClooATaPQUbR6ClooATaPQUbR6ClooATaPQV4H48Uf8Nl/CoY4/wCEe1j+cFe+14H48/5PM+FX/Yvaz/OGgD3vaPQUbR6ClooATaPQUbR6ClooATaPQUbR6ClooATaPQUbR6ClooATaPQUbR6ClooATaPQUbR6ClooATaPQUbR6ClooATaPQUbR6ClooATaPSloooAKKKKACiiigAooooAKKKKACiiigAooooAKKKKACiiigAooooAKKKKACiiigAooooAK474zf8AJH/HP/YCvv8A0neuxrjvjN/yR/xz/wBgK+/9J3oAyv2cf+Te/hl/2LOm/wDpNHXo1ec/s4/8m9/DL/sWdN/9Jo69GoAKKKKACiiigAooooAKKKKACiiigAooooAKKKKACiiigAooooAKKKKACiiigAooooAKKKKACiiigAooooAK8M/bc/5Nj8Y/71j/AOl1vXudeGftuf8AJsfjH/esf/S63oA9zooooAKKKKACiiigAooooAKKKKACiiigAooooAKKKKACiiigAooooAKKKKACiiigAooooAKKKKACiiigAooooAKKKKACiiigAooooAK8H/ak/wCQ58EP+yhWH/pPc17xXg/7Un/Ic+CH/ZQrD/0nuaAPeKKKKACiiigAooooAKKKKACiiigAooooAKKKKACiiigAooooAKKKKACiiigAooooAKKKKACiiigAooooAKKKKACvA/Hn/J5nwq/7F7Wf5w175Xgfjz/k8z4Vf9i9rP8AOGgD3yiiigAooooAKKKKACiiigAooooAKKKKACiiigAooooAKKKKACiiigAooooAKKKKACiiigAooooAKKKKACiiigAooooAKKKKACiiigAooooAKKKKACuO+M3/ACR/xz/2Ar7/ANJ3rsa474zf8kf8c/8AYCvv/Sd6AMr9nH/k3v4Zf9izpv8A6TR16NXnP7OP/Jvfwy/7FnTf/SaOvRqACiiigAooooAKKKKACiiigAooooAKKKKACiiigAooooAKKKKACiiigAooooAKKKKACiiigAooooAKKKKACvDP23P+TY/GP+9Y/wDpdb17nXhn7bn/ACbH4x/3rH/0ut6APc6KKKACiiigAooooAKKKKACiiigAooooAKKKKACiiigAooooAKKKKACiiigAooooAKKKKACiiigAooooAKKKKACiiigAooooAKKKKACvB/2pP8AkOfBD/soVh/6T3Ne8V4P+1J/yHPgh/2UKw/9J7mgD3iiiigAooooAKKKKACiiigAooooAKKKKACiiigAooooAKKKKACiiigAooooAKKKKACiiigAooooAKKKKACiiigArwPx5/yeZ8Kv+xe1n+cNe+V4H48/5PM+FX/Yvaz/ADhoA98ooooAKKKKACiiigAooooAKKKKACiiigAooooAKKKKACiiigAooooAKKKKACiiigAooooAKKKKACiiigAooooAKKKKACiiigAooooAKKKKACiiigArjvjN/wAkf8c/9gK+/wDSd67GuO+M3/JIfHP/AGAr7/0nkoAyv2cf+Te/hl/2LOm/+k0dejV5z+zh/wAm9/DL/sWdN/8ASWOvRqACiiigAooooAKKKKACiiigAooooAKKKKACiiigAooooAKKKKACiiigAooooAKKKKACiiigAooooAKKKKACvDP23P8Ak2Pxj/vWP/pdb17nXhn7bn/JsfjH/esf/S63oA9zooooAKKKKACiiigAooooAKKKKACiiigAooooAKKKKACiiigAooooAKKKKACiiigAooooAKKKKACiiigAooooAKKKKACiiigAooooAK8H/ak/5DnwQ/7KFYf+k9zXvFeBftU3EcGtfBAySLGD8Q9PUFmxyYbgAfUkgfiKAPfaKSloAKKKKACiiigAooooAKKKKACiiigAooooAKKKKACiiigAooooAKKKKACiiigAooooAKKKKACiiigAooooAK8D8ef8nmfCr/sXtZ/nDXvleKeM/DWrXn7Vnw31yDTrmbR7LQ9Vgub5IyYYZJDDsVm6AttOPoaAPa6KKKACiiigAooooAKKKKACiiigAooooAKKKKACiiigAooooAKKKKACiiigAooooAKKKKACiiigAooooAKKKKACiiigAooooAKKKKACiiigAooooAKrXlnBqVnPaXcEdzaTo0U0EyB0kRhhlZTwQQSCD1zVmigCppum2mj6fa2Fhaw2NjaxrBBa20YjihjUYVEUABVAAAA4AFW6KKACiiigAooooAKKKKACiiigAooooAKKKKACiiigAooooAKKKKACiiigAooooAKKKKACiiigAooooAKKKKACuc8feBNH+JnhO+8N69A9zpV6YzNFHK0bNskWRcMCCPmRT+FdHRQAUUUUAFFFFABRRRQAUUUUAFFFFABRRRQAUUUUAFFFFABRRRQAUUUUAFFFFABRRRQAUUUUAFFFFABRRRQAUUUUAFFFFABRRRQAUUUUAFcx40+HPh/4gy6DJr1h9ufQtTh1jTz50kfk3cWfLk+Vhuxk8Nkc8iunooAKKKKACiiigAooooAKKKKACiiigAooooAKKKKACiiigAooooAKKKKACiiigAooooAKKKKACiiigAooooAKKKKACiiigAooooAKKKKACiiigAooooAKKKKACiiigAooooAKKKKACiiigAooooAKKKKACiiigAooooAKKKKACiiigAooooAKKKKACiiigAooooAKKKKACiiigAooooAKKKKACiiigAooooAKKKKACiiigAooooAKKKKACiiigAooooAKKKKACiiigAooooAKKKKACiiigAooooAKKKKACiiigAooooAKKKKACiiigAooooAKKKKACiiigAooooAKKKKACiiigAooooAKKKKACiiigAooooAKKKKACiiigAooooAKKKKACiiigAooooAKKKKACiiigAooooAKKKKACiiigAooooAKKKKACiiigAooooAKKKKACiiigAooooAKKKKACiiigAooooAKKKKACiiigAooooAKKKKACiiigAooooAKKKKACiiigAooooAKKKKACiiigAooooAKKKKACiiigAooooAKKKKACiiigAooooAKKKKACiiigAooooAKKKKACiiigAooooAKKKKACiiigAooooAKKKKACiiigAooooAKKKKACiiigAooooAKKKKACikzS0AFFJmloAKKTNVYtStbjULixjnje8t0SSaFWyyK5bYSOwOxsf7poAt0UUUAFFFFABRRRQAUUUUAFFFFABRRRQAUUUUAFFFFABRRRQAUUUUAFFFJmgBaKSjIoAWikzS0AFFJS0AFFFFABRRRQAUUUUAFFFFABRRRQAUUUUAFFFFABRRRQAUUUUAFFFFABRRRQAUUlVbrUrWzuLSC4uYbee8kMNtHI4VpnCM5VAT8xCI7YHZWPQGgC3RWdf69pml3HkXmo2tpOYjMI55lRvLDKhfBPQM6Ln1ZR3FaNABRRRQAUUUUAFFFFABRRRQAUUUUAFFFFABRRRQAUUUUAFFFFABRRRQAUUUUAFFFFABRRRQAUUUUAFFFFABRRRQAUUUUAFFFFABRRRQAUUUUAFFFFABRRRQAUUUUAFFFFABRRRQAUUUUAFFFFABRRRQAUUUUAFFFFABRRRQAUUUUAFFFFABRRRQAUUUUAFFFFABRRRQAUUUUAFFFFABRRRQAUUUUAFFFFABRRRQAUUUUAFFFFABRRRQB5X8VvCcviLxVoc2qeHJPGHhKCxvEn0iPyXC3peBreYxyuqkhUnRWByhkB4BLDh7r4d+JbhruWfw5eP4sL6adA1yS/juf7Gt1htknha4dxISksdw8mEPnrKPv5ZU+jKKAPlTxX8CvFH/CvdUk0XRnj8YalJ4rt7ueK7iSW4tbr+0XsY3cvgp5j2ZVc/ITk7cNXR+Nvg3rllqGp2/hXT0tvDF62k3GqaaoWZNRZWvVu8xNKm9jvsXlLOvmpEV+c5RvoiigD5xsfhrqkdjpsPiTwpd+J/DMK6i1p4fiW3iWwlMkH2YiEzsi5CTGNg7GESEZQEhO3+HPw7Phv4iajrlz4cSyu7/QdOhk1P7Ql1J56GUTwvOSJZX/ANSTIyAPtBzkYr1eigAooooAK5n4i+CV+Ing/UPDza5rfhtbzy86n4dvjZ30OyRX/dygEru27T6qzDvXTUUAfNp/YniPT46fG1fp41kP/tOmN+xKO3x6+OC/TxkT/OGvpWigD5mb9iFz0/aC+OS/Txgp/nb1Gf2HZ+37RHx1H/c3Rf8AyNX07RQB8wN+w7e/w/tGfHIfXxVEf/bamH9h/U/4f2j/AI2j6+JYj/7Qr6iooA+XR+xLrafc/aR+M3/Atfhb/wBoVo+Hv2Q/EOg69pmov+0H8VdUis7mO4exv9UgeC4VHDGKQCEEowG08jgmvpGigAooooAKKKKACiiigAooooA8z+N2rXOm2/g+KHUtR0u2vtejtL2XSlLTNAba5Zl4UkAlFJZRlQCwIK5HDeGbfxT4m8c6Zprat4ji8G2zaw9ndmWWGS9hifTvs4nlI3kCV7wIxw0kcecurEt7vqGj2eqTWM13As0ljP8AabZmzmKXYybh77Xcf8CNXqAPm3Q9c1xtM0+a91PxYdTu9GvJfF8MUM7Npt0ka/8AHmhQqkqzkpFHECJUO7Egw5RfGnxC8G+FV8V+IYrq58T2d81hq2h4KWUguYkSxFoAWVibj7KpfccGa5B4UBfpOqGqaPZ6wtst7ALhbadLqJWJ2iRDlGxnkqcEZzggHqBQBR0DTdS0PwhYWVzeNq2r21msct5MebmcJhnPoGbJ44GeMV4Dp/iDxJH4Ksrqz1Pxhc+IbvT7GfxTFNZyutgzXVst6YUZMxTrE10VhhUjam7bny9/utx8NfCN1rX9sz+FdFm1jzln/tCTToWuPMUgq/mbd24YGDnIwK6WgDwKxt9c17WrLRNP1jxI3gv+3jAmpGaZLqW3/syd5E+0MBI0InEW2UnJYlQxAArlYj8Q9X0PxdPcat4ntr3QPC7XGk+Srx/ar6C91RI3dQn753igtd0ZyHDqSpypr6opKAAUtFFADWzz2ryl/h58TixK/FjAzkA+HrY/h96vV6StadWVK/Lb5pP80zGpSjVtzN/JtfkeT/8ACvPij/0VlPx8OW//AMXR/wAK9+Kf/RWIf/Cbg/8Ajles8UZFb/WqnaP/AIDH/Iw+qU+7/wDAn/meS/8ACvvir/0Vi2/8JmH/AOO0f8K/+K3/AEVi0/8ACYi/+PV61kUZFH1up2X/AIDH/IPqkO7/APAn/meS/wDCB/Fnt8U7E/Xw1H/8epv/AAgvxc7fFDTj9fDif/Ha9bwPWjA9aPrU/wCWP/gMf8g+qw/mf/gT/wAzyT/hCfi+vT4k6U3+94eUf+1aP+EO+MK9PiHozfXQcf8AtWvXMUYo+ty/lj/4Cv8AIf1WH8z+9kcKusKCRt8gUbmAwCe5x9aloorjOwKKKKACiiigAooooAKrag7R2Ny6nDLGxBHUYBxVmmSRrNGyOMqwII9jQB8paL4q8VzfD3RNT8P6r4o1u9vPCX9o6691DM7RXSG1MZhUphZGU3OI4h+8UBsNlWO3431y58VfErSriSbxBB4Ts/ENvGmoWVpOqxxyaRepJJG6oWSMySIjTLjaSTuXG4fRGk6XaaHpdnpthAttZWcKW8EKZxHGihVUZ7AACrlAHy5fL4q1BTeC31W9SHTtQtdOvLq1kNxNajVrTyDIGXO8xKxBYbmVN57mu68I6pfz+OopNT1DxIviOTWdQtrjSo4pG06OwRpvszsrARohiFuwmQl2kYqSfnVfaqqahptprFjPZX9rDe2U6FJbe5jEkcinqrKeCPYigDhvi9d30MfhqAXN/Y+HrrUzFrV7phkWeG3+zzNGd8Y3xIZxCGkXGAeSoJNec32tahJaH7brXjSz0i20iW40C6jtJUvL26S5uFxMkaEyMsS2flRygGVZHZkZg2z2vw74D8NeEJZpNC8PaVoskyhZX06yity4HIDFFGQPet+gD500ZfH1xc6nr+rXet2usWXinRrNdLhZjY/ZZ7bTEvQsYBV41ee6bzMnYY2IIw2df4H2fiq1i+Hl9reqa/fXGteE2uNah1YsyRXqfY/L+QqBC4Ek6lQAXwS2WUmvdKSgBaKKKAMnWLHUL3yvsOofYdud37oPu9OvT/69Z39h6/8A9B8f+Ay/410v86K2jVlFWVvuR5tXAUq03Uk5X8pSS+5NI5j+wfEH/QfX/wABR/jR/YfiH/oPp/4Cj/Gupoq/by7L7kYf2VQ/mn/4HP8AzOW/sPxH21+P/wABR/8AFUn9ieI/+g/H/wCAn/2VdTijFL28uy+5D/sqh/NP/wADl/mcv/YniT/oPRf+Av8A9lR/Y/iT/oOQ/wDgL/8AZV1FFH1iXZfcg/suj/NP/wADl/mcv/Y/iT/oNQ/+Av8A9lS/2T4k/wCgxB/4Cn/4qun5o5o9vLsvuQf2XR/nn/4HL/Mht1dIUEjBpABuYDGT61NzzRRmuc9dKysLRRRQMKKKKACiiigAooooAKKKKACiiigAooooAKKKKACiiigAooooAKKKKACiiigAooooAKKKKACiiigAooooAKKKKACiiigAooooAKKKKACiiigAooooAKKKKACiiigAooooAKKKKACiiigAooooAKKKKACiiigAooooAKKKKACiiigAooooAKKKKACiiigAooooAKKKKACiiigAooooAKKKKACiiigAooooAKKKKACiiigAooooAKKKKACiiigAooooAKKKKACiiigAooooAKKKKACiiigAooooAKKKKACiiigAooooAKKKKACiiigAooooAKKKKACiiigAooooAKKKKACiiigAooooAKKKKACiiigAooooAKKKKACiiigAooooAKKKKACiiigAooooAKKKKACiiigAooooAKKKKACiiigAooooAKKKKACiiigAooooAKKKKACiiigAooooAKKKKACiiigAooooAKKKKACiiigAooooAKKKKACiiigAooooAKKKKACiiigAooooAKKKKACiiigAooooAKKKKACiiigAooooAKKKKACiiigAooooAKKKKACiiigAooooAKKKKAOM8ZeOb/Rtd07QNB0eLXNfvbae/FvdXv2SFLeF4kkYyeW53Fp4wq7cH5slcV5n4o+MHjSPxH4rsItLg0TT7DSdC1CCSaZXvIXvLyWKRJI9jJnbEykBjtKZDNv+X1zxJ4F0vxRfWl7dfa7a/tYpYIrywu5baZYpdvmR7o2GVbYhwehRWGGVSMtvg74T3kppjxIdOs9KMUd1MsbW1pI0lshUPglGdiGxuwxBJHFAG74s8SQ+EPDt5q1xBNdLbhdlrbAGWeRmCxxJuIXc7sqjcQMsMkDmuOu/iV4l0yO00+98GrF4mv737HY20eqB7GbEEk5ka58sMqqkTgjySQ5UAEHdWjceEPEviKK60zxRrGh6r4evIpIbmzsdHuLO4ZWUhdk/219jA4O5VzxwVOCHN8H/AA5JMLl0vpNTF4l8mpvfzG6SVInhQrJvyFEcki7Pune+QSxJAOZuvjlqU0M6aV4Plv76ys7m71C3m1BIRD9muHgmiRtrb3LRs0eQoYY3GPNTf8LydtZVo9Ad/DA1Wx0d9WN2BL515BayW7LBt5TddxoxLgqeQGGcddo/w18PaHBJDZ2ciiS2ltJHluZZXkSWV5ZCzMxJZnkdixO7LHmmp8MfDcem/YF08ra/brPUQnnyf6+1WBbd87s/KLaDjodnIOTkA6yiiigBKqaleHT7C5uRBLcmGNpPJgXdI+BnaozyxxgCrfvSdal3ashrc8+/4W86/wDMneJv/AEf/F03/hcDL18H+KP/AAX/AP2Veh7R6D8qNo9B+VcHscR/z9/BHX7Sj/z7/E87/wCFxr/0J/ij/wAFp/8AiqT/AIXMg/5k/wAVf+Ctv8a9FwvoKML6Cj2OJ/5+/gg9pQ/59/iec/8AC6ou/hHxV/4Kn/xo/wCF2Qf9Cp4pH/cKf/GvRto9vyo2j0H5UexxP/P38A9pQ/59/iecf8LstO/hjxMPrpbf40o+Nlj38O+JB/3C3r0bYPQflSbB6D8qPZYr/n6v/Af+CP2mH/59v7/+AYvhXxRD4ssJLqGzvrJUkMZjvrdoXPAOQD25/Q1t0o4oNdtNSjFKTuzkk03eKshaKKK0JCiiigAooooAoa5cSWui6hPC2yWK3kdGxnBCkjj6ivI/Dnx0vW8J2eq3Ol/2jpOl2tjH4h1k3KxSxXM1tbzM0duExIircRu5DJgEhQ5GK9kurZLy2lglXdFKhR1yRkEYI/KuMHwZ8LRiOOOzuIrMC182xjvZlt7g2wRYGlj37ZGVY41Jb76ogfcFUAAzrP4sajdLqOqL4UuJPCtub6OLUY76ETvJatKkhkikKJHG7QuEkMpzlC4jDZHN6L8dLrxheQ6fBHZ6fqFtq2nJctpl8uoWs1rctMFCymNPmJgcMAvGFIZs5rrNQ+BPg7Vre9tLyxurjT7v7az2D6hP9nRrwSC5dE34RnEsnK42+Y23buObq/CvRre9vdTgWebXLj7M5vtQuZ7j95bCT7OxTzANqmVyVXaG3HPrQBp+OPFw8G6RDcJatf313dw2FlaB/LE08rBUDPg7FHLM2CQqtgMcA8zJ8SPEqzafoyeD4h4uuEuJ5LGbVQtmtvC0SvMlyIizhjPGFBiUk7shduavt4K13xHG9n4w1fSNV00Mk8KaTplzp1xFcRyK8cqzfbJCNpXoACc9cZBkX4SaBG0M6f2hFqEck8ralHqM63UpmCCUPKH3MrCOMBTwvlR7QuxNoBxcf7RjahC+o6b4YuJ9AtI7CbULq4u1iuIEuiVAWIKwdo2B3qXUYBKljxW34a+MF7ruvaZBP4bax0bU9T1DRrTUPtqySNdWklyG3RBBtjdLSVg24nIwVHDHds/hJ4U0/RrrSrXShBp91BbWssCTyYaOAYiGd2QVx1zk9STWhY+A9E09NNSCzKLp2o3Oq2o81z5dzcef50n3ud32qf5TwN/AGFwAdFRRRQA1m2qeM4rxeT9pSWORlPwq+IxwcZGiKf8A2rXtNJ+FXCUY/ErlxlFfErniZ/abZevwq+I//ghB/wDalNP7T+3r8LPiR/4TxP8A7PXt23/OKNv+cVp7Sn/J+Jpz0/5fxPDz+1Iv/RLfiV/4Tjf/ABdN/wCGqIx/zS74mf8AhMyH/wBmr3LaKNtP2lL+T8R89P8Al/E8N/4ast+/ww+JY/7lmX/4qk/4autB1+GfxJH/AHLMv+Ne54HoKTA9BT9pS/k/EOel/J+J4d/w1hp/f4d/EZf97wzL/jS/8NYaT/F4D+IK/Xw1NXuO1fQflRtX0H5U+ej/ACfj/wAAOal/L+P/AADifhr8VrP4nR30lpouu6OLNkVhrenPaGTdnlN33sbecdMj1rt80nH0ox+Vc83Fv3VZGMmm9FYdRRRUkhRRRQAUUUUAFFFFABRRRQAUUUUAFFFFABRRRQAUUUUAFFFFABRRRQAUUUUAFFFFABRRRQAUUUUAFFFFABRRRQAUUUUAFFFFABRRRQAUUUUAFFFFABRRRQAUUUUAFFFFABRRRQAUUUUAFFFFABRRRQAUUUUAFFFFABRRRQAUUUUAFFFFABRRRQAUUUUAFFFFABRRRQAUUUUAFFFFABRRRQAUUUUAFFFFABRRRQAUUUUAFFFFABRRRQAUUUUAFFFFABRRRQAUUUUAFFFFABRRRQAUUUUAFFFFABRRRQAUUUUAFFFFABRRRQAUUUUAFFFFABRRRQAUUUUAFFFFABRRRQAUUUUAFFFFABRRRQAUUUUAFFFFABRRRQAUUUUAFFFFABRRRQAUUUUAFFFFABRRRQAUUUUAFFFFABRRRQAUUUUAFFFFABRRRQAUUUUAFFFFABRRRQAUUUUAFFFFABRRRQAUUUUAFFFFABRRRQAUUUUAFFFFABRRRQAUUUUAFFFFABRRRQAUUUUAFFFFABRRRQAUUUUAFFFFABRRRQAUUUUAFFFFABRRRQB//9k=&quot;,&quot;width&quot;:&quot;1212&quot;,&quot;height&quot;:&quot;943&quot;}" math="0" shadow="0">
      <root>
        <mxCell id="0" />
        <mxCell id="1" parent="0" />
        <mxCell id="s0hoYKfA4gUew2D9gMLB-27" value="ProxyClient" style="rounded=0;whiteSpace=wrap;html=1;fillColor=#FFFFFF;strokeColor=none;" vertex="1" parent="1">
          <mxGeometry x="425" y="38" width="73" height="41" as="geometry" />
        </mxCell>
        <mxCell id="s0hoYKfA4gUew2D9gMLB-28" value="ProxyServer" style="rounded=0;whiteSpace=wrap;html=1;fillColor=#FFFFFF;strokeColor=none;" vertex="1" parent="1">
          <mxGeometry x="742" y="38" width="80" height="41" as="geometry" />
        </mxCell>
      </root>
    </mxGraphModel>
  </diagram>
</mxfile>
